<?xml version="1.0" encoding="UTF-8"?>
<svg id="Capa_1" xmlns="http://www.w3.org/2000/svg" version="1.1" viewBox="0 0 261.4 641.1">
  <!-- Generator: Adobe Illustrator 29.5.0, SVG Export Plug-In . SVG Version: 2.1.0 Build 137)  -->
  <defs>
    <style>
      .st0 {
        fill: none;
      }

      .st1 {
        fill: #0f3e5e;
      }

      .st2 {
        fill: #fff;
      }

      .st3 {
        fill: #c5c5c5;
      }
    </style>
  </defs>
  <g id="fondo">
    <g id="fondo1">
      <path class="st1" d="M237.1,8.8c-1.5-4.6-5.7-7.7-10.6-7.7h-74.9c-6.1,0-11.1,5-11.1,11.1v42H12.2c-6.1,0-11.1,5-11.1,11.1v563.6c0,6.1,5,11.1,11.1,11.1h214.3c6.1,0,11.1-5,11.1-11.1V18.1c0-1-.1-2-.4-2.9.6-2,.5-4.2-.1-6.3h0Z"/>
      <path class="st2" d="M226.5,641.1H12.2c-6.7,0-12.2-5.5-12.2-12.2V65.3c0-6.7,5.5-12.2,12.2-12.2h127.2V12.2c0-6.7,5.5-12.2,12.2-12.2h74.9c5.3,0,10,3.4,11.6,8.5h0c.7,2.2.8,4.5.2,6.6.2.9.4,1.9.4,2.9v610.8c0,6.7-5.5,12.2-12.2,12.2h0ZM12.2,55.3c-5.5,0-10,4.5-10,10v563.6c0,5.5,4.5,10,10,10h214.3c5.5,0,10-4.5,10-10V18.1c0-.9-.1-1.8-.3-2.6v-.6c.5-1.9.5-3.8-.1-5.7-1.3-4.2-5.2-6.9-9.5-6.9h-74.9c-5.5,0-10,4.5-10,10v42c0,.6-.5,1.1-1.1,1.1H12.2Z"/>
    </g>
  </g>
  <g id="primerPiso01">
    <rect id="primerPiso011" class="st1" x="13.4" y="508.8" width="134.4" height="62.6"/>
  </g>
  <g id="segundoPiso02">
    <rect id="segundoPiso021" class="st1" x="147.8" y="194" width="78.9" height="377.4"/>
  </g>
  <g id="segundoPiso01">
    <rect id="segundoPiso011" class="st1" x="13.4" y="194" width="134.4" height="314.9"/>
  </g>
  <g id="tercerPiso01">
    <rect id="tercerPiso011" class="st1" x="13.4" y="140.3" width="134.4" height="53.7"/>
  </g>
  <g id="tercerPiso02">
    <rect id="tercerPiso021" class="st1" x="147.7" y="140.3" width="77.7" height="53.7"/>
  </g>
  <g id="terraza">
    <rect id="terraza1" class="st1" x="13.4" y="66" width="213.3" height="74.3"/>
  </g>
  <g id="contorno">
    <path id="contorno1" class="st2" d="M226.5,10.6h-74.9c-.6,0-1.1.5-1.1,1.1v52H12.2c-.6,0-1.1.5-1.1,1.1v563.6c0,.6.5,1.1,1.1,1.1h214.3c.6,0,1.1-.5,1.1-1.1V11.7c0-.6-.5-1.1-1.1-1.1ZM152.7,12.9h72.7v50.9h-72.7V12.9ZM225.4,622.4h0v4.9H13.3V66h212.1v556.5h0Z"/>
  </g>
  <g id="numeros">
    <g id="numeros1">
      <path class="st2" d="M253.2,531.6c0,.2,0,.4.3.6.2.2.4.3.6.3s.4,0,.6-.3c.2-.2.3-.4.3-.6s0-.4-.3-.6c-.2-.2-.4-.3-.6-.3s-.4,0-.6.3c-.2.2-.3.4-.3.6ZM252.6,531.6c0-.4.1-.7.4-1,.3-.3.6-.4,1-.4s.7,0,1,.4c.3.3.4.6.4,1s-.1.7-.4,1c-.3.3-.6.4-1,.4s-.7,0-1-.4c-.3-.3-.4-.6-.4-1ZM250,537.9h-.9v-5.9c-.2.2-.5.4-.9.6-.4.2-.7.4-1,.5v-.9c.5-.2,1-.5,1.4-.9.4-.3.7-.7.8-1h.6v7.6h0Z"/>
      <path class="st2" d="M254,478.4c0,.2,0,.4.3.6.2.2.4.3.6.3s.4,0,.6-.3c.2-.2.3-.4.3-.6s0-.4-.3-.6c-.2-.2-.4-.3-.6-.3s-.4,0-.6.3c-.2.2-.3.4-.3.6ZM253.5,478.4c0-.4.1-.7.4-1,.3-.3.6-.4,1-.4s.7.1,1,.4c.3.3.4.6.4,1s-.1.7-.4,1c-.3.3-.6.4-1,.4s-.7-.1-1-.4-.4-.6-.4-1ZM252.2,483.8v.9h-5c0-.2,0-.4.1-.6.1-.3.3-.7.6-1s.7-.7,1.2-1.1c.8-.7,1.4-1.2,1.7-1.6s.4-.8.4-1.1-.1-.7-.4-.9c-.3-.3-.6-.4-1-.4s-.8.1-1.1.4-.4.6-.4,1.1h-1c0-.8.3-1.4.7-1.7.4-.4,1-.6,1.7-.6s1.3.2,1.7.6.6.9.6,1.5,0,.6-.2.9c-.1.3-.3.6-.6.9s-.8.8-1.4,1.3c-.6.5-.9.8-1.1,1-.2.2-.3.3-.4.5h3.9Z"/>
      <path class="st0" d="M254,478.4c0,.2,0,.4.3.6.2.2.4.3.6.3s.4,0,.6-.3c.2-.2.3-.4.3-.6s0-.4-.3-.6c-.2-.2-.4-.3-.6-.3s-.4,0-.6.3c-.2.2-.3.4-.3.6ZM253.5,478.4c0-.4.1-.7.4-1,.3-.3.6-.4,1-.4s.7.1,1,.4c.3.3.4.6.4,1s-.1.7-.4,1c-.3.3-.6.4-1,.4s-.7-.1-1-.4-.4-.6-.4-1ZM252.2,483.8v.9h-5c0-.2,0-.4.1-.6.1-.3.3-.7.6-1s.7-.7,1.2-1.1c.8-.7,1.4-1.2,1.7-1.6s.4-.8.4-1.1-.1-.7-.4-.9c-.3-.3-.6-.4-1-.4s-.8.1-1.1.4-.4.6-.4,1.1h-1c0-.8.3-1.4.7-1.7.4-.4,1-.6,1.7-.6s1.3.2,1.7.6.6.9.6,1.5,0,.6-.2.9c-.1.3-.3.6-.6.9s-.8.8-1.4,1.3c-.6.5-.9.8-1.1,1-.2.2-.3.3-.4.5h3.9Z"/>
      <path class="st2" d="M253.9,425.3c0,.2,0,.4.3.6.2.2.4.3.6.3s.4,0,.6-.3c.2-.2.3-.4.3-.6s0-.4-.3-.6c-.2-.2-.4-.3-.6-.3s-.4,0-.6.3c-.2.2-.3.4-.3.6ZM253.3,425.3c0-.4.1-.7.4-1,.3-.3.6-.4,1-.4s.7.1,1,.4.4.6.4,1-.1.7-.4,1c-.3.3-.6.4-1,.4s-.7-.1-1-.4-.4-.6-.4-1h0ZM247.2,429.6h.9c.1.4.3.8.5,1,.3.2.6.3.9.3s.8-.2,1.1-.5.5-.7.5-1.1-.1-.8-.4-1.1c-.3-.3-.6-.4-1.1-.4s-.4,0-.7.1v-.8h.3c.4,0,.8-.1,1.1-.3.3-.2.5-.5.5-1s-.1-.6-.3-.8c-.2-.2-.5-.3-.9-.3s-.7.1-.9.3c-.2.2-.4.6-.5,1l-.9-.2c.1-.6.4-1.1.8-1.5.4-.3.9-.5,1.5-.5s.8,0,1.1.3c.3.2.6.4.8.7.2.3.3.6.3,1s0,.6-.3.9c-.2.3-.4.5-.8.6.4.1.8.3,1,.6.2.3.4.7.4,1.2s-.2,1.2-.7,1.7-1.1.7-1.8.7-1.2-.2-1.7-.6c-.4-.4-.7-.9-.8-1.5v.2Z"/>
      <path class="st0" d="M253.9,425.3c0,.2,0,.4.3.6.2.2.4.3.6.3s.4,0,.6-.3c.2-.2.3-.4.3-.6s0-.4-.3-.6c-.2-.2-.4-.3-.6-.3s-.4,0-.6.3c-.2.2-.3.4-.3.6ZM253.3,425.3c0-.4.1-.7.4-1,.3-.3.6-.4,1-.4s.7.1,1,.4.4.6.4,1-.1.7-.4,1c-.3.3-.6.4-1,.4s-.7-.1-1-.4-.4-.6-.4-1h0ZM247.2,429.6h.9c.1.4.3.8.5,1,.3.2.6.3.9.3s.8-.2,1.1-.5.5-.7.5-1.1-.1-.8-.4-1.1c-.3-.3-.6-.4-1.1-.4s-.4,0-.7.1v-.8h.3c.4,0,.8-.1,1.1-.3.3-.2.5-.5.5-1s-.1-.6-.3-.8c-.2-.2-.5-.3-.9-.3s-.7.1-.9.3c-.2.2-.4.6-.5,1l-.9-.2c.1-.6.4-1.1.8-1.5.4-.3.9-.5,1.5-.5s.8,0,1.1.3c.3.2.6.4.8.7.2.3.3.6.3,1s0,.6-.3.9c-.2.3-.4.5-.8.6.4.1.8.3,1,.6.2.3.4.7.4,1.2s-.2,1.2-.7,1.7-1.1.7-1.8.7-1.2-.2-1.7-.6c-.4-.4-.7-.9-.8-1.5v.2Z"/>
      <path class="st2" d="M254.2,372.2c0,.2,0,.4.3.6.2.2.4.3.6.3s.4,0,.6-.3c.2-.2.3-.4.3-.6s0-.4-.3-.6c-.2-.2-.4-.3-.6-.3s-.4,0-.6.3c-.2.2-.3.4-.3.6h0ZM253.6,372.2c0-.4.1-.7.4-1,.3-.3.6-.4,1-.4s.7.1,1,.4c.3.3.4.6.4,1s-.1.7-.4,1c-.3.3-.6.4-1,.4s-.7-.1-1-.4-.4-.6-.4-1ZM250.5,375.8v-3.4l-2.4,3.4h2.4ZM250.5,378.5v-1.8h-3.3v-.9l3.5-4.9h.8v4.9h1v.9h-1v1.8h-1Z"/>
      <path class="st0" d="M254.2,372.2c0,.2,0,.4.3.6.2.2.4.3.6.3s.4,0,.6-.3c.2-.2.3-.4.3-.6s0-.4-.3-.6c-.2-.2-.4-.3-.6-.3s-.4,0-.6.3c-.2.2-.3.4-.3.6h0ZM253.6,372.2c0-.4.1-.7.4-1,.3-.3.6-.4,1-.4s.7.1,1,.4c.3.3.4.6.4,1s-.1.7-.4,1c-.3.3-.6.4-1,.4s-.7-.1-1-.4-.4-.6-.4-1ZM250.5,375.8v-3.4l-2.4,3.4h2.4ZM250.5,378.5v-1.8h-3.3v-.9l3.5-4.9h.8v4.9h1v.9h-1v1.8h-1Z"/>
      <path class="st2" d="M253.9,319.1c0,.2,0,.4.3.6.2.2.4.3.6.3s.4,0,.6-.3c.2-.2.3-.4.3-.6s0-.4-.3-.6c-.2-.2-.4-.3-.6-.3s-.4,0-.6.3c-.2.2-.3.4-.3.6ZM253.3,319.1c0-.4.1-.7.4-1,.3-.3.6-.4,1-.4s.7.1,1,.4.4.6.4,1-.1.7-.4,1c-.3.3-.6.4-1,.4s-.7-.1-1-.4-.4-.6-.4-1h0ZM247.2,323.4h1c0,.4.2.8.5,1s.6.4,1,.4.8-.2,1.1-.5.5-.8.5-1.3-.1-1-.4-1.3c-.3-.3-.7-.5-1.2-.5s-.6,0-.8.2c-.2.1-.4.3-.6.5h-.9c0-.1.7-4,.7-4h3.8v.9h-3l-.4,2c.5-.3.9-.5,1.4-.5s1.2.2,1.7.7.7,1,.7,1.8-.2,1.3-.6,1.8c-.5.6-1.2.9-2,.9s-1.3-.2-1.7-.6-.7-.9-.7-1.5h-.1Z"/>
      <path class="st0" d="M253.9,319.1c0,.2,0,.4.3.6.2.2.4.3.6.3s.4,0,.6-.3c.2-.2.3-.4.3-.6s0-.4-.3-.6c-.2-.2-.4-.3-.6-.3s-.4,0-.6.3c-.2.2-.3.4-.3.6ZM253.3,319.1c0-.4.1-.7.4-1,.3-.3.6-.4,1-.4s.7.1,1,.4.4.6.4,1-.1.7-.4,1c-.3.3-.6.4-1,.4s-.7-.1-1-.4-.4-.6-.4-1h0ZM247.2,323.4h1c0,.4.2.8.5,1s.6.4,1,.4.8-.2,1.1-.5.5-.8.5-1.3-.1-1-.4-1.3c-.3-.3-.7-.5-1.2-.5s-.6,0-.8.2c-.2.1-.4.3-.6.5h-.9c0-.1.7-4,.7-4h3.8v.9h-3l-.4,2c.5-.3.9-.5,1.4-.5s1.2.2,1.7.7.7,1,.7,1.8-.2,1.3-.6,1.8c-.5.6-1.2.9-2,.9s-1.3-.2-1.7-.6-.7-.9-.7-1.5h-.1Z"/>
      <path class="st2" d="M254,266c0,.2,0,.4.3.6.2.2.4.3.6.3s.4,0,.6-.3c.2-.2.3-.4.3-.6s0-.4-.3-.6c-.2-.2-.4-.3-.6-.3s-.4,0-.6.3c-.2.2-.3.4-.3.6ZM253.4,266c0-.4.1-.7.4-1,.3-.3.6-.4,1-.4s.7.1,1,.4c.3.3.4.6.4,1s-.1.7-.4,1c-.3.3-.6.4-1,.4s-.7-.1-1-.4-.4-.6-.4-1ZM248.3,269.8c0,.3,0,.6.2.9.1.3.3.5.6.7.2.2.5.2.8.2s.7-.2,1-.5.4-.7.4-1.3-.1-.9-.4-1.2c-.3-.3-.6-.5-1.1-.5s-.8.2-1.1.5-.4.7-.4,1.2h0ZM252.1,266.6h-.9c0-.3-.2-.6-.4-.7-.3-.3-.6-.4-.9-.4s-.6,0-.8.2c-.3.2-.5.5-.7.9s-.3,1-.3,1.8c.2-.3.5-.6.8-.8.3-.2.7-.2,1-.2.6,0,1.1.2,1.6.7.4.5.7,1,.7,1.8s-.1.9-.3,1.3-.5.7-.8.9c-.4.2-.8.3-1.2.3-.8,0-1.4-.3-1.9-.9s-.7-1.5-.7-2.8.3-2.5.8-3.2c.5-.6,1.1-.9,1.9-.9s1.1.2,1.5.5.6.8.7,1.4h-.1Z"/>
      <path class="st0" d="M254,266c0,.2,0,.4.3.6.2.2.4.3.6.3s.4,0,.6-.3c.2-.2.3-.4.3-.6s0-.4-.3-.6c-.2-.2-.4-.3-.6-.3s-.4,0-.6.3c-.2.2-.3.4-.3.6ZM253.4,266c0-.4.1-.7.4-1,.3-.3.6-.4,1-.4s.7.1,1,.4c.3.3.4.6.4,1s-.1.7-.4,1c-.3.3-.6.4-1,.4s-.7-.1-1-.4-.4-.6-.4-1ZM248.3,269.8c0,.3,0,.6.2.9.1.3.3.5.6.7.2.2.5.2.8.2s.7-.2,1-.5.4-.7.4-1.3-.1-.9-.4-1.2c-.3-.3-.6-.5-1.1-.5s-.8.2-1.1.5-.4.7-.4,1.2h0ZM252.1,266.6h-.9c0-.3-.2-.6-.4-.7-.3-.3-.6-.4-.9-.4s-.6,0-.8.2c-.3.2-.5.5-.7.9s-.3,1-.3,1.8c.2-.3.5-.6.8-.8.3-.2.7-.2,1-.2.6,0,1.1.2,1.6.7.4.5.7,1,.7,1.8s-.1.9-.3,1.3-.5.7-.8.9c-.4.2-.8.3-1.2.3-.8,0-1.4-.3-1.9-.9s-.7-1.5-.7-2.8.3-2.5.8-3.2c.5-.6,1.1-.9,1.9-.9s1.1.2,1.5.5.6.8.7,1.4h-.1Z"/>
      <path class="st2" d="M253.8,212.8c0,.2,0,.4.3.6.2.2.4.3.6.3s.4,0,.6-.3c.2-.2.3-.4.3-.6s0-.4-.3-.6c-.2-.2-.4-.3-.6-.3s-.4,0-.6.3c-.2.2-.3.4-.3.6ZM253.3,212.8c0-.4.1-.7.4-1,.3-.3.6-.4,1-.4s.7.1,1,.4c.3.3.4.6.4,1s-.1.7-.4,1c-.3.3-.6.4-1,.4s-.7-.1-1-.4c-.3-.3-.4-.6-.4-1h0ZM247.2,212.5v-.9h4.9v.7c-.5.5-1,1.2-1.4,2.1-.5.9-.8,1.7-1.1,2.6-.2.6-.3,1.3-.4,2.1h-1c0-.6.1-1.3.4-2.2.2-.8.5-1.7,1-2.4.4-.8.9-1.4,1.3-2h-3.7Z"/>
      <path class="st0" d="M253.8,212.8c0,.2,0,.4.3.6.2.2.4.3.6.3s.4,0,.6-.3c.2-.2.3-.4.3-.6s0-.4-.3-.6c-.2-.2-.4-.3-.6-.3s-.4,0-.6.3c-.2.2-.3.4-.3.6ZM253.3,212.8c0-.4.1-.7.4-1,.3-.3.6-.4,1-.4s.7.1,1,.4c.3.3.4.6.4,1s-.1.7-.4,1c-.3.3-.6.4-1,.4s-.7-.1-1-.4c-.3-.3-.4-.6-.4-1h0ZM247.2,212.5v-.9h4.9v.7c-.5.5-1,1.2-1.4,2.1-.5.9-.8,1.7-1.1,2.6-.2.6-.3,1.3-.4,2.1h-1c0-.6.1-1.3.4-2.2.2-.8.5-1.7,1-2.4.4-.8.9-1.4,1.3-2h-3.7Z"/>
      <path class="st2" d="M253.9,159.7c0,.2,0,.4.3.6.2.2.4.3.6.3s.4,0,.6-.3c.2-.2.3-.4.3-.6s0-.4-.3-.6c-.2-.2-.4-.3-.6-.3s-.4,0-.6.3c-.2.2-.3.4-.3.6ZM253.3,159.7c0-.4.1-.7.4-1,.3-.3.6-.4,1-.4s.7.1,1,.4c.3.3.4.6.4,1s-.1.7-.4,1c-.3.3-.6.4-1,.4s-.7-.1-1-.4c-.3-.3-.4-.6-.4-1h0ZM248.2,163.8c0,.3,0,.5.2.8.1.2.3.4.6.6.2.1.5.2.8.2s.8-.1,1.1-.4c.3-.3.4-.6.4-1.1s-.1-.8-.4-1.1c-.3-.3-.7-.4-1.1-.4s-.8.1-1.1.4c-.3.3-.4.7-.4,1.1h-.1ZM248.5,160.3c0,.4.1.7.3.9s.5.3.9.3.7-.1.9-.3.3-.5.3-.8-.1-.6-.4-.9-.5-.3-.9-.3-.7.1-.9.3-.4.5-.4.8h.2ZM248.7,161.9c-.4-.1-.7-.3-.9-.6s-.3-.6-.3-.9c0-.6.2-1,.6-1.4.4-.4.9-.6,1.6-.6s1.2.2,1.6.6.6.9.6,1.4,0,.7-.3.9c-.2.3-.5.5-.8.6.5.2.8.4,1.1.7.2.3.4.7.4,1.2s-.2,1.2-.7,1.6c-.5.4-1.1.7-1.8.7s-1.4-.2-1.8-.7c-.5-.4-.7-1-.7-1.7s.1-.9.4-1.2c.2-.3.6-.6,1.1-.7h-.1Z"/>
      <path class="st0" d="M253.9,159.7c0,.2,0,.4.3.6.2.2.4.3.6.3s.4,0,.6-.3c.2-.2.3-.4.3-.6s0-.4-.3-.6c-.2-.2-.4-.3-.6-.3s-.4,0-.6.3c-.2.2-.3.4-.3.6ZM253.3,159.7c0-.4.1-.7.4-1,.3-.3.6-.4,1-.4s.7.1,1,.4c.3.3.4.6.4,1s-.1.7-.4,1c-.3.3-.6.4-1,.4s-.7-.1-1-.4c-.3-.3-.4-.6-.4-1h0ZM248.2,163.8c0,.3,0,.5.2.8.1.2.3.4.6.6.2.1.5.2.8.2s.8-.1,1.1-.4c.3-.3.4-.6.4-1.1s-.1-.8-.4-1.1c-.3-.3-.7-.4-1.1-.4s-.8.1-1.1.4c-.3.3-.4.7-.4,1.1h-.1ZM248.5,160.3c0,.4.1.7.3.9s.5.3.9.3.7-.1.9-.3.3-.5.3-.8-.1-.6-.4-.9-.5-.3-.9-.3-.7.1-.9.3-.4.5-.4.8h.2ZM248.7,161.9c-.4-.1-.7-.3-.9-.6s-.3-.6-.3-.9c0-.6.2-1,.6-1.4.4-.4.9-.6,1.6-.6s1.2.2,1.6.6.6.9.6,1.4,0,.7-.3.9c-.2.3-.5.5-.8.6.5.2.8.4,1.1.7.2.3.4.7.4,1.2s-.2,1.2-.7,1.6c-.5.4-1.1.7-1.8.7s-1.4-.2-1.8-.7c-.5-.4-.7-1-.7-1.7s.1-.9.4-1.2c.2-.3.6-.6,1.1-.7h-.1Z"/>
      <path class="st2" d="M253.9,106.7c0,.2,0,.4.3.6.2.2.4.3.6.3s.4,0,.6-.3c.2-.2.3-.4.3-.6s0-.4-.3-.6c-.2-.2-.4-.3-.6-.3s-.4,0-.6.3c-.2.2-.3.4-.3.6ZM253.3,106.7c0-.4.1-.7.4-1,.3-.3.6-.4,1-.4s.7,0,1,.4.4.6.4,1-.1.7-.4,1c-.3.3-.6.4-1,.4s-.7,0-1-.4-.4-.6-.4-1h0ZM251.2,107.8c0-.5-.1-1-.4-1.3-.3-.3-.6-.5-1-.5s-.8.2-1.1.5-.5.8-.5,1.3.1.9.4,1.2c.3.3.7.5,1.1.5s.8-.2,1.1-.5.4-.7.4-1.3h0ZM247.4,111.2h.9c0,.3.2.6.4.8.2.2.5.3.8.3s.5,0,.8-.2c.2,0,.4-.3.5-.5s.3-.5.3-.9.1-.8.1-1.1,0,0,0-.2c-.2.3-.4.5-.8.7-.3.2-.7.3-1,.3-.6,0-1.2-.2-1.6-.7-.4-.5-.7-1.1-.7-1.8s.2-1.4.7-1.9,1-.7,1.7-.7.9,0,1.4.4c.4.3.7.6.9,1.1s.3,1.2.3,2.1-.1,1.7-.3,2.3c-.2.6-.5,1-.9,1.3s-.9.5-1.5.5-1.1-.2-1.5-.5-.6-.8-.7-1.4h.2Z"/>
      <path class="st0" d="M253.9,106.7c0,.2,0,.4.3.6.2.2.4.3.6.3s.4,0,.6-.3c.2-.2.3-.4.3-.6s0-.4-.3-.6c-.2-.2-.4-.3-.6-.3s-.4,0-.6.3c-.2.2-.3.4-.3.6ZM253.3,106.7c0-.4.1-.7.4-1,.3-.3.6-.4,1-.4s.7,0,1,.4.4.6.4,1-.1.7-.4,1c-.3.3-.6.4-1,.4s-.7,0-1-.4-.4-.6-.4-1h0ZM251.2,107.8c0-.5-.1-1-.4-1.3-.3-.3-.6-.5-1-.5s-.8.2-1.1.5-.5.8-.5,1.3.1.9.4,1.2c.3.3.7.5,1.1.5s.8-.2,1.1-.5.4-.7.4-1.3h0ZM247.4,111.2h.9c0,.3.2.6.4.8.2.2.5.3.8.3s.5,0,.8-.2c.2,0,.4-.3.5-.5s.3-.5.3-.9.1-.8.1-1.1,0,0,0-.2c-.2.3-.4.5-.8.7-.3.2-.7.3-1,.3-.6,0-1.2-.2-1.6-.7-.4-.5-.7-1.1-.7-1.8s.2-1.4.7-1.9,1-.7,1.7-.7.9,0,1.4.4c.4.3.7.6.9,1.1s.3,1.2.3,2.1-.1,1.7-.3,2.3c-.2.6-.5,1-.9,1.3s-.9.5-1.5.5-1.1-.2-1.5-.5-.6-.8-.7-1.4h.2Z"/>
      <path class="st2" d="M259.1,53.6c0,.2,0,.4.3.6.2.2.4.3.6.3s.4,0,.6-.3c.2-.2.3-.4.3-.6s0-.4-.3-.6c-.2-.2-.4-.3-.6-.3s-.4,0-.6.3c-.2.2-.3.4-.3.6ZM258.5,53.6c0-.4.1-.7.4-1s.6-.4,1-.4.7,0,1,.4c.3.3.4.6.4,1s-.1.7-.4,1-.6.4-1,.4-.7,0-1-.4c-.3-.3-.4-.6-.4-1ZM253.3,56.1c0,1.2.1,2.1.4,2.5.3.4.7.6,1.1.6s.8-.2,1.1-.6c.3-.4.4-1.2.4-2.5s-.1-2.1-.4-2.5c-.3-.4-.7-.6-1.1-.6s-.8.2-1,.5c-.3.5-.5,1.3-.5,2.6h0ZM252.4,56.1c0-.9,0-1.6.3-2.2.2-.5.5-1,.8-1.3.4-.3.8-.4,1.4-.4s.8,0,1.1.2c.3.2.6.4.8.7.2.3.4.7.5,1.1.1.4.2,1,.2,1.8s0,1.6-.3,2.2c-.2.5-.5,1-.8,1.3-.4.3-.8.4-1.4.4s-1.3-.3-1.7-.8c-.5-.6-.8-1.7-.8-3.1h-.1ZM250,59.8h-.9v-5.9c-.2.2-.5.4-.9.6-.4.2-.7.4-1,.5v-.9c.5-.2,1-.5,1.4-.9.4-.3.7-.7.8-1h.6v7.6h0Z"/>
      <path class="st0" d="M259.1,53.6c0,.2,0,.4.3.6.2.2.4.3.6.3s.4,0,.6-.3c.2-.2.3-.4.3-.6s0-.4-.3-.6c-.2-.2-.4-.3-.6-.3s-.4,0-.6.3c-.2.2-.3.4-.3.6ZM258.5,53.6c0-.4.1-.7.4-1s.6-.4,1-.4.7,0,1,.4c.3.3.4.6.4,1s-.1.7-.4,1-.6.4-1,.4-.7,0-1-.4c-.3-.3-.4-.6-.4-1ZM253.3,56.1c0,1.2.1,2.1.4,2.5.3.4.7.6,1.1.6s.8-.2,1.1-.6c.3-.4.4-1.2.4-2.5s-.1-2.1-.4-2.5c-.3-.4-.7-.6-1.1-.6s-.8.2-1,.5c-.3.5-.5,1.3-.5,2.6h0ZM252.4,56.1c0-.9,0-1.6.3-2.2.2-.5.5-1,.8-1.3.4-.3.8-.4,1.4-.4s.8,0,1.1.2c.3.2.6.4.8.7.2.3.4.7.5,1.1.1.4.2,1,.2,1.8s0,1.6-.3,2.2c-.2.5-.5,1-.8,1.3-.4.3-.8.4-1.4.4s-1.3-.3-1.7-.8c-.5-.6-.8-1.7-.8-3.1h-.1ZM250,59.8h-.9v-5.9c-.2.2-.5.4-.9.6-.4.2-.7.4-1,.5v-.9c.5-.2,1-.5,1.4-.9.4-.3.7-.7.8-1h.6v7.6h0Z"/>
    </g>
  </g>
  <g id="estructura">
    <g id="estructuras">
      <g>
        <path class="st3" d="M143.1,541.8h-2.7v-21.7s0,0-.1,0h-53.2s0,0,0,0v21.7h-13.9v-21.7s0,0,0,0H31.1s-.1,0-.1,0v21.7h-10.3s-.1,0-.1,0v23.7s0,0,.1,0h122.4s.1,0,.1,0v-23.7s0,0-.1,0ZM20.9,565.5v-7.3h122.1v7.3H20.9ZM142.9,542.1v.6H20.9v-.6h122.1-.1ZM71.9,541.8h-.9v-19.8h-18.4v-.9h19.3s0,20.7,0,20.7ZM70.9,522.1v19.7h-18.4v-19.7h18.4ZM52.4,541.8h-.9v-19.8h-18.5v19.8h-.8v-20.7h20.3v20.7h0ZM51.5,541.8h-18.4v-19.7h18.4v19.7ZM139.2,521.1v20.7h-.9v-19.8h-24.1v-.9h25,0ZM114.2,522.1h24.1v19.7h-24.1s0-19.7,0-19.7ZM114.1,541.8h-.8v-19.8h-24.2v19.8h-.9v-20.7h26v20.7h0ZM113.2,541.8h-24.1v-19.7h24.1v19.7ZM20.9,557.9v-14.9h122.1v14.9H20.9ZM87.2,520.3h52.9v21.6h-.8v-20.7h-51.2v20.7h-.8v-21.6h-.1ZM31.3,520.3h41.4v21.6h-.7v-20.7h-39.8v20.7h-.8v-21.6h-.1Z"/>
        <path class="st3" d="M218,541.8h-10.3v-21.7s0,0-.1,0h-53.1s-.1,0-.1,0v21.7h-1.8s-.1,0-.1,0v23.7s0,0,.1,0h65.4s.1,0,.1,0v-23.7s0,0-.1,0ZM152.7,557.9v-14.9h65.2v14.9h-65.2ZM152.7,558.2h65.2v7.3h-65.2v-7.3ZM154.6,520.3h52.8v21.6h-.8v-20.7h-51.2v20.7h-.7v-21.6h-.1ZM180.5,541.8h-24.1v-19.7h24.1v19.7ZM180.5,522h-24.2v19.8h-.9v-20.7h26v20.7h-.9v-19.8h0ZM181.6,522.1h24.1v19.7h-24.1v-19.7ZM205.7,522h-24.1v-.9h25v20.7h-.8v-19.8h0ZM217.8,542.1v.6h-65.2v-.6h65.2Z"/>
      </g>
      <g>
        <path class="st3" d="M143.1,488.7h-2.7v-21.7s0-.1-.1-.1h-53.2s0,0,0,.1v21.7h-13.9v-21.7s0-.1,0-.1H31.1s-.1,0-.1.1v21.7h-10.3s-.1,0-.1.1v23.7s0,0,.1,0h3.6v3.7s0,0,.1,0h114.8s.1,0,.1,0v-3.7h3.7s.1,0,.1,0v-23.7s0-.1-.1-.1h0ZM20.9,512.4v-7.3h122.1v7.3H20.9ZM142.9,489v.7H20.9v-.7h122.1-.1ZM71.9,488.7h-.9v-19.8h-18.4v-.8h19.3v20.6h0ZM70.9,469v19.7h-18.4v-19.7h18.4ZM52.4,488.7h-.9v-19.8h-18.5v19.8h-.8v-20.6h20.3v20.6h0ZM51.5,488.7h-18.4v-19.7h18.4v19.7ZM139.2,468v20.6h-.9v-19.8h-24.1v-.8h25,0ZM114.2,469h24.1v19.7h-24.1s0-19.7,0-19.7ZM114.1,488.7h-.8v-19.8h-24.2v19.8h-.9v-20.6h26v20.6h0ZM113.2,488.7h-24.1v-19.7h24.1v19.7ZM20.9,504.8v-14.9h122.1v14.9H20.9ZM87.2,467.2h52.9v21.5h-.8v-20.7h-51.2v20.7h-.8v-21.5h-.1ZM31.3,467.2h41.4v21.5h-.7v-20.7h-39.8v20.7h-.8v-21.5h-.1ZM139.1,516.2H24.6v-3.5h114.5v3.5Z"/>
        <path class="st3" d="M218,488.7h-10.3v-21.7s0-.1-.1-.1h-53.1s-.1,0-.1.1v21.7h-1.8s-.1,0-.1.1v23.7s0,0,.1,0h3.7v3.7s0,0,.1,0h57.9s.1,0,.1,0v-3.7h3.6s.1,0,.1,0v-23.7s0-.1-.1-.1h0ZM152.7,512.4v-7.3h65.2v7.3h-65.2ZM152.7,504.8v-14.9h65.2v14.9h-65.2ZM154.6,467.2h52.8v21.5h-.8v-20.7h-51.2v20.7h-.7v-21.5h-.1ZM180.5,488.7h-24.1v-19.7h24.1v19.7ZM180.5,468.8h-24.2v19.8h-.9v-20.6h26v20.6h-.9v-19.8h0ZM181.6,469h24.1v19.7h-24.1v-19.7ZM205.7,468.8h-24.1v-.8h25v20.6h-.8v-19.8h0ZM217.8,489v.7h-65.2v-.7h65.2ZM214.1,516.2h-57.6v-3.5h57.6v3.5Z"/>
      </g>
      <g>
        <path class="st3" d="M143.1,435.6h-2.7v-21.7s0-.1-.1-.1h-53.2s0,0,0,.1v21.7h-13.9v-21.7s0-.1,0-.1H31.1s-.1,0-.1.1v21.7h-10.3s-.1,0-.1.1v23.7s0,.1.1.1h3.6v3.6s0,.1.1.1h114.8s.1,0,.1-.1v-3.6h3.7s.1,0,.1-.1v-23.7s0-.1-.1-.1h0ZM20.9,459.3v-7.3h122.1v7.3H20.9ZM142.9,435.9v.7H20.9v-.7h122.1-.1ZM71.9,435.6h-.9v-19.8h-18.4v-.9h19.3v20.7h0ZM70.9,415.9v19.7h-18.4v-19.7h18.4ZM52.4,435.6h-.9v-19.8h-18.5v19.8h-.8v-20.7h20.3v20.7h0ZM51.5,435.6h-18.4v-19.7h18.4v19.7ZM139.2,414.9v20.7h-.9v-19.8h-24.1v-.9h25,0ZM114.2,415.9h24.1v19.7h-24.1s0-19.7,0-19.7ZM114.1,435.6h-.8v-19.8h-24.2v19.8h-.9v-20.7h26v20.7h0ZM113.2,435.6h-24.1v-19.7h24.1v19.7ZM20.9,451.7v-14.9h122.1v14.9H20.9ZM87.2,414.1h52.9v21.5h-.8v-20.7h-51.2v20.7h-.8v-21.5h-.1ZM31.3,414.1h41.4v21.5h-.7v-20.7h-39.8v20.7h-.8v-21.5h-.1ZM139.1,463.1H24.6v-3.5h114.5v3.5Z"/>
        <path class="st3" d="M218,435.6h-10.3v-21.7s0-.1-.1-.1h-53.1s-.1,0-.1.1v21.7h-1.8s-.1,0-.1.1v23.7s0,.1.1.1h3.7v3.6s0,.1.1.1h57.9s.1,0,.1-.1v-3.6h3.6s.1,0,.1-.1v-23.7s0-.1-.1-.1ZM152.7,459.3v-7.3h65.2v7.3h-65.2ZM152.7,451.7v-14.9h65.2v14.9h-65.2ZM154.6,414.1h52.8v21.5h-.8v-20.7h-51.2v20.7h-.7v-21.5h-.1ZM180.5,435.6h-24.1v-19.7h24.1v19.7ZM180.5,415.7h-24.2v19.8h-.9v-20.7h26v20.7h-.9v-19.8h0ZM181.6,415.9h24.1v19.7h-24.1v-19.7ZM205.7,415.7h-24.1v-.9h25v20.7h-.8v-19.8h0ZM217.8,435.9v.7h-65.2v-.7h65.2ZM214.1,463.1h-57.6v-3.5h57.6v3.5Z"/>
      </g>
      <g>
        <path class="st3" d="M143.1,382.5h-2.7v-21.7s0-.1-.1-.1h-53.2s0,0,0,.1v21.7h-13.9v-21.7s0-.1,0-.1H31.1s-.1,0-.1.1v21.7h-10.3s-.1,0-.1.1v23.7s0,.1.1.1h3.6v3.7s0,.1.1.1h114.8s.1,0,.1-.1v-3.7h3.7s.1,0,.1-.1v-23.7s0-.1-.1-.1h0ZM20.9,406.2v-7.3h122.1v7.3H20.9ZM142.9,382.8v.6H20.9v-.6h122.1-.1ZM71.9,382.5h-.9v-19.8h-18.4v-.9h19.3v20.7h0ZM70.9,362.8v19.7h-18.4v-19.7h18.4ZM52.4,382.5h-.9v-19.8h-18.5v19.8h-.8v-20.7h20.3v20.7h0ZM51.5,382.5h-18.4v-19.7h18.4v19.7ZM139.2,361.8v20.7h-.9v-19.8h-24.1v-.9h25,0ZM114.2,362.8h24.1v19.7h-24.1s0-19.7,0-19.7ZM114.1,382.5h-.8v-19.8h-24.2v19.8h-.9v-20.7h26v20.7h0ZM113.2,382.5h-24.1v-19.7h24.1v19.7ZM20.9,398.6v-14.9h122.1v14.9H20.9ZM87.2,360.9h52.9v21.6h-.8v-20.7h-51.2v20.7h-.8v-21.6h-.1ZM31.3,360.9h41.4v21.6h-.7v-20.7h-39.8v20.7h-.8v-21.6h-.1ZM139.1,410H24.6v-3.5h114.5v3.5Z"/>
        <path class="st3" d="M218,382.5h-10.3v-21.7s0-.1-.1-.1h-53.1s-.1,0-.1.1v21.7h-1.8s-.1,0-.1.1v23.7s0,.1.1.1h3.7v3.7s0,.1.1.1h57.9s.1,0,.1-.1v-3.7h3.6s.1,0,.1-.1v-23.7s0-.1-.1-.1ZM152.7,406.2v-7.3h65.2v7.3h-65.2ZM152.7,398.6v-14.9h65.2v14.9h-65.2ZM154.6,360.9h52.8v21.6h-.8v-20.7h-51.2v20.7h-.7v-21.6h-.1ZM180.5,382.5h-24.1v-19.7h24.1v19.7ZM180.5,362.6h-24.2v19.8h-.9v-20.7h26v20.7h-.9v-19.8h0ZM181.6,362.8h24.1v19.7h-24.1v-19.7ZM205.7,362.6h-24.1v-.9h25v20.7h-.8v-19.8h0ZM217.8,382.8v.6h-65.2v-.6h65.2ZM214.1,410h-57.6v-3.5h57.6v3.5Z"/>
      </g>
      <g>
        <path class="st3" d="M143.1,329.3h-2.7v-21.7s0-.1-.1-.1h-53.2s0,0,0,.1v21.7h-13.9v-21.7s0-.1,0-.1H31.1s-.1,0-.1.1v21.7h-10.3s-.1,0-.1.1v23.7s0,.1.1.1h3.6v3.7s0,.1.1.1h114.8s.1,0,.1-.1v-3.7h3.7s.1,0,.1-.1v-23.7s0-.1-.1-.1h0ZM20.9,353.1v-7.3h122.1v7.3H20.9ZM142.9,329.6v.7H20.9v-.7h122.1-.1ZM71.9,329.3h-.9v-19.8h-18.4v-.8h19.3v20.6h0ZM70.9,309.6v19.7h-18.4v-19.7h18.4ZM52.4,329.3h-.9v-19.8h-18.5v19.8h-.8v-20.6h20.3v20.6h0ZM51.5,329.3h-18.4v-19.7h18.4v19.7ZM139.2,308.7v20.6h-.9v-19.8h-24.1v-.8h25,0ZM114.2,309.6h24.1v19.7h-24.1s0-19.7,0-19.7ZM114.1,329.3h-.8v-19.8h-24.2v19.8h-.9v-20.6h26v20.6h0ZM113.2,329.3h-24.1v-19.7h24.1v19.7ZM20.9,345.5v-14.9h122.1v14.9H20.9ZM87.2,307.8h52.9v21.5h-.8v-20.7h-51.2v20.7h-.8v-21.5h-.1ZM31.3,307.8h41.4v21.5h-.7v-20.7h-39.8v20.7h-.8v-21.5h-.1ZM139.1,356.9H24.6v-3.5h114.5v3.5Z"/>
        <path class="st3" d="M218,329.3h-10.3v-21.7s0-.1-.1-.1h-53.1s-.1,0-.1.1v21.7h-1.8s-.1,0-.1.1v23.7s0,.1.1.1h3.7v3.7s0,.1.1.1h57.9s.1,0,.1-.1v-3.7h3.6s.1,0,.1-.1v-23.7s0-.1-.1-.1ZM152.7,353.1v-7.3h65.2v7.3h-65.2ZM152.7,345.5v-14.9h65.2v14.9h-65.2ZM154.6,307.8h52.8v21.5h-.8v-20.7h-51.2v20.7h-.7v-21.5h-.1ZM180.5,329.3h-24.1v-19.7h24.1v19.7ZM180.5,309.5h-24.2v19.8h-.9v-20.6h26v20.6h-.9v-19.8h0ZM181.6,309.6h24.1v19.7h-24.1v-19.7ZM205.7,309.5h-24.1v-.8h25v20.6h-.8v-19.8h0ZM217.8,329.6v.7h-65.2v-.7h65.2ZM214.1,356.9h-57.6v-3.5h57.6v3.5Z"/>
      </g>
      <g>
        <path class="st3" d="M143.1,276.2h-2.7v-21.7s0-.1-.1-.1h-53.2s0,0,0,.1v21.7h-13.9v-21.7s0-.1,0-.1H31.1s-.1,0-.1.1v21.7h-10.3s-.1,0-.1.1v23.7s0,.1.1.1h3.6v3.6s0,.1.1.1h114.8s.1,0,.1-.1v-3.6h3.7s.1,0,.1-.1v-23.7s0-.1-.1-.1h0ZM20.9,300v-7.3h122.1v7.3H20.9ZM142.9,276.5v.7H20.9v-.7h122.1-.1ZM71.9,276.2h-.9v-19.8h-18.4v-.9h19.3v20.7h0ZM70.9,256.5v19.7h-18.4v-19.7h18.4ZM52.4,276.2h-.9v-19.8h-18.5v19.8h-.8v-20.7h20.3v20.7h0ZM51.5,276.2h-18.4v-19.7h18.4v19.7ZM139.2,255.5v20.7h-.9v-19.8h-24.1v-.9h25,0ZM114.2,256.5h24.1v19.7h-24.1s0-19.7,0-19.7ZM114.1,276.2h-.8v-19.8h-24.2v19.8h-.9v-20.7h26v20.7h0ZM113.2,276.2h-24.1v-19.7h24.1v19.7ZM20.9,292.3v-14.9h122.1v14.9H20.9ZM87.2,254.7h52.9v21.5h-.8v-20.7h-51.2v20.7h-.8v-21.5h-.1ZM31.3,254.7h41.4v21.5h-.7v-20.7h-39.8v20.7h-.8v-21.5h-.1ZM139.1,303.7H24.6v-3.5h114.5v3.5Z"/>
        <path class="st3" d="M218,276.2h-10.3v-21.7s0-.1-.1-.1h-53.1s-.1,0-.1.1v21.7h-1.8s-.1,0-.1.1v23.7s0,.1.1.1h3.7v3.6s0,.1.1.1h57.9s.1,0,.1-.1v-3.6h3.6s.1,0,.1-.1v-23.7s0-.1-.1-.1ZM152.7,300v-7.3h65.2v7.3h-65.2ZM152.7,292.3v-14.9h65.2v14.9h-65.2ZM154.6,254.7h52.8v21.5h-.8v-20.7h-51.2v20.7h-.7v-21.5h-.1ZM180.5,276.2h-24.1v-19.7h24.1v19.7ZM180.5,256.4h-24.2v19.8h-.9v-20.7h26v20.7h-.9v-19.8h0ZM181.6,256.5h24.1v19.7h-24.1v-19.7ZM205.7,256.4h-24.1v-.9h25v20.7h-.8v-19.8h0ZM217.8,276.5v.7h-65.2v-.7h65.2ZM214.1,303.7h-57.6v-3.5h57.6v3.5Z"/>
      </g>
      <g>
        <path class="st3" d="M143.1,223.1h-2.7v-21.7s0-.1-.1-.1h-53.2s0,0,0,.1v21.7h-13.9v-21.7s0-.1,0-.1H31.1s-.1,0-.1.1v21.7h-10.3s-.1,0-.1.1v23.7s0,.1.1.1h3.6v3.7s0,.1.1.1h114.8s.1,0,.1-.1v-3.7h3.7s.1,0,.1-.1v-23.7s0-.1-.1-.1h0ZM87.2,201.6h52.9v21.6h-.8v-20.7h-51.2v20.7h-.8v-21.6h-.1ZM138.3,203.3h-24.1v-.9h25v20.7h-.9v-19.8h0ZM138.2,203.4v19.7h-24.1v-19.7h24.1ZM113.2,203.3h-24.2v19.8h-.9v-20.7h26v20.7h-.8v-19.8h0ZM113.2,203.4v19.7h-24.1v-19.7h24.1ZM31.3,201.6h41.4v21.6h-.7v-20.7h-39.8v20.7h-.8v-21.6h-.1ZM71,203.3h-18.4v-.9h19.3v20.7h-.9v-19.8h0ZM70.9,203.4v19.7h-18.4v-19.7h18.4ZM51.5,203.3h-18.5v19.8h-.8v-20.7h20.3v20.7h-.9v-19.8h0ZM51.5,203.4v19.7h-18.4v-19.7h18.4ZM139.1,250.6H24.6v-3.5h114.5v3.5ZM142.9,246.8H20.9v-7.3h122.1v7.3h-.1ZM142.9,239.2H20.9v-14.9h122.1v14.9h-.1ZM142.9,224H20.9v-.6h122.1v.6h-.1Z"/>
        <path class="st3" d="M218,223.1h-10.3v-21.7s0-.1-.1-.1h-53.1s-.1,0-.1.1v21.7h-1.8s-.1,0-.1.1v23.7s0,.1.1.1h3.7v3.7s0,.1.1.1h57.9s.1,0,.1-.1v-3.7h3.6s.1,0,.1-.1v-23.7s0-.1-.1-.1ZM154.6,201.6h52.8v21.6h-.8v-20.7h-51.2v20.7h-.7v-21.6h-.1ZM205.7,203.3h-24.1v-.9h25v20.7h-.8v-19.8h0ZM205.6,203.4v19.7h-24.1v-19.7h24.1ZM180.5,203.3h-24.2v19.8h-.9v-20.7h26v20.7h-.9v-19.8h0ZM180.5,203.4v19.7h-24.1v-19.7h24.1ZM214.1,250.6h-57.6v-3.5h57.6v3.5ZM217.8,246.8h-65.2v-7.3h65.2v7.3ZM217.8,239.2h-65.2v-14.9h65.2v14.9ZM217.8,224h-65.2v-.6h65.2v.6Z"/>
      </g>
      <path class="st3" d="M226.5,147.9h-19c-.2,0-.3.1-.4.3h-52.4s0-.1-.1-.2h-14.4c-.2,0-.3.1-.4.3h-52.8s0,0,0,.1v21.7h-13.9v-21.7s0-.1,0-.1H31.5c0-.1-.2-.3-.4-.3H12.2c-.2,0-.4.2-.4.4s.2.4.4.4h18.6v21.3h-10s-.1,0-.1.1v23.7s0,.1.1.1h3.6v3.7s0,.1.1.1h114.8s.1,0,.1-.1v-3.7h3.7s.1,0,.1-.1v-23.7s0-.1-.1-.1h-2.4v-21.3h13.4v21.3h-1.5s-.1,0-.1.1v23.7s0,.1.1.1h3.7v3.7s0,.1.1.1h57.9s.1,0,.1-.1v-3.7h3.6s.1,0,.1-.1v-23.7s0-.1-.1-.1h-10v-21.3h18.6c.2,0,.4-.2.4-.4s-.2-.4-.4-.4h-.1ZM154.9,171.2h52.3v14.9h-52.3v-14.9ZM154.9,171v-.7h52.3v.7h-52.3ZM180.5,150.2h-24.2v19.8h-.9v-20.7h26v20.7h-.9v-19.8h0ZM180.5,150.3v19.7h-24.1v-19.7h24.1ZM205.7,150.2h-24.1v-.9h25v20.7h-.8v-19.8h0ZM205.6,150.3v19.7h-24.1v-19.7h24.1ZM206.7,170v-20.7h-51.2v20.7h-.5v-21.5h52.3v21.5h-.6ZM139.3,149.2h-51.2v20.7h-.8v-21.5h52.6v21.5h-.5v-20.7h0ZM138.3,150.2h-24.1v-.9h25v20.7h-.9v-19.8h0ZM138.2,150.3v19.7h-24.1v-19.7h24.1ZM113.2,150.2h-24.2v19.8h-.9v-20.7h26v20.7h-.8v-19.8h0ZM113.2,150.3v19.7h-24.1v-19.7h24.1ZM139.8,170.3v.7H31.5v-.7h108.3ZM72,149.2h-39.8v20.7h-.5v-21.5h41.2v21.5h-.7v-20.7h-.2ZM71,150.2h-18.4v-.9h19.3v20.7h-.9v-19.8h0ZM70.9,150.3v19.7h-18.4v-19.7h18.4ZM51.5,150.2h-18.5v19.8h-.8v-20.7h20.3v20.7h-.9v-19.8h0ZM51.5,150.3v19.7h-18.4v-19.7h18.4ZM31.5,171.2h108.3v14.9H31.5v-14.9ZM20.9,170.3h9.9v.7h-9.9v-.7ZM20.9,171.2h9.9v14.9h-9.9v-14.9ZM139.1,197.5H24.6v-3.5h114.5v3.5ZM142.9,193.7H20.9v-7.3h9.9c0,.1.2.3.4.3s.3-.1.4-.3h108.4c0,.1.2.3.4.3s.3-.1.4-.3h2.3v7.3h-.2ZM142.9,186.1h-2.3v-14.9h2.3v14.9ZM142.9,170.3v.7h-2.3v-.7h2.3ZM152.7,170.3h1.4v.7h-1.4v-.7ZM152.7,171.2h1.4v14.9h-1.4v-14.9ZM214.1,197.5h-57.6v-3.5h57.6v3.5ZM217.8,193.7h-65.2v-7.3h1.4c0,.1.2.3.4.3s.3-.1.4-.3h52.4c0,.1.2.3.4.3s.3-.1.4-.3h9.9v7.3h0ZM217.8,186.1h-9.9v-14.9h9.9v14.9ZM217.8,170.3v.7h-9.9v-.7h9.9Z"/>
      <g>
        <rect class="st2" x="157.8" y="31.2" width="10.4" height="21.9"/>
        <g>
          <path class="st3" d="M168.7,30.6h-11.4s-.1,0-.1.1v22.8s0,0,.1,0h11.4s.1,0,.1,0v-22.8s0-.1-.1-.1ZM168.6,30.8v22.5h-11.1v-22.5h11.1Z"/>
          <path class="st3" d="M157.8,53.1h10.4v-21.9h-10.4v21.9h0ZM157.8,31.2h10.3v21.7h-10.3v-21.7Z"/>
          <path class="st3" d="M158.7,32.1h0v19.9h8.5v-19.9h-8.5ZM167.2,52h-8.4v-19.8h8.4v19.8Z"/>
        </g>
      </g>
      <path class="st3" d="M226.5,116.9h-18.8v-21.7s0,0-.1,0h-53.1s-.1,0-.1,0v21.7h-2.6v-21.7s0,0-.1,0h-35.1s0,0,0,0v21.7h-1.6v-21.7s0,0,0,0h-28.5s0,0,0,0v21.7h-13v-21.7s0,0,0,0H31.1s-.1,0-.1,0v21.7H12.2s-.1,0-.1,0,0,0,.1,0h18.8v16s0,.1.1.1h176.4s.1,0,.1-.1v-16h18.8s.1,0,.1,0,0,0-.1,0h0ZM31.3,117.2h176.1v.6H31.3v-.6ZM71.9,116.9h-.9v-19.8h-18.4v-.9h19.3s0,20.7,0,20.7ZM70.9,97.2v19.7h-18.4v-19.7h18.4ZM52.4,116.9h-.9v-19.8h-18.5v19.8h-.8v-20.7h20.3v20.7h0ZM51.5,116.9h-18.4v-19.7h18.4v19.7ZM113.6,116.9h-.9v-19.8h-24.6v19.8h-.9v-20.7h26.5v20.7h0ZM112.6,116.9h-24.5v-19.7h24.5v19.7ZM150.6,116.9h-.9v-19.8h-15.1v-.9h16s0,20.7,0,20.7ZM149.6,97.2v19.7h-15v-19.7h15ZM134.5,116.9h-.9v-19.8h-15.2v19.8h-.8v-20.7h17v20.7h-.1ZM133.5,116.9h-15.1v-19.7h15.1v19.7ZM206.5,96.2v20.7h-.8v-19.8h-24.1v-.9h25,0ZM181.6,97.2h24.1v19.7h-24.1v-19.7ZM181.4,116.9h-.9v-19.8h-24.2v19.8h-.9v-20.7h26v20.7h0ZM180.5,116.9h-24.1v-19.7h24.1v19.7ZM31.3,118.1h176.1v14.9H31.3v-14.9ZM154.6,95.3h52.8v21.6h-.8v-20.7h-51.2v20.7h-.7v-21.6h-.1ZM116.7,95.3h34.8v21.6h-.8v-20.7h-33.2v20.7h-.8s0-21.6,0-21.6ZM86.3,95.3h28.2v21.6h-.8v-20.7h-26.6v20.7h-.7v-21.6h0ZM72,116.9v-20.7h-39.8v20.7h-.8v-21.6h41.4v21.6h-.8Z"/>
      <g>
        <path class="st3" d="M236,622.4h-29.9v-47.3c0-.2-.2-.4-.4-.4h-38c-.2,0-.4.2-.4.4v47.3h-15.3v-47.3c0-.2-.2-.4-.4-.4h-65.4c-.2,0-.4.2-.4.4v47.3h-2v-47.3c0-.2-.2-.4-.4-.4H17.9c-.2,0-.4.2-.4.4v47.3H2.7s0,0,0,0,0,0,0,0h14.8c0,0,.2.3.4.3s.3,0,.4-.3h64.7c0,0,.2.3.4.3s.3,0,.4-.3h2.1c0,0,.2.3.4.3s.3,0,.4-.3h40.6s0,.2.3.2.2,0,.3-.2h23.6c0,0,.2.3.4.3s.3,0,.4-.3h15.4c0,0,.2.3.4.3s.3,0,.4-.3h37.2c0,0,.2.3.4.3s.3,0,.4-.3h30s.1,0,.1,0,0,0-.1,0h-.5ZM168.1,575.5h37.2v46.9h-37.2v-46.9ZM127.7,600.4l17.1-24v45l-17.1-20.3v-.6h0ZM144.8,576.1h0l-17.1,24.1v-24.7h17.1v.6h0ZM127.1,575.5v46.9h-38.9v-46.9h38.9ZM127.7,601.2l17.1,20.3h0v.8h-17.1v-21.2h0ZM145.1,621.6v-46.1h6.1v46.9h-6.1v-.8h0ZM86.6,575.5h1.3v46.9h-1.3v-46.9ZM81.5,575.5h1.4v46.9h-1.4v-46.9ZM81.3,622.4H24.6v-46.9h56.6v46.9h.1ZM18.3,575.5h6.1v46.9h-6.1v-46.9Z"/>
        <path class="st3" d="M187.2,576s-.1,0-.1,0v45.5s0,0,.1,0,.1,0,.1,0v-45.5s0,0-.1,0Z"/>
        <path class="st3" d="M186.2,576s-.1,0-.1,0v24.3l-17.3-24.4h0l17.4,24.5v.2l-17.4,20.8h0l17.3-20.7v20.6s0,0,.1,0,.1,0,.1,0v-45.5s0,0-.1,0v.2Z"/>
        <path class="st3" d="M145.9,576s-.1,0-.1,0v45.5s0,0,.1,0,.1,0,.1,0v-45.5s0,0-.1,0Z"/>
      </g>
    </g>
  </g>
</svg>