<?xml version="1.0" encoding="UTF-8"?><svg id="a" xmlns="http://www.w3.org/2000/svg" viewBox="0 0 232.77 634.64"><defs><style>.b{fill:#c1d1ec;}.c{fill:#a09d9c;}.d{fill:#1d1d1b;}.e{fill:#b1b1b1;}.f{fill:#12100b;}.g{fill:#fff;}.h{fill:#8c8988;}.i{fill:#e2eaf6;}.j{fill:#53668c;}</style></defs><path class="b" d="M79.76,157.2l134.77,35.18H79.76v-35.18ZM214.53,157.2H79.76l134.77,35.18v-35.18Z"/><path class="b" d="M214.54,192.39h-.01s-134.77,0-134.77,0v-35.18l-.07-.02h.07s.01,0,.01,0h134.77v35.18l.07.02h-.07ZM79.77,192.37h134.68l-134.68-35.16v35.16ZM79.84,157.21l134.68,35.16v-35.16H79.84Z"/><path class="b" d="M9.4.65l58.63,8.84H9.4V.65ZM68.03.65H9.4l58.63,8.84V.65Z"/><path class="b" d="M68.04,9.51h-.01s-58.64,0-58.64,0V.64h.01s58.64,0,58.64,0v8.86ZM9.41,9.48h58.49L9.41.66v8.82ZM9.53.66l58.49,8.82V.66H9.53Z"/><path class="b" d="M9.4,9.49l64.5,17.59H9.4V9.49ZM73.9,9.49H9.4l64.5,17.59V9.49Z"/><path class="b" d="M73.91,27.1h-.01s-64.51,0-64.51,0V9.5l-.06-.02h.06s.01,0,.01,0h64.51v17.59l.06.02h-.06ZM9.41,27.07h64.41L9.41,9.51v17.57ZM9.48,9.5l64.41,17.57V9.5H9.48Z"/><path class="b" d="M9.4,27.08l99.68,65.61H9.4V27.08ZM109.08,27.08H9.4l99.68,65.61V27.08Z"/><path class="b" d="M109.09,92.72h-.01s-99.69,0-99.69,0V27.09l-.02-.02h.02s.01,0,.01,0h99.69v65.62l.02.02h-.02ZM9.41,92.69h99.63L9.41,27.1v65.59ZM9.43,27.09l99.63,65.59V27.09H9.43Z"/><path class="b" d="M9.4,92.7l64.5,5.86H9.4v-5.86ZM73.9,92.7H9.4l64.5,5.86v-5.86Z"/><path class="b" d="M73.91,98.57h-.01s-64.51,0-64.51,0v-5.88h.01s64.51,0,64.51,0v5.88ZM9.41,98.55h64.27l-64.27-5.84v5.84ZM9.62,92.71l64.27,5.84v-5.84H9.62Z"/><path class="b" d="M9.68,98.56l64.22,93.81H9.4l.28-93.81ZM74.18,98.56H9.68l64.22,93.81.28-93.81Z"/><path class="b" d="M73.91,192.41l-.02-.02H9.39s.28-93.82.28-93.82h0s0-.01,0-.01v-.02s.02.02.02.02h64.5s-.28,93.82-.28,93.82h0s0,.01,0,.01v.02ZM9.41,192.37h64.47L9.69,98.59l-.28,93.77ZM9.7,98.57l64.19,93.77.28-93.77H9.7Z"/><path class="b" d="M9.4,192.38l205.13,352.92H9.4V192.38ZM214.53,192.38H9.4l205.13,352.92V192.38Z"/><path class="b" d="M214.54,545.33l-.02-.03H9.39V192.38h0s0-.01,0-.01v-.03l.02.03h205.13v352.93h0s0,.01,0,.01v.03ZM9.41,545.29h205.1L9.41,192.41v352.87ZM9.42,192.39l205.1,352.87V192.39H9.42Z"/><path class="b" d="M9.4,545.3l185.77,9.96H9.4v-9.96ZM195.17,545.3H9.4l185.77,9.96v-9.96Z"/><path class="b" d="M195.18,555.26h-.01s-185.78,0-185.78,0v-9.98h.01s0,0,0,0h185.78v9.98ZM9.41,555.24h185.38l-185.38-9.94v9.94ZM9.78,545.31l185.38,9.94v-9.94H9.78Z"/><path class="b" d="M9.4,555.25l164.08,8.84H9.4v-8.84ZM173.48,555.25H9.4l164.08,8.84v-8.84Z"/><path class="b" d="M173.49,564.11h-.01s-164.09,0-164.09,0v-8.86h.01s164.09,0,164.09,0v8.86ZM9.41,564.09h163.7l-163.7-8.82v8.82ZM9.77,555.26l163.7,8.82v-8.82H9.77Z"/><rect class="g" x="100.24" y="436.87" width="111.4" height="82.09"/><rect class="g" x="188.19" y="413.42" width="23.45" height="23.45"/><rect class="g" x="188.19" y="518.96" width="23.45" height="23.45"/><rect class="g" x="109.08" y="239.28" width="105.45" height="23.45"/><rect class="g" x="177.95" y="158.69" width="35.09" height="35.18"/><rect class="g" x="177.86" y="195.26" width="17.68" height=".93"/><rect class="g" x="91.77" y="308.71" width="96.42" height="93.81"/><rect class="g" x="188.19" y="314.58" width="23.45" height="82.09"/><rect class="g" x="177.95" y="158.69" width="35.09" height="35.18"/><rect class="g" x="79.76" y="157.2" width="96.7" height="35.18"/><path class="j" d="M68.03.65l164.08,8.84H68.03V.65ZM232.12.65H68.03l164.08,8.84V.65Z"/><path class="j" d="M232.13,9.5h-.01s-164.09,0-164.09,0V.64h.01s164.09,0,164.09,0v8.86ZM68.04,9.48h163.7L68.04.66v8.82ZM68.41.66l163.7,8.82V.66H68.41Z"/><path class="j" d="M73.9,9.49l71.48,17.59h-71.48V9.49ZM145.37,9.49h-71.48l71.48,17.59V9.49Z"/><path class="j" d="M145.38,27.1h-.01s-71.49,0-71.49,0V9.5l-.07-.02h71.57v17.59l.07.02h-.07ZM73.91,27.07h71.38L73.91,9.51v17.57ZM73.98,9.5l71.38,17.57V9.5h-71.38Z"/><path class="j" d="M109.08,27.08l5.86,65.61h-5.86V27.08ZM114.94,27.08h-5.86l5.86,65.61V27.08Z"/><path class="j" d="M114.95,92.71h-5.88V27.07s5.88,0,5.88,0v65.64ZM109.09,92.69h5.84l-5.84-65.38v65.38ZM109.09,27.09l5.84,65.38V27.09h-5.84Z"/><path class="j" d="M73.9,92.7l41.04,5.86h-41.04v-5.86ZM114.94,92.7h-41.04l41.04,5.86v-5.86Z"/><path class="j" d="M114.95,98.57h-.01s-41.05,0-41.05,0v-5.88h.01s41.05,0,41.05,0v5.88ZM73.91,98.55h40.89l-40.89-5.84v5.84ZM74.04,92.71l40.89,5.84v-5.84h-40.89Z"/><path class="j" d="M214.53,9.49l17.59,141.84h-17.59V9.49ZM232.12,9.49h-17.59l17.59,141.84V9.49Z"/><path class="j" d="M232.13,151.34h-17.61V9.48s17.61,0,17.61,0v141.86ZM214.54,151.32h17.57L214.54,9.66v141.66ZM214.54,9.5l17.57,141.66V9.5h-17.57Z"/><path class="j" d="M73.9,151.33l158.22,5.86H73.9v-5.86ZM232.12,151.33H73.9l158.22,5.86v-5.86Z"/><path class="j" d="M232.13,157.21H73.89v-5.88h158.24v5.88ZM73.91,157.19h157.66l-157.66-5.84v5.84ZM74.44,151.34l157.66,5.84v-5.84H74.44Z"/><path class="j" d="M73.9,157.2l5.86,35.18h-5.86v-35.18ZM79.76,157.2h-5.86l5.86,35.18v-35.18Z"/><path class="j" d="M79.77,192.39h-5.89v-35.2s5.88,0,5.88,0v35.2ZM73.91,192.37h5.84l-5.84-35.05v35.05ZM73.91,157.21l5.84,35.05v-35.05h-5.84Z"/><path class="j" d="M214.53,157.2l17.59,388.1h-17.59V157.2ZM232.12,157.2h-17.59l17.59,388.1V157.2Z"/><path class="j" d="M232.13,545.31h-17.61V157.19s17.61,0,17.61,0v388.12ZM214.54,545.29h17.57l-17.57-387.65v387.65ZM214.54,157.19l17.57,387.66V157.21h-17.57Z"/><path class="j" d="M195.17,545.3l36.95,9.96h-36.95v-9.96ZM232.12,545.3h-36.95l36.95,9.96v-9.96Z"/><path class="j" d="M232.13,555.27h-.01s-36.96,0-36.96,0v-9.96l-.07-.02h.07s.01,0,.01,0h36.96v9.96l.07.02h-.07ZM195.18,555.24h36.86l-36.86-9.94v9.94ZM195.24,545.31l36.86,9.94v-9.94h-36.86Z"/><path class="j" d="M173.48,555.25l58.63,8.84h-58.63v-8.84ZM232.12,555.25h-58.63l58.63,8.84v-8.84Z"/><path class="j" d="M232.13,564.11h-.01s-58.64,0-58.64,0v-8.86h.01s58.64,0,58.64,0v8.86ZM173.49,564.09h58.49l-58.49-8.82v8.82ZM173.62,555.26l58.49,8.82v-8.82h-58.49Z"/><path class="j" d="M.65.65l8.75,563.44H.65V.65ZM9.4.65H.65l8.75,563.44V.65Z"/><path class="j" d="M9.41,564.11H.64V.64h8.77v563.46ZM.66,564.09h8.73L.66,1.95v562.14ZM.66.65l8.73,562.15V.66H.66Z"/><path class="i" d="M145.37,9.49l69.15,17.59h-69.15V9.49ZM214.53,9.49h-69.15l69.15,17.59V9.49Z"/><path class="i" d="M214.54,27.1h-.01s-69.16,0-69.16,0V9.5l-.07-.02h.07s.01,0,.01,0h69.16v17.59l.07.02h-.07ZM145.38,27.07h69.06l-69.06-17.57v17.57ZM145.46,9.5l69.06,17.57V9.5h-69.06Z"/><path class="i" d="M114.94,27.08l99.58,71.48h-99.58V27.08ZM214.53,27.08h-99.58l99.58,71.48V27.08Z"/><path class="i" d="M214.54,98.58h-.01s-99.59,0-99.59,0V27.09l-.02-.02h.02s.01,0,.01,0h99.59v71.48l.02.02h-.02ZM114.95,98.55h99.54L114.95,27.1v71.45ZM114.97,27.09l99.54,71.45V27.09h-99.54Z"/><path class="i" d="M73.9,98.56l140.63,52.77H73.9v-52.77ZM214.53,98.56H73.9l140.63,52.77v-52.77Z"/><path class="i" d="M214.54,151.35h-.01s-140.64,0-140.64,0v-52.77l-.05-.02h.05s.01,0,.01,0h140.64v52.77l.05.02h-.05ZM73.91,151.32h140.56l-140.56-52.75v52.75ZM73.95,98.57l140.56,52.75v-52.75H73.95Z"/><path class="i" d="M6.42,564.1l196.38,67.38H6.42v-67.38ZM202.8,564.1H6.42l196.38,67.38v-67.38Z"/><path class="i" d="M202.81,631.49h-.01s-196.39,0-196.39,0v-67.38l-.05-.02h.05s.01,0,.01,0h196.39v67.38l.05.02h-.05ZM6.43,631.47h196.31L6.43,564.11v67.36ZM6.48,564.11l196.31,67.36v-67.36H6.48Z"/><path class="e" d="M232.12,564.75h-58.63c-.36,0-.65-.29-.65-.65s.29-.65.65-.65h57.98V.65c0-.36.29-.65.65-.65s.65.29.65.65v563.44c0,.36-.29.65-.65.65Z"/><path class="e" d="M214.53,151.98c-.36,0-.65-.29-.65-.65V9.49c0-.36.29-.65.65-.65s.65.29.65.65v141.84c0,.36-.29.65-.65.65Z"/><path class="e" d="M214.53,151.98H73.9c-.36,0-.65-.29-.65-.65s.29-.65.65-.65h140.63c.36,0,.65.29.65.65s-.29.65-.65.65Z"/><path class="c" d="M114.94,99.21h-41.04c-.36,0-.65-.29-.65-.65s.29-.65.65-.65h41.04c.36,0,.65.29.65.65s-.29.65-.65.65Z"/><path class="e" d="M109.08,93.35h-35.18c-.36,0-.65-.29-.65-.65s.29-.65.65-.65h35.18c.36,0,.65.29.65.65s-.29.65-.65.65Z"/><path class="e" d="M173.48,564.75c-.36,0-.65-.29-.65-.65v-8.84c0-.36.29-.65.65-.65h21.69c.36,0,.65.29.65.65s-.29.65-.65.65h-21.03v8.19c0,.36-.29.65-.65.65Z"/><path class="e" d="M232.12,1.3H68.03c-.36,0-.65-.29-.65-.65s.29-.65.65-.65h164.08c.36,0,.65.29.65.65s-.29.65-.65.65Z"/><path class="e" d="M73.9,10.15h-5.86c-.36,0-.65-.29-.65-.65s.29-.65.65-.65h5.86c.36,0,.65.29.65.65s-.29.65-.65.65Z"/><path class="e" d="M214.53,10.15h-69.15c-.36,0-.65-.29-.65-.65s.29-.65.65-.65h69.15c.36,0,.65.29.65.65s-.29.65-.65.65Z"/><path class="e" d="M214.53,50.72h-73.25c-.1,0-.19-.08-.19-.19s.08-.19.19-.19h73.25c.1,0,.19.08.19.19s-.08.19-.19.19Z"/><path class="e" d="M114.94,99.21c-.36,0-.65-.29-.65-.65V27.08c0-.36.29-.65.65-.65s.65.29.65.65v71.48c0,.36-.29.65-.65.65Z"/><path class="e" d="M141.28,98.75c-.1,0-.19-.08-.19-.19V27.08c0-.1.08-.19.19-.19s.19.08.19.19v71.48c0,.1-.08.19-.19.19Z"/><path class="e" d="M109.08,93.35c-.36,0-.65-.29-.65-.65V27.08c0-.36.29-.65.65-.65s.65.29.65.65v65.61c0,.36-.29.65-.65.65Z"/><path class="e" d="M73.9,99.21c-.36,0-.65-.29-.65-.65v-5.86c0-.36.29-.65.65-.65s.65.29.65.65v5.86c0,.36-.29.65-.65.65Z"/><path class="e" d="M214.53,239.47h-105.45c-.1,0-.19-.08-.19-.19s.08-.19.19-.19h105.45c.1,0,.19.08.19.19s-.08.19-.19.19Z"/><path class="d" d="M68.03,10.15c-.36,0-.65-.29-.65-.65V.65c0-.36.29-.65.65-.65s.65.29.65.65v8.84c0,.36-.29.65-.65.65Z"/><path class="d" d="M13.77,62.5h-2.61c-.13,0-.23-.1-.23-.23V9.49c0-.13.1-.23.23-.23h2.61c.13,0,.23.1.23.23v52.77c0,.13-.1.23-.23.23ZM11.4,62.03h2.14V9.73h-2.14v52.31Z"/><path class="d" d="M14.61,58.77h-.84c-.18,0-.33-.15-.33-.33s.15-.33.33-.33h.84c.18,0,.33.15.33.33s-.15.33-.33.33Z"/><path class="d" d="M14.61,57.56h-.84c-.18,0-.33-.15-.33-.33s.15-.33.33-.33h.84c.18,0,.33.15.33.33s-.15.33-.33.33Z"/><path class="d" d="M11.17,58.77h-.84c-.18,0-.33-.15-.33-.33s.15-.33.33-.33h.84c.18,0,.33.15.33.33s-.15.33-.33.33Z"/><path class="d" d="M11.17,57.56h-.84c-.18,0-.33-.15-.33-.33s.15-.33.33-.33h.84c.18,0,.33.15.33.33s-.15.33-.33.33Z"/><path class="d" d="M10,59.52c-.13,0-.23-.1-.23-.23s.1-.23.23-.23c.05,0,.09-.04.09-.09,0-.13.1-.23.23-.23s.23.1.23.23c0,.31-.25.56-.56.56Z"/><path class="d" d="M10.33,59.24c-.13,0-.23-.1-.23-.23v-6.42c0-.13.1-.23.23-.23s.23.1.23.23v6.42c0,.13-.1.23-.23.23Z"/><path class="d" d="M10.33,52.77c-.13,0-.23-.1-.23-.23,0-.05-.04-.09-.09-.09-.13,0-.23-.1-.23-.23s.1-.23.23-.23c.31,0,.56.25.56.56,0,.13-.1.23-.23.23Z"/><path class="d" d="M10.05,52.54h-.28c-.13,0-.23-.1-.23-.23s.1-.23.23-.23h.28c.13,0,.23.1.23.23s-.1.23-.23.23Z"/><path class="d" d="M9.4,52.77c-.13,0-.23-.1-.23-.23,0-.31.25-.56.56-.56.13,0,.23.1.23.23s-.1.23-.23.23c-.05,0-.09.04-.09.09,0,.13-.1.23-.23.23Z"/><path class="d" d="M9.49,59.24c-.13,0-.23-.1-.23-.23v-6.42c0-.13.1-.23.23-.23s.23.1.23.23v6.42c0,.13-.1.23-.23.23Z"/><path class="d" d="M9.73,59.52c-.31,0-.56-.25-.56-.56,0-.13.1-.23.23-.23s.23.1.23.23c0,.05.04.09.09.09.13,0,.23.1.23.23s-.1.23-.23.23Z"/><path class="d" d="M10.05,59.52h-.28c-.13,0-.23-.1-.23-.23s.1-.23.23-.23h.28c.13,0,.23.1.23.23s-.1.23-.23.23Z"/><path class="d" d="M14.84,59.52c-.31,0-.56-.25-.56-.56,0-.13.1-.23.23-.23s.23.1.23.23c0,.05.04.09.09.09.13,0,.23.1.23.23s-.1.23-.23.23Z"/><path class="d" d="M14.61,59.24c-.13,0-.23-.1-.23-.23v-6.42c0-.13.1-.23.23-.23s.23.1.23.23v6.42c0,.13-.1.23-.23.23Z"/><path class="d" d="M14.52,52.77c-.13,0-.23-.1-.23-.23,0-.31.25-.56.56-.56.13,0,.23.1.23.23s-.1.23-.23.23c-.05,0-.09.04-.09.09,0,.13-.1.23-.23.23Z"/><path class="d" d="M15.17,52.54h-.28c-.13,0-.23-.1-.23-.23s.1-.23.23-.23h.28c.13,0,.23.1.23.23s-.1.23-.23.23Z"/><path class="d" d="M15.45,52.77c-.13,0-.23-.1-.23-.23,0-.05-.04-.09-.09-.09-.13,0-.23-.1-.23-.23s.1-.23.23-.23c.31,0,.56.25.56.56,0,.13-.1.23-.23.23Z"/><path class="d" d="M15.45,59.24c-.13,0-.23-.1-.23-.23v-6.42c0-.13.1-.23.23-.23s.23.1.23.23v6.42c0,.13-.1.23-.23.23Z"/><path class="d" d="M15.12,59.52c-.13,0-.23-.1-.23-.23s.1-.23.23-.23c.05,0,.09-.04.09-.09,0-.13.1-.23.23-.23s.23.1.23.23c0,.31-.25.56-.56.56Z"/><path class="d" d="M15.17,59.52h-.28c-.13,0-.23-.1-.23-.23s.1-.23.23-.23h.28c.13,0,.23.1.23.23s-.1.23-.23.23Z"/><path class="d" d="M11.17,9.73h-1.21c-.13,0-.23-.1-.23-.23v-.33h-.09v.33c0,.13-.1.23-.23.23s-.23-.1-.23-.23v-.56c0-.13.1-.23.23-.23h.56c.13,0,.23.1.23.23v.33h.75V3.91c0-.13.1-.23.23-.23h.33v-.09h-.33c-.13,0-.23-.1-.23-.23V.88h-.75v.42c0,.13-.1.23-.23.23h-.56c-.13,0-.23-.1-.23-.23v-.65c0-.13.1-.23.23-.23s.23.1.23.23v.42h.09v-.42c0-.13.1-.23.23-.23h1.21c.13,0,.23.1.23.23v2.47h.33c.13,0,.23.1.23.23v.56c0,.13-.1.23-.23.23h-.33v5.35c0,.13-.1.23-.23.23Z"/><path class="d" d="M66.27.98H11.17c-.18,0-.33-.15-.33-.33s.15-.33.33-.33h55.1c.18,0,.33.15.33.33s-.15.33-.33.33Z"/><path class="d" d="M11.17,62.59c-.17,0-.32-.14-.33-.31,0-.18.13-.33.31-.34l4.47-.19,4.35-.46,4.34-.93,4.26-1.2,4.07-1.48,3.97-1.94,3.9-2.13,3.6-2.5,3.42-2.87,3.24-3.06,2.87-3.24,2.68-3.52,2.31-3.79,2.13-3.9,1.66-4.06,1.39-4.17,1.11-4.26.65-4.43.34-4H13.77c-.18,0-.33-.15-.33-.33s.15-.33.33-.33h52.49c.09,0,.18.04.24.11.06.07.09.16.08.25l-.37,4.37-.65,4.49-1.12,4.32-1.4,4.21-1.68,4.12-2.16,3.94-2.33,3.83-2.72,3.57-2.9,3.27-3.28,3.09-3.46,2.9-3.65,2.53-3.94,2.16-4.02,1.96-4.13,1.5-4.3,1.22-4.4.94-4.41.47-4.49.19h-.01Z"/><path class="d" d="M68.03,9.73c-.13,0-.23-.1-.23-.23v-.33h-.19v.33c0,.13-.1.23-.23.23h-1.12c-.13,0-.23-.1-.23-.23v-5.35h-.33c-.13,0-.23-.1-.23-.23v-.56c0-.13.1-.23.23-.23h.33V.65c0-.13.1-.23.23-.23h1.12c.13,0,.23.1.23.23v.42h.19v-.42c0-.13.1-.23.23-.23s.23.1.23.23v.65c0,.13-.1.23-.23.23h-.65c-.13,0-.23-.1-.23-.23v-.42h-.65v2.47c0,.13-.1.23-.23.23h-.33v.09h.33c.13,0,.23.1.23.23v5.35h.65v-.33c0-.13.1-.23.23-.23h.65c.13,0,.23.1.23.23v.56c0,.13-.1.23-.23.23Z"/><path class="e" d="M.65,564.75c-.36,0-.65-.29-.65-.65V.65c0-.36.29-.65.65-.65s.65.29.65.65v563.44c0,.36-.29.65-.65.65Z"/><path class="e" d="M9.4,564.75c-.36,0-.65-.29-.65-.65V.65c0-.36.29-.65.65-.65s.65.29.65.65v563.44c0,.36-.29.65-.65.65Z"/><path class="e" d="M173.48,555.44H9.4c-.1,0-.19-.08-.19-.19s.08-.19.19-.19h164.08c.1,0,.19.08.19.19s-.08.19-.19.19Z"/><path class="e" d="M173.48,564.28H9.4c-.1,0-.19-.08-.19-.19s.08-.19.19-.19h164.08c.1,0,.19.08.19.19s-.08.19-.19.19Z"/><path class="d" d="M128.99,149.8h-49.23c-.13,0-.23-.1-.23-.23v-2.61c0-.13.1-.23.23-.23h49.23c.13,0,.23.1.23.23v2.61c0,.13-.1.23-.23.23ZM79.99,149.33h48.77v-2.14h-48.77v2.14Z"/><path class="d" d="M125.18,147.28c-.18,0-.33-.15-.33-.33v-.84c0-.18.15-.33.33-.33s.33.15.33.33v.84c0,.18-.15.33-.33.33Z"/><path class="d" d="M123.97,147.28c-.18,0-.33-.15-.33-.33v-.84c0-.18.15-.33.33-.33s.33.15.33.33v.84c0,.18-.15.33-.33.33Z"/><path class="d" d="M125.18,150.73c-.18,0-.33-.15-.33-.33v-.84c0-.18.15-.33.33-.33s.33.15.33.33v.84c0,.18-.15.33-.33.33Z"/><path class="d" d="M123.97,150.73c-.18,0-.33-.15-.33-.33v-.84c0-.18.15-.33.33-.33s.33.15.33.33v.84c0,.18-.15.33-.33.33Z"/><path class="d" d="M126.02,150.87c-.13,0-.23-.1-.23-.23,0-.05-.04-.09-.09-.09-.13,0-.23-.1-.23-.23s.1-.23.23-.23c.31,0,.56.25.56.56,0,.13-.1.23-.23.23Z"/><path class="d" d="M125.74,150.63h-6.42c-.13,0-.23-.1-.23-.23s.1-.23.23-.23h6.42c.13,0,.23.1.23.23s-.1.23-.23.23Z"/><path class="d" d="M118.94,150.87c-.13,0-.23-.1-.23-.23,0-.31.25-.56.56-.56.13,0,.23.1.23.23s-.1.23-.23.23c-.05,0-.09.04-.09.09,0,.13-.1.23-.23.23Z"/><path class="d" d="M119.04,151.19c-.13,0-.23-.1-.23-.23v-.28c0-.13.1-.23.23-.23s.23.1.23.23v.28c0,.13-.1.23-.23.23Z"/><path class="d" d="M119.27,151.47c-.31,0-.56-.25-.56-.56,0-.13.1-.23.23-.23s.23.1.23.23c0,.05.04.09.09.09.13,0,.23.1.23.23s-.1.23-.23.23Z"/><path class="d" d="M125.74,151.56h-6.42c-.13,0-.23-.1-.23-.23s.1-.23.23-.23h6.42c.13,0,.23.1.23.23s-.1.23-.23.23Z"/><path class="d" d="M125.69,151.47c-.13,0-.23-.1-.23-.23s.1-.23.23-.23c.05,0,.09-.04.09-.09,0-.13.1-.23.23-.23s.23.1.23.23c0,.31-.25.56-.56.56Z"/><path class="d" d="M126.02,151.19c-.13,0-.23-.1-.23-.23v-.28c0-.13.1-.23.23-.23s.23.1.23.23v.28c0,.13-.1.23-.23.23Z"/><path class="d" d="M125.69,146.35c-.13,0-.23-.1-.23-.23s.1-.23.23-.23c.05,0,.09-.04.09-.09,0-.13.1-.23.23-.23s.23.1.23.23c0,.31-.25.56-.56.56Z"/><path class="d" d="M125.74,146.35h-6.42c-.13,0-.23-.1-.23-.23s.1-.23.23-.23h6.42c.13,0,.23.1.23.23s-.1.23-.23.23Z"/><path class="d" d="M119.27,146.35c-.31,0-.56-.25-.56-.56,0-.13.1-.23.23-.23s.23.1.23.23c0,.05.04.09.09.09.13,0,.23.1.23.23s-.1.23-.23.23Z"/><path class="d" d="M119.04,146.07c-.13,0-.23-.1-.23-.23v-.28c0-.13.1-.23.23-.23s.23.1.23.23v.28c0,.13-.1.23-.23.23Z"/><path class="d" d="M118.94,145.75c-.13,0-.23-.1-.23-.23,0-.31.25-.56.56-.56.13,0,.23.1.23.23s-.1.23-.23.23c-.05,0-.09.04-.09.09,0,.13-.1.23-.23.23Z"/><path class="d" d="M125.74,145.51h-6.42c-.13,0-.23-.1-.23-.23s.1-.23.23-.23h6.42c.13,0,.23.1.23.23s-.1.23-.23.23Z"/><path class="d" d="M126.02,145.75c-.13,0-.23-.1-.23-.23,0-.05-.04-.09-.09-.09-.13,0-.23-.1-.23-.23s.1-.23.23-.23c.31,0,.56.25.56.56,0,.13-.1.23-.23.23Z"/><path class="d" d="M126.02,146.07c-.13,0-.23-.1-.23-.23v-.28c0-.13.1-.23.23-.23s.23.1.23.23v.28c0,.13-.1.23-.23.23Z"/><path class="d" d="M79.76,151.56h-.65c-.13,0-.23-.1-.23-.23v-.56c0-.13.1-.23.23-.23h.42v-.75h-2.47c-.13,0-.23-.1-.23-.23v-.33h-.09v.33c0,.13-.1.23-.23.23h-2.37v.75h.33c.13,0,.23.1.23.23v.56c0,.13-.1.23-.23.23h-.56c-.13,0-.23-.1-.23-.23s.1-.23.23-.23h.33v-.09h-.33c-.13,0-.23-.1-.23-.23v-1.21c0-.13.1-.23.23-.23h2.37v-.33c0-.13.1-.23.23-.23h.56c.13,0,.23.1.23.23v.33h2.47c.13,0,.23.1.23.23v1.21c0,.13-.1.23-.23.23h-.42v.09h.42c.13,0,.23.1.23.23s-.1.23-.23.23Z"/><path class="d" d="M77.06,101.21h-.56c-.13,0-.23-.1-.23-.23v-.42h-2.37c-.13,0-.23-.1-.23-.23v-1.12c0-.13.1-.23.23-.23h.33v-.19h-.33c-.13,0-.23-.1-.23-.23s.1-.23.23-.23h.56c.13,0,.23.1.23.23v.65c0,.13-.1.23-.23.23h-.33v.65h2.37c.13,0,.23.1.23.23v.42h.09v-.42c0-.13.1-.23.23-.23h2.47v-.65h-.42c-.13,0-.23-.1-.23-.23v-.65c0-.13.1-.23.23-.23h.65c.13,0,.23.1.23.23s-.1.23-.23.23h-.42v.19h.42c.13,0,.23.1.23.23v1.12c0,.13-.1.23-.23.23h-2.47v.42c0,.13-.1.23-.23.23Z"/><path class="d" d="M73.9,149.89c-.18,0-.33-.15-.33-.33v-49.23c0-.18.15-.33.33-.33s.33.15.33.33v49.23c0,.18-.15.33-.33.33Z"/><path class="d" d="M79.76,147.28c-.18,0-.33-.15-.33-.33v-46.63c0-.18.15-.33.33-.33s.33.15.33.33v46.63c0,.18-.15.33-.33.33Z"/><path class="d" d="M128.92,147.21c-.17,0-.32-.13-.32-.31-1.39-25.98-22.86-46.34-48.88-46.34-.18,0-.33-.15-.33-.33s.15-.33.33-.33c26.37,0,48.13,20.62,49.54,46.95,0,.18-.13.33-.31.34,0,0-.01,0-.02,0Z"/><path class="e" d="M212.8,98.93c-.33,0-.6-.27-.6-.6s.27-.61.6-.61.6.27.6.61-.27.6-.6.6ZM212.8,98.1c-.13,0-.23.1-.23.23s.1.23.23.23.23-.1.23-.23-.1-.23-.23-.23Z"/><path class="e" d="M198.47,108.33c-.18,0-.33-.15-.33-.33s.15-.33.33-.33.33.15.33.33-.15.33-.33.33ZM198.47,107.96s-.05.02-.05.05c0,.05.09.05.09,0,0-.03-.02-.05-.05-.05Z"/><path class="e" d="M199.82,109.12c-.1,0-.19-.08-.19-.19,0-.64-.52-1.16-1.16-1.16s-1.16.52-1.16,1.16c0,.1-.08.19-.19.19s-.19-.08-.19-.19c0-.85.69-1.54,1.54-1.54s1.54.69,1.54,1.54c0,.1-.08.19-.19.19Z"/><path class="e" d="M198.47,98.84c-.85,0-1.54-.69-1.54-1.54,0-.1.08-.19.19-.19s.19.08.19.19c0,.64.52,1.16,1.16,1.16s1.16-.52,1.16-1.16c0-.1.08-.19.19-.19s.19.08.19.19c0,.85-.69,1.54-1.54,1.54Z"/><path class="e" d="M198.47,98.56c-.18,0-.33-.15-.33-.33s.15-.33.33-.33.33.15.33.33-.15.33-.33.33ZM198.47,98.19s-.05.02-.05.05c0,.05.09.05.09,0,0-.03-.02-.05-.05-.05Z"/><path class="e" d="M192.51,103.96c-.49,0-.88-.4-.88-.88s.4-.88.88-.88.88.4.88.88-.4.88-.88.88ZM192.51,102.56c-.28,0-.51.23-.51.51s.23.51.51.51.51-.23.51-.51-.23-.51-.51-.51Z"/><path class="e" d="M207.45,105.63c-.1,0-.19-.08-.19-.19v-4.56c0-.1.08-.19.19-.19s.19.08.19.19v4.56c0,.1-.08.19-.19.19Z"/><path class="e" d="M206.85,106.1c-.1,0-.19-.08-.19-.19s.08-.19.19-.19c.18,0,.33-.15.33-.33,0-.1.08-.19.19-.19s.19.08.19.19c0,.39-.31.7-.7.7Z"/><path class="e" d="M206.89,106.1h-2.33c-.1,0-.19-.08-.19-.19s.08-.19.19-.19h2.33c.1,0,.19.08.19.19s-.08.19-.19.19Z"/><path class="e" d="M206.89,100.52h-2.33c-.1,0-.19-.08-.19-.19s.08-.19.19-.19h2.33c.1,0,.19.08.19.19s-.08.19-.19.19Z"/><path class="e" d="M207.36,101.03c-.1,0-.19-.08-.19-.19,0-.18-.15-.33-.33-.33-.1,0-.19-.08-.19-.19s.08-.19.19-.19c.38,0,.7.31.7.7,0,.1-.08.19-.19.19Z"/><path class="e" d="M204.15,104.52c-.44,0-.88-.2-1.15-.57-.39-.51-.39-1.23,0-1.74.39-.51,1.08-.71,1.68-.47.1.04.14.15.1.24-.04.1-.15.14-.24.1-.45-.18-.96-.03-1.25.35-.29.38-.29.91,0,1.29.29.38.8.52,1.25.35.09-.04.2,0,.24.1s0,.2-.1.24c-.17.07-.35.1-.53.1Z"/><path class="e" d="M204.15,104.05c-.26,0-.53-.11-.72-.32-.35-.38-.35-.95,0-1.32.34-.38.91-.43,1.32-.11.08.06.1.18.03.26s-.18.1-.26.03c-.25-.19-.6-.16-.82.07-.21.23-.21.58,0,.82.21.23.57.26.81.07.08-.06.2-.05.26.03.06.08.05.2-.03.26-.18.14-.39.21-.6.21Z"/><path class="e" d="M209.55,98.65c-.64,0-1.16-.52-1.16-1.16s.52-1.16,1.16-1.16,1.16.52,1.16,1.16-.52,1.16-1.16,1.16ZM209.55,96.7c-.44,0-.79.36-.79.79s.35.79.79.79.79-.35.79-.79-.35-.79-.79-.79Z"/><path class="e" d="M209.55,109.92c-.64,0-1.16-.52-1.16-1.16s.52-1.16,1.16-1.16,1.16.52,1.16,1.16-.52,1.16-1.16,1.16ZM209.55,107.96c-.44,0-.79.35-.79.79s.35.79.79.79.79-.36.79-.79-.35-.79-.79-.79Z"/><path class="e" d="M212.06,104.24c-.64,0-1.16-.52-1.16-1.16s.52-1.16,1.16-1.16,1.16.52,1.16,1.16-.52,1.16-1.16,1.16ZM212.06,102.28c-.44,0-.79.35-.79.79s.35.79.79.79.79-.35.79-.79-.35-.79-.79-.79Z"/><path class="e" d="M197.49,112.34h-.01l-6.61-.37-6.62-.93c-.1-.01-.17-.11-.16-.21.01-.1.1-.17.21-.16l6.61.93,6.59.37c.1,0,.18.09.18.2,0,.1-.09.18-.19.18Z"/><path class="e" d="M181.95,108.61c-.1,0-.18-.08-.19-.18l-.28-5.31c0-.1.07-.19.18-.2.11,0,.19.07.2.18l.28,5.31c0,.1-.07.19-.18.2h0Z"/><path class="e" d="M184.22,110.99s-.02,0-.03,0c-1.33-.23-2.36-1.32-2.5-2.66-.01-.1.06-.19.17-.2.1-.01.19.06.2.17.12,1.18,1.03,2.14,2.19,2.33.1.02.17.11.15.21-.02.09-.09.15-.18.15Z"/><path class="e" d="M204.66,105.35c-.1,0-.19-.08-.19-.19v-2.05c0-.1.08-.19.19-.19s.19.08.19.19v2.05c0,.1-.08.19-.19.19Z"/><path class="e" d="M197.63,112.34c-.06,0-.13,0-.19,0-.1,0-.18-.09-.18-.19,0-.1.09-.18.19-.18h0c1.83.04,3.64-.66,4.96-1.94,1.32-1.28,2.07-3.07,2.07-4.9,0-.1.08-.19.19-.19s.19.08.19.19c0,1.94-.8,3.82-2.18,5.17-1.34,1.3-3.17,2.04-5.03,2.04Z"/><path class="e" d="M204.66,101.31c-.1,0-.19-.08-.19-.19,0-1.84-.75-3.62-2.07-4.9-1.32-1.28-3.11-1.98-4.96-1.94h0c-.1,0-.18-.08-.19-.18,0-.1.08-.19.18-.19,1.93-.05,3.84.69,5.23,2.04,1.39,1.35,2.18,3.23,2.18,5.17,0,.1-.08.19-.19.19Z"/><path class="e" d="M204.66,103.31c-.1,0-.19-.08-.19-.19v-1.95c0-.1.08-.19.19-.19s.19.08.19.19v1.95c0,.1-.08.19-.19.19Z"/><path class="e" d="M184.28,95.68c-.09,0-.17-.07-.18-.16-.01-.1.06-.2.16-.21l6.61-.93,6.62-.37c.11,0,.19.07.2.18s-.07.19-.18.2l-6.61.37-6.59.93s-.02,0-.03,0Z"/><path class="e" d="M181.87,98.03s-.01,0-.02,0c-.1-.01-.18-.1-.17-.2.14-1.34,1.17-2.43,2.5-2.66.1-.02.2.05.21.15.02.1-.05.2-.15.21-1.17.2-2.07,1.16-2.19,2.33-.01.1-.09.17-.19.17Z"/><path class="e" d="M181.67,103.31h0c-.1,0-.18-.09-.18-.2l.28-5.21c0-.1.09-.18.2-.18.1,0,.18.09.18.2l-.28,5.21c0,.1-.09.18-.19.18Z"/><path class="e" d="M201.69,114.75l-5.97-.09-5.97-.47-5.88-.84c-.1-.01-.17-.11-.16-.21.01-.1.1-.17.21-.16l5.86.84,5.94.46,5.94.09,5.94-.28c.12,0,.19.08.19.18,0,.1-.07.19-.18.19l-5.96.28Z"/><path class="e" d="M213.9,108.88s-.03,0-.04,0c-.1-.02-.16-.12-.14-.22.41-1.83.62-3.71.62-5.58,0-.1.08-.19.19-.19s.19.08.19.19c0,1.9-.21,3.8-.63,5.66-.02.09-.1.15-.18.15Z"/><path class="e" d="M207.59,114.36c-.1,0-.18-.07-.19-.17,0-.1.07-.19.17-.2,3-.24,5.46-2.37,6.13-5.31.02-.1.12-.16.22-.14.1.02.16.12.14.22-.7,3.1-3.3,5.35-6.46,5.6,0,0,0,0-.01,0Z"/><path class="e" d="M179.62,108.8c-.1,0-.18-.08-.19-.18l-.28-5.49c0-.1.07-.19.18-.2.1,0,.19.07.2.18l.28,5.49c0,.1-.07.19-.18.2h0Z"/><path class="e" d="M183.83,113.29s-.02,0-.03,0c-2.35-.4-4.17-2.34-4.42-4.71-.01-.1.06-.19.17-.2.1-.02.19.06.2.17.23,2.21,1.93,4.01,4.11,4.38.1.02.17.11.15.21-.02.09-.09.15-.18.15Z"/><path class="e" d="M179.56,97.78s-.01,0-.02,0c-.1-.01-.18-.1-.17-.2.25-2.37,2.07-4.31,4.42-4.71.1-.02.2.05.21.15.02.1-.05.2-.15.21-2.19.37-3.88,2.17-4.11,4.38-.01.1-.09.17-.19.17Z"/><path class="e" d="M179.35,103.31h0c-.1,0-.18-.09-.18-.2l.28-5.4c0-.1.07-.17.2-.18.1,0,.18.09.18.2l-.28,5.4c0,.1-.09.18-.19.18Z"/><path class="e" d="M213.89,97.71c-.09,0-.16-.06-.18-.15-.66-2.94-3.13-5.07-6.13-5.31-.1,0-.18-.1-.17-.2,0-.1.1-.18.2-.17,3.17.25,5.76,2.5,6.46,5.6.02.1-.04.2-.14.22-.01,0-.03,0-.04,0Z"/><path class="e" d="M214.53,103.26c-.1,0-.19-.08-.19-.19,0-1.87-.21-3.75-.62-5.58-.02-.1.04-.2.14-.22.1-.02.2.04.22.14.42,1.86.63,3.76.63,5.66,0,.1-.08.19-.19.19Z"/><path class="e" d="M183.91,93.35c-.09,0-.17-.07-.18-.16-.01-.1.06-.2.16-.21l5.86-.84,5.97-.47,5.97-.09,5.97.28c.1,0,.18.09.18.19,0,.1-.08.18-.19.18l-5.96-.28-5.94.09-5.94.46-5.85.84s-.02,0-.03,0Z"/><path class="e" d="M176.27,68.45c-.1,0-.19-.08-.19-.19,0-1.61,1.03-3.01,2.56-3.5.1-.03.2.02.23.12.03.1-.02.2-.12.23-1.38.44-2.3,1.7-2.3,3.15,0,.1-.08.19-.19.19Z"/><path class="e" d="M178.7,76.99s-.04,0-.06,0c-1.53-.49-2.56-1.9-2.56-3.5,0-.1.08-.19.19-.19s.19.08.19.19c0,1.44.92,2.71,2.3,3.15.1.03.15.14.12.23-.02.08-.1.13-.18.13Z"/><path class="e" d="M173.95,68.45c-.1,0-.19-.08-.19-.19,0-2.62,1.68-4.92,4.18-5.72.1-.03.2.02.23.12.03.1-.02.2-.12.23-2.34.75-3.92,2.9-3.92,5.36,0,.1-.08.19-.19.19Z"/><path class="e" d="M178,79.21s-.04,0-.06,0c-2.5-.8-4.18-3.1-4.18-5.72,0-.1.08-.19.19-.19s.19.08.19.19c0,2.46,1.58,4.62,3.92,5.36.1.03.15.14.12.23-.02.08-.1.13-.18.13Z"/><path class="e" d="M176.27,73.71c-.1,0-.19-.08-.19-.19v-5.21c0-.1.08-.19.19-.19s.19.08.19.19v5.21c0,.1-.08.19-.19.19Z"/><path class="e" d="M173.95,73.71c-.1,0-.19-.08-.19-.19v-5.21c0-.1.08-.19.19-.19s.19.08.19.19v5.21c0,.1-.08.19-.19.19Z"/><path class="e" d="M190.79,68.13h-4.28c-.1,0-.19-.08-.19-.19s.08-.19.19-.19h4.28c.1,0,.19.08.19.19s-.08.19-.19.19Z"/><path class="e" d="M185.58,69.01c-.1,0-.19-.08-.19-.19,0-.59.48-1.07,1.07-1.07.1,0,.19.08.19.19s-.08.19-.19.19c-.38,0-.7.31-.7.7,0,.1-.08.19-.19.19Z"/><path class="e" d="M193.47,71.04c-.09,0-.17-.07-.18-.16-.2-1.53-1.61-2.63-3.14-2.45-.11.01-.19-.06-.21-.16-.01-.1.06-.19.16-.21,1.73-.2,3.33,1.04,3.55,2.78.01.1-.06.2-.16.21,0,0-.02,0-.02,0Z"/><path class="e" d="M185.67,73.15c-.1,0-.19-.08-.19-.19v-4.1c0-.1.08-.19.19-.19s.19.08.19.19v4.1c0,.1-.08.19-.19.19Z"/><path class="e" d="M190.46,73.71c-.12,0-.24,0-.37-.02-.1-.01-.18-.1-.16-.21.01-.1.1-.18.21-.16,1.53.18,2.94-.92,3.14-2.45.01-.1.1-.17.21-.16.1.01.17.11.16.21-.21,1.61-1.6,2.8-3.19,2.8Z"/><path class="e" d="M186.46,73.99c-.59,0-1.07-.48-1.07-1.07,0-.1.08-.19.19-.19s.19.08.19.19c0,.38.31.7.7.7.1,0,.19.08.19.19s-.08.19-.19.19Z"/><path class="e" d="M190.79,74.08h-4.28c-.1,0-.19-.08-.19-.19s.08-.19.19-.19h4.28c.1,0,.19.08.19.19s-.08.19-.19.19Z"/><path class="e" d="M213.04,71.11c-.1,0-.19-.08-.19-.19v-8.38c0-.1.08-.19.19-.19s.19.08.19.19v8.38c0,.1-.08.19-.19.19Z"/><path class="e" d="M212.94,62.68c-.1,0-.19-.08-.19-.19,0-.39-.31-.7-.7-.7-.1,0-.19-.08-.19-.19s.08-.19.19-.19c.59,0,1.07.48,1.07,1.07,0,.1-.08.19-.19.19Z"/><path class="e" d="M212.11,61.8h-4.75c-.1,0-.19-.08-.19-.19s.08-.19.19-.19h4.75c.1,0,.19.08.19.19s-.08.19-.19.19Z"/><path class="e" d="M206.43,71.11c-.1,0-.19-.08-.19-.19v-8.38c0-.1.08-.19.19-.19s.19.08.19.19v8.38c0,.1-.08.19-.19.19Z"/><path class="e" d="M206.43,62.68c-.1,0-.19-.08-.19-.19,0-.59.48-1.07,1.07-1.07.1,0,.19.08.19.19s-.08.19-.19.19c-.38,0-.7.31-.7.7,0,.1-.08.19-.19.19Z"/><path class="e" d="M207.31,80.32c-.59,0-1.07-.48-1.07-1.07,0-.1.08-.19.19-.19s.19.08.19.19c0,.38.31.7.7.7.1,0,.19.08.19.19s-.08.19-.19.19Z"/><path class="e" d="M206.43,79.48c-.1,0-.19-.08-.19-.19v-8.38c0-.1.08-.19.19-.19s.19.08.19.19v8.38c0,.1-.08.19-.19.19Z"/><path class="e" d="M212.11,80.41h-4.75c-.1,0-.19-.08-.19-.19s.08-.19.19-.19h4.75c.1,0,.19.08.19.19s-.08.19-.19.19Z"/><path class="e" d="M212.06,80.32c-.1,0-.19-.08-.19-.19s.08-.19.19-.19c.38,0,.7-.31.7-.7,0-.1.08-.19.19-.19s.19.08.19.19c0,.59-.48,1.07-1.07,1.07Z"/><path class="e" d="M213.04,79.48c-.1,0-.19-.08-.19-.19v-8.38c0-.1.08-.19.19-.19s.19.08.19.19v8.38c0,.1-.08.19-.19.19Z"/><path class="e" d="M205.87,84.97c-.1,0-.19-.08-.19-.19v-27.73c0-.1.08-.19.19-.19s.19.08.19.19v27.73c0,.1-.08.19-.19.19Z"/><path class="e" d="M205.82,84.97c-.64,0-1.16-.52-1.16-1.16,0-.1.08-.19.19-.19s.19.08.19.19c0,.44.35.79.79.79.1,0,.19.08.19.19s-.08.19-.19.19Z"/><path class="e" d="M213.55,84.97c-.1,0-.19-.08-.19-.19s.08-.19.19-.19c.44,0,.79-.35.79-.79,0-.1.08-.19.19-.19s.19.08.19.19c0,.64-.52,1.16-1.16,1.16Z"/><path class="e" d="M214.53,58.12c-.1,0-.19-.08-.19-.19,0-.44-.35-.79-.79-.79-.1,0-.19-.08-.19-.19s.08-.19.19-.19c.64,0,1.16.52,1.16,1.16,0,.1-.08.19-.19.19Z"/><path class="e" d="M204.85,58.12c-.1,0-.19-.08-.19-.19,0-.64.52-1.16,1.16-1.16.1,0,.19.08.19.19s-.08.19-.19.19c-.44,0-.79.35-.79.79,0,.1-.08.19-.19.19Z"/><path class="e" d="M214.53,71.11c-.1,0-.19-.08-.19-.19v-12.94c0-.1.08-.19.19-.19s.19.08.19.19v12.94c0,.1-.08.19-.19.19Z"/><path class="e" d="M213.59,57.24h-7.72c-.1,0-.19-.08-.19-.19s.08-.19.19-.19h7.72c.1,0,.19.08.19.19s-.08.19-.19.19Z"/><path class="e" d="M204.94,84.04c-.1,0-.19-.08-.19-.19v-25.87c0-.1.08-.19.19-.19s.19.08.19.19v25.87c0,.1-.08.19-.19.19Z"/><path class="e" d="M213.59,84.97h-7.72c-.1,0-.19-.08-.19-.19s.08-.19.19-.19h7.72c.1,0,.19.08.19.19s-.08.19-.19.19Z"/><path class="e" d="M214.53,84.04c-.1,0-.19-.08-.19-.19v-12.94c0-.1.08-.19.19-.19s.19.08.19.19v12.94c0,.1-.08.19-.19.19Z"/><path class="e" d="M178.68,65.14c-.08,0-.15-.05-.18-.13-.03-.1.02-.2.12-.23,1.83-.58,3.71-1.09,5.59-1.5.1-.02.2.04.22.14.02.1-.04.2-.14.22-1.87.41-3.74.91-5.56,1.49-.02,0-.04,0-.06,0Z"/><path class="e" d="M195.16,63.92s-.03,0-.04,0c-3.58-.84-7.24-.95-10.87-.32-.1.02-.2-.05-.21-.15s.05-.2.15-.21c3.68-.63,7.38-.52,11.02.33.1.02.16.12.14.22-.02.09-.1.14-.18.14Z"/><path class="e" d="M198.88,71.05h0c-.1,0-.18-.09-.18-.19.06-1.37-.11-2.73-.51-4.04-.03-.1.03-.2.12-.23.1-.03.2.02.23.12.41,1.35.59,2.75.53,4.16,0,.1-.09.18-.19.18Z"/><path class="e" d="M198.42,66.97c-.08,0-.15-.05-.18-.13-.44-1.44-1.62-2.54-3.09-2.89-.1-.02-.16-.12-.14-.22.02-.1.12-.16.22-.14,1.59.37,2.88,1.57,3.36,3.14.03.1-.03.2-.12.23-.02,0-.04,0-.05,0Z"/><path class="e" d="M195.2,78.16c-.08,0-.16-.06-.18-.14-.02-.1.04-.2.14-.22,1.46-.34,2.65-1.45,3.09-2.88.03-.1.13-.15.23-.12.1.03.15.13.12.23-.48,1.56-1.77,2.77-3.36,3.14-.01,0-.03,0-.04,0Z"/><path class="e" d="M198.36,75.17s-.04,0-.05,0c-.1-.03-.15-.13-.12-.23.4-1.31.57-2.67.51-4.04,0-.1.07-.19.18-.19.1,0,.19.08.19.18.06,1.41-.11,2.81-.53,4.16-.02.08-.1.13-.18.13Z"/><path class="e" d="M188.89,78.93c-1.57,0-3.14-.13-4.71-.4-.1-.02-.17-.11-.15-.21.02-.1.12-.17.21-.15,3.63.62,7.28.51,10.87-.32.1-.02.2.04.22.14.02.1-.04.2-.14.22-2.09.49-4.19.73-6.31.73Z"/><path class="e" d="M184.28,78.55s-.03,0-.05,0l-5.58-1.49c-.1-.03-.16-.13-.13-.23.03-.1.13-.16.23-.13l5.58,1.49c.1.03.16.13.13.23-.02.08-.1.14-.18.14Z"/><path class="e" d="M204.94,63.29s-.04,0-.06,0l-5.12-1.58c-.1-.03-.15-.13-.12-.23.03-.1.13-.16.23-.12l5.12,1.58c.1.03.15.13.12.23-.02.08-.1.13-.18.13Z"/><path class="e" d="M199.84,61.68s-.04,0-.06,0c-3.79-1.27-7.88-1.66-11.83-1.11-.11,0-.2-.06-.21-.16-.01-.1.06-.2.16-.21,4.01-.55,8.16-.16,12,1.13.1.03.15.14.12.24-.03.08-.1.13-.18.13Z"/><path class="e" d="M177.97,62.93c-.08,0-.15-.05-.18-.13-.03-.1.02-.2.12-.23,3.25-1.04,6.61-1.82,9.98-2.31.11-.02.2.06.21.16.02.1-.06.2-.16.21-3.35.5-6.69,1.27-9.92,2.3-.02,0-.04,0-.06,0Z"/><path class="e" d="M187.91,81.62s-.02,0-.04,0l-4.93-1.02-4.94-1.31c-.1-.03-.16-.13-.13-.23.03-.1.13-.16.23-.13l4.93,1.3,4.92,1.02c.1.02.17.12.14.22-.02.09-.1.15-.18.15Z"/><path class="e" d="M191.47,81.81c-1.19,0-2.39-.08-3.57-.24-.1-.01-.17-.11-.16-.21.01-.1.1-.17.21-.16,3.96.54,8.05.16,11.83-1.12.1-.03.2.02.24.12.03.1-.02.2-.12.24-2.71.91-5.57,1.38-8.43,1.38Z"/><path class="e" d="M199.82,80.51c-.08,0-.15-.05-.18-.13-.03-.1.02-.2.12-.23l5.12-1.58c.1-.03.2.02.23.12.03.1-.02.2-.12.23l-5.12,1.58s-.04,0-.06,0Z"/><path class="e" d="M100.24,192.56h-17.59c-.1,0-.19-.08-.19-.19v-35.18c0-.1.08-.19.19-.19h17.59c.1,0,.19.08.19.19v35.18c0,.1-.08.19-.19.19ZM82.83,192.19h17.22v-34.81h-17.22v34.81Z"/><path class="e" d="M91.44,189.58c-3.31,0-6-2.69-6-6s2.69-6,6-6,6,2.69,6,6-2.69,6-6,6ZM91.44,177.95c-3.1,0-5.63,2.53-5.63,5.63s2.53,5.63,5.63,5.63,5.63-2.53,5.63-5.63-2.53-5.63-5.63-5.63Z"/><path class="e" d="M91.44,171.99c-3.31,0-6-2.69-6-6s2.69-6,6-6,6,2.69,6,6-2.69,6-6,6ZM91.44,160.36c-3.1,0-5.63,2.53-5.63,5.63s2.53,5.63,5.63,5.63,5.63-2.53,5.63-5.63-2.53-5.63-5.63-5.63Z"/><path class="e" d="M176.46,192.56c-.1,0-.19-.08-.19-.19v-35.18c0-.1.08-.19.19-.19s.19.08.19.19v35.18c0,.1-.08.19-.19.19Z"/><path class="e" d="M79.76,193.03h-5.86c-.36,0-.65-.29-.65-.65s.29-.65.65-.65h5.86c.36,0,.65.29.65.65s-.29.65-.65.65Z"/><path class="e" d="M184.09,195.45c-.1,0-.19-.08-.19-.19v-1.4c0-.1.08-.19.19-.19s.19.08.19.19v1.4c0,.1-.08.19-.19.19Z"/><path class="e" d="M184.56,195.45c-.1,0-.19-.08-.19-.19v-1.4c0-.1.08-.19.19-.19s.19.08.19.19v1.4c0,.1-.08.19-.19.19Z"/><path class="e" d="M188.84,195.45c-.1,0-.19-.08-.19-.19v-1.4c0-.1.08-.19.19-.19s.19.08.19.19v1.4c0,.1-.08.19-.19.19Z"/><path class="e" d="M189.3,195.45c-.1,0-.19-.08-.19-.19v-1.4c0-.1.08-.19.19-.19s.19.08.19.19v1.4c0,.1-.08.19-.19.19Z"/><path class="e" d="M195.54,195.45h-17.68c-.1,0-.19-.08-.19-.19s.08-.19.19-.19h17.68c.1,0,.19.08.19.19s-.08.19-.19.19Z"/><path class="e" d="M195.54,196.38h-1.21c-.1,0-.19-.08-.19-.19s.08-.19.19-.19h1.21c.1,0,.19.08.19.19s-.08.19-.19.19Z"/><path class="e" d="M195.45,196.38h-17.59c-.1,0-.19-.08-.19-.19v-.93c0-.1.08-.19.19-.19s.19.08.19.19v.75h17.4c.1,0,.19.08.19.19s-.08.19-.19.19Z"/><path class="e" d="M213.04,194.05h-35.09c-.1,0-.19-.08-.19-.19s.08-.19.19-.19h34.9v-34.99c0-.1.08-.19.19-.19s.19.08.19.19v35.18c0,.1-.08.19-.19.19Z"/><path class="e" d="M213.04,191.17h-35.09c-.1,0-.19-.08-.19-.19s.08-.19.19-.19h35.09c.1,0,.19.08.19.19s-.08.19-.19.19Z"/><path class="e" d="M177.95,194.05c-.1,0-.19-.08-.19-.19v-35.18c0-.1.08-.19.19-.19h35.09c.1,0,.19.08.19.19s-.08.19-.19.19h-34.9v34.99c0,.1-.08.19-.19.19Z"/><path class="e" d="M195.54,196.38c-.1,0-.19-.08-.19-.19v-.93c0-.1.08-.19.19-.19s.19.08.19.19v.93c0,.1-.08.19-.19.19Z"/><path class="e" d="M141.23,176.37c-.9,0-1.63-.73-1.63-1.63s.73-1.63,1.63-1.63,1.63.73,1.63,1.63-.73,1.63-1.63,1.63ZM141.23,173.48c-.69,0-1.26.56-1.26,1.26s.56,1.26,1.26,1.26,1.26-.56,1.26-1.26-.56-1.26-1.26-1.26Z"/><path class="e" d="M128.9,166.46c-.1,0-.19-.08-.19-.19,0-1.72,1.4-3.12,3.12-3.12.1,0,.19.08.19.19s-.08.19-.19.19c-1.51,0-2.75,1.23-2.75,2.75,0,.1-.08.19-.19.19Z"/><path class="e" d="M128.99,183.53c-.1,0-.19-.08-.19-.19v-17.03c0-.1.08-.19.19-.19s.19.08.19.19v17.03c0,.1-.08.19-.19.19Z"/><path class="e" d="M131.83,186.42c-1.72,0-3.12-1.4-3.12-3.12,0-.1.08-.19.19-.19s.19.08.19.19c0,1.51,1.23,2.75,2.75,2.75.1,0,.19.08.19.19s-.08.19-.19.19Z"/><path class="e" d="M150.68,186.42h-18.8c-.1,0-.19-.08-.19-.19s.08-.19.19-.19h18.8c.1,0,.19.08.19.19s-.08.19-.19.19Z"/><path class="e" d="M150.63,186.42c-.1,0-.19-.08-.19-.19s.08-.19.19-.19c1.51,0,2.75-1.23,2.75-2.75,0-.1.08-.19.19-.19s.19.08.19.19c0,1.72-1.4,3.12-3.12,3.12Z"/><path class="e" d="M153.56,183.53c-.1,0-.19-.08-.19-.19v-17.03c0-.1.08-.19.19-.19s.19.08.19.19v17.03c0,.1-.08.19-.19.19Z"/><path class="e" d="M153.56,166.46c-.1,0-.19-.08-.19-.19,0-1.51-1.23-2.75-2.75-2.75-.1,0-.19-.08-.19-.19s.08-.19.19-.19c1.72,0,3.12,1.4,3.12,3.12,0,.1-.08.19-.19.19Z"/><path class="e" d="M150.68,163.52h-18.8c-.1,0-.19-.08-.19-.19s.08-.19.19-.19h18.8c.1,0,.19.08.19.19s-.08.19-.19.19Z"/><path class="e" d="M152.08,183.53c-.1,0-.19-.08-.19-.19v-17.03c0-.1.08-.19.19-.19s.19.08.19.19v17.03c0,.1-.08.19-.19.19Z"/><path class="e" d="M130.39,183.53c-.1,0-.19-.08-.19-.19v-17.03c0-.1.08-.19.19-.19s.19.08.19.19v17.03c0,.1-.08.19-.19.19Z"/><path class="e" d="M150.63,184.93c-.1,0-.19-.08-.19-.19s.08-.19.19-.19c.69,0,1.26-.56,1.26-1.26,0-.1.08-.19.19-.19s.19.08.19.19c0,.9-.73,1.63-1.63,1.63Z"/><path class="e" d="M150.68,184.93h-18.8c-.1,0-.19-.08-.19-.19s.08-.19.19-.19h18.8c.1,0,.19.08.19.19s-.08.19-.19.19Z"/><path class="e" d="M131.83,184.93c-.9,0-1.63-.73-1.63-1.63,0-.1.08-.19.19-.19s.19.08.19.19c0,.69.56,1.26,1.26,1.26.1,0,.19.08.19.19s-.08.19-.19.19Z"/><path class="e" d="M152.08,166.46c-.1,0-.19-.08-.19-.19,0-.69-.56-1.26-1.26-1.26-.1,0-.19-.08-.19-.19s.08-.19.19-.19c.9,0,1.63.73,1.63,1.63,0,.1-.08.19-.19.19Z"/><path class="e" d="M150.68,165.01h-18.8c-.1,0-.19-.08-.19-.19s.08-.19.19-.19h18.8c.1,0,.19.08.19.19s-.08.19-.19.19Z"/><path class="e" d="M130.39,166.46c-.1,0-.19-.08-.19-.19,0-.9.73-1.63,1.63-1.63.1,0,.19.08.19.19s-.08.19-.19.19c-.69,0-1.26.56-1.26,1.26,0,.1-.08.19-.19.19Z"/><path class="e" d="M73.9,193.03c-.36,0-.65-.29-.65-.65v-41.04c0-.36.29-.65.65-.65s.65.29.65.65v41.04c0,.36-.29.65-.65.65Z"/><path class="e" d="M79.76,193.03c-.36,0-.65-.29-.65-.65v-35.18c0-.36.29-.65.65-.65s.65.29.65.65v35.18c0,.36-.29.65-.65.65Z"/><path class="e" d="M176.46,192.56h-96.7c-.1,0-.19-.08-.19-.19s.08-.19.19-.19h96.7c.1,0,.19.08.19.19s-.08.19-.19.19Z"/><path class="e" d="M214.53,262.92h-105.45c-.1,0-.19-.08-.19-.19s.08-.19.19-.19h105.45c.1,0,.19.08.19.19s-.08.19-.19.19Z"/><path class="e" d="M205.78,390.99h-41.04c-.1,0-.19-.08-.19-.19v-70.36c0-.1.08-.19.19-.19h41.04c.1,0,.19.08.19.19v70.36c0,.1-.08.19-.19.19ZM164.92,390.61h40.67v-69.99h-40.67v69.99Z"/><path class="e" d="M211.64,396.85h-46.91c-.1,0-.19-.08-.19-.19v-5.86c0-.1.08-.19.19-.19s.19.08.19.19v5.68h46.54v-81.71h-46.72c-.1,0-.19-.08-.19-.19s.08-.19.19-.19h46.91c.1,0,.19.08.19.19v82.09c0,.1-.08.19-.19.19Z"/><path class="e" d="M205.78,355.81h-41.04c-.1,0-.19-.08-.19-.19s.08-.19.19-.19h41.04c.1,0,.19.08.19.19s-.08.19-.19.19Z"/><path class="e" d="M164.73,320.63c-.1,0-.19-.08-.19-.19v-5.86c0-.1.08-.19.19-.19s.19.08.19.19v5.86c0,.1-.08.19-.19.19Z"/><path class="e" d="M205.78,390.99h-41.04c-.1,0-.19-.08-.19-.19s.08-.19.19-.19h41.04c.1,0,.19.08.19.19s-.08.19-.19.19Z"/><path class="h" d="M188.19,402.76h-96.42c-.13,0-.23-.1-.23-.23v-93.81c0-.13.1-.23.23-.23h96.42c.13,0,.23.1.23.23v5.86c0,.13-.1.23-.23.23s-.23-.1-.23-.23v-5.63h-95.96v93.35h95.96v-5.63c0-.13.1-.23.23-.23s.23.1.23.23v5.86c0,.13-.1.23-.23.23Z"/><path class="e" d="M129.55,382.24h-26.34c-.1,0-.19-.08-.19-.19v-26.43c0-.1.08-.19.19-.19h26.34c.1,0,.19.08.19.19v26.43c0,.1-.08.19-.19.19ZM103.4,381.87h25.97v-26.06h-25.97v26.06Z"/><path class="h" d="M211.64,116.38h-8.84c-.13,0-.23-.1-.23-.23s.1-.23.23-.23h8.84c.13,0,.23.1.23.23s-.1.23-.23.23Z"/><path class="h" d="M199.17,116.38h-7.35c-.13,0-.23-.1-.23-.23s.1-.23.23-.23h7.35c.13,0,.23.1.23.23s-.1.23-.23.23Z"/><path class="h" d="M179.35,125.23c-.13,0-.23-.1-.23-.23v-8.84c0-.13.1-.23.23-.23h8.84c.13,0,.23.1.23.23s-.1.23-.23.23h-8.61v8.61c0,.13-.1.23-.23.23Z"/><path class="h" d="M179.35,136.21c-.13,0-.23-.1-.23-.23v-7.35c0-.13.1-.23.23-.23s.23.1.23.23v7.35c0,.13-.1.23-.23.23Z"/><path class="h" d="M188.19,148.68h-8.84c-.13,0-.23-.1-.23-.23v-8.84c0-.13.1-.23.23-.23s.23.1.23.23v8.61h8.61c.13,0,.23.1.23.23s-.1.23-.23.23Z"/><path class="h" d="M199.17,148.68h-7.35c-.13,0-.23-.1-.23-.23s.1-.23.23-.23h7.35c.13,0,.23.1.23.23s-.1.23-.23.23Z"/><path class="h" d="M211.64,148.68h-8.84c-.13,0-.23-.1-.23-.23s.1-.23.23-.23h8.61v-8.61c0-.13.1-.23.23-.23s.23.1.23.23v8.84c0,.13-.1.23-.23.23Z"/><path class="h" d="M211.64,136.21c-.13,0-.23-.1-.23-.23v-7.35c0-.13.1-.23.23-.23s.23.1.23.23v7.35c0,.13-.1.23-.23.23Z"/><path class="h" d="M211.64,125.23c-.13,0-.23-.1-.23-.23v-8.84c0-.13.1-.23.23-.23s.23.1.23.23v8.84c0,.13-.1.23-.23.23Z"/><path class="e" d="M109.08,262.92c-.1,0-.19-.08-.19-.19v-23.45c0-.1.08-.19.19-.19s.19.08.19.19v23.45c0,.1-.08.19-.19.19Z"/><circle class="g" cx="155.85" cy="275.91" r="10.28" transform="translate(-125.63 421.45) rotate(-87.88)"/><path class="e" d="M155.85,286.38c-5.77,0-10.47-4.7-10.47-10.47s4.7-10.47,10.47-10.47,10.47,4.7,10.47,10.47-4.7,10.47-10.47,10.47ZM155.85,265.81c-5.57,0-10.1,4.53-10.1,10.1s4.53,10.1,10.1,10.1,10.1-4.53,10.1-10.1-4.53-10.1-10.1-10.1Z"/><path class="e" d="M9.4,564.75H.65c-.36,0-.65-.29-.65-.65s.29-.65.65-.65h8.75c.36,0,.65.29.65.65s-.29.65-.65.65Z"/><circle class="g" cx="129.51" cy="275.91" r="10.28" transform="translate(-150.84 395.49) rotate(-87.96)"/><path class="e" d="M129.51,286.38c-5.77,0-10.47-4.7-10.47-10.47s4.7-10.47,10.47-10.47,10.47,4.7,10.47,10.47-4.7,10.47-10.47,10.47ZM129.51,265.81c-5.57,0-10.1,4.53-10.1,10.1s4.53,10.1,10.1,10.1,10.1-4.53,10.1-10.1-4.53-10.1-10.1-10.1Z"/><path class="e" d="M205.78,634.64H3.54c-.1,0-.19-.08-.19-.19s.08-.19.19-.19h202.24c.1,0,.19.08.19.19s-.08.19-.19.19Z"/><path class="e" d="M202.8,631.66H6.42c-.1,0-.19-.08-.19-.19s.08-.19.19-.19h196.38c.1,0,.19.08.19.19s-.08.19-.19.19Z"/><path class="e" d="M3.54,634.64c-.1,0-.19-.08-.19-.19v-70.36c0-.1.08-.19.19-.19s.19.08.19.19v70.36c0,.1-.08.19-.19.19Z"/><path class="e" d="M6.42,631.66c-.1,0-.19-.08-.19-.19v-67.38c0-.1.08-.19.19-.19s.19.08.19.19v67.38c0,.1-.08.19-.19.19Z"/><path class="e" d="M205.78,634.64c-.1,0-.19-.08-.19-.19v-70.36c0-.1.08-.19.19-.19s.19.08.19.19v70.36c0,.1-.08.19-.19.19Z"/><path class="e" d="M202.8,631.66c-.1,0-.19-.08-.19-.19v-67.38c0-.1.08-.19.19-.19s.19.08.19.19v67.38c0,.1-.08.19-.19.19Z"/><path class="e" d="M211.64,437.06h-23.45c-.1,0-.19-.08-.19-.19v-23.45c0-.1.08-.19.19-.19h23.45c.1,0,.19.08.19.19v23.45c0,.1-.08.19-.19.19ZM188.37,436.68h23.08v-23.08h-23.08v23.08Z"/><path class="e" d="M211.64,542.6h-23.45c-.1,0-.19-.08-.19-.19v-23.45c0-.1.08-.19.19-.19h23.45c.1,0,.19.08.19.19v23.45c0,.1-.08.19-.19.19ZM188.37,542.22h23.08v-23.08h-23.08v23.08Z"/><path class="e" d="M211.64,519.14h-111.4c-.1,0-.19-.08-.19-.19v-82.09c0-.1.08-.19.19-.19h111.4c.1,0,.19.08.19.19v82.09c0,.1-.08.19-.19.19ZM100.42,518.77h111.03v-81.71h-111.03v81.71Z"/><path class="e" d="M129.55,355.81h-26.34c-.1,0-.19-.08-.19-.19v-26.34c0-.1.08-.19.19-.19h26.34c.1,0,.19.08.19.19v26.34c0,.1-.08.19-.19.19ZM103.4,355.43h25.97v-25.96h-25.97v25.96Z"/><path class="g" d="M166.13,226.02c0-5.68-4.6-10.28-10.28-10.28s-10.28,4.6-10.28,10.28,4.6,10.28,10.28,10.28,10.28-4.6,10.28-10.28Z"/><path class="e" d="M155.85,236.49c-5.77,0-10.47-4.7-10.47-10.47s4.7-10.47,10.47-10.47,10.47,4.7,10.47,10.47-4.7,10.47-10.47,10.47ZM155.85,215.92c-5.57,0-10.1,4.53-10.1,10.1s4.53,10.1,10.1,10.1,10.1-4.53,10.1-10.1-4.53-10.1-10.1-10.1Z"/><path class="g" d="M139.79,226.02c0-5.68-4.6-10.28-10.28-10.28s-10.28,4.6-10.28,10.28,4.6,10.28,10.28,10.28,10.28-4.6,10.28-10.28Z"/><path class="e" d="M129.51,236.49c-5.77,0-10.47-4.7-10.47-10.47s4.7-10.47,10.47-10.47,10.47,4.7,10.47,10.47-4.7,10.47-10.47,10.47ZM129.51,215.92c-5.57,0-10.1,4.53-10.1,10.1s4.53,10.1,10.1,10.1,10.1-4.53,10.1-10.1-4.53-10.1-10.1-10.1Z"/><path class="e" d="M29.88,540.83H12.29c-.1,0-.19-.08-.19-.19v-234.54c0-.1.08-.19.19-.19h17.59c.1,0,.19.08.19.19v234.54c0,.1-.08.19-.19.19ZM12.47,540.46h17.22v-234.16H12.47v234.16Z"/><path class="f" d="M123.11,603.09v-8.49h1.3v1.21c.62-.93,1.52-1.4,2.7-1.4.51,0,.98.09,1.41.28.43.18.75.43.96.72.21.3.36.65.45,1.06.05.27.08.73.08,1.4v5.22h-1.44v-5.17c0-.59-.06-1.02-.17-1.32-.11-.29-.31-.52-.6-.7-.29-.17-.62-.26-1-.26-.61,0-1.14.19-1.59.58-.45.39-.67,1.13-.67,2.21v4.64h-1.44ZM114.94,598.85c0,1.09.24,1.9.71,2.44.47.54,1.07.81,1.79.81s1.31-.27,1.78-.82c.47-.54.71-1.37.71-2.49,0-1.05-.24-1.85-.72-2.39-.48-.54-1.07-.81-1.78-.81s-1.32.27-1.79.81c-.47.54-.71,1.35-.71,2.44ZM113.46,598.85c0-1.57.44-2.74,1.31-3.49.73-.63,1.62-.94,2.67-.94,1.17,0,2.12.38,2.86,1.15.74.77,1.11,1.82,1.11,3.17,0,1.09-.16,1.95-.49,2.58-.33.63-.81,1.11-1.43,1.46-.63.35-1.31.52-2.05.52-1.19,0-2.15-.38-2.88-1.14-.73-.76-1.1-1.86-1.1-3.29ZM111.35,599.98l1.42.18c-.15.98-.55,1.74-1.19,2.29-.64.55-1.42.83-2.35.83-1.16,0-2.1-.38-2.8-1.14-.71-.76-1.06-1.85-1.06-3.27,0-.92.15-1.72.46-2.41.3-.69.77-1.2,1.39-1.55.62-.34,1.3-.52,2.03-.52.92,0,1.68.23,2.26.7.59.47.96,1.13,1.13,1.99l-1.4.22c-.13-.57-.37-1-.71-1.29-.34-.29-.75-.43-1.23-.43-.73,0-1.31.26-1.77.78-.45.52-.68,1.34-.68,2.47s.22,1.97.66,2.49c.44.52,1.01.78,1.71.78.56,0,1.04-.17,1.42-.52.38-.35.62-.88.72-1.6ZM102.14,603.09v-11.72h1.44v11.72h-1.44ZM98.49,598.83c-.52.21-1.31.39-2.35.54-.59.09-1.01.18-1.26.29-.25.11-.43.26-.57.47-.13.21-.2.43-.2.68,0,.38.15.7.44.96.29.26.72.38,1.28.38s1.05-.12,1.48-.36c.43-.24.75-.57.95-1,.15-.33.23-.81.23-1.44v-.53ZM98.61,602.04c-.53.45-1.05.77-1.54.96-.49.19-1.02.28-1.59.28-.93,0-1.65-.23-2.15-.68-.5-.46-.75-1.04-.75-1.75,0-.42.09-.8.28-1.14.19-.34.44-.62.74-.83.31-.21.65-.36,1.04-.47.28-.07.71-.15,1.28-.22,1.16-.14,2.02-.3,2.57-.5,0-.2,0-.32,0-.38,0-.59-.14-1-.41-1.24-.37-.33-.91-.49-1.64-.49-.68,0-1.18.12-1.5.36-.32.24-.56.66-.72,1.26l-1.41-.19c.13-.6.34-1.09.63-1.46.29-.37.72-.66,1.27-.86.55-.2,1.2-.3,1.93-.3s1.31.08,1.77.26c.45.17.79.39,1,.64.21.26.36.58.45.98.05.25.07.69.07,1.33v1.92c0,1.34.03,2.18.09,2.54.06.35.18.69.36,1.02h-1.5c-.15-.3-.24-.65-.29-1.05ZM83.81,601.71h2.92c.5,0,.85-.02,1.06-.06.36-.06.66-.17.9-.32.24-.15.44-.37.59-.65.15-.29.23-.61.23-.99,0-.44-.11-.82-.34-1.14-.22-.32-.53-.55-.93-.68-.4-.13-.97-.2-1.71-.2h-2.71v4.03ZM83.81,596.3h2.54c.69,0,1.18-.05,1.48-.14.39-.12.69-.31.89-.58.2-.27.3-.61.3-1.02,0-.39-.09-.73-.28-1.03-.19-.3-.45-.5-.8-.61-.35-.11-.94-.16-1.78-.16h-2.34v3.54ZM82.26,603.09v-11.72h4.4c.9,0,1.61.12,2.15.36.54.24.96.6,1.27,1.1.31.49.46,1.01.46,1.55,0,.5-.14.97-.41,1.42-.27.44-.68.8-1.23,1.07.71.21,1.25.56,1.64,1.06.38.5.57,1.09.57,1.78,0,.55-.12,1.06-.35,1.53-.23.47-.52.84-.86,1.09-.34.26-.77.45-1.28.58-.51.13-1.14.2-1.89.2h-4.47Z"/><path class="e" d="M117.45,603.57c-1.26,0-2.3-.41-3.09-1.23-.78-.81-1.18-1.99-1.18-3.49,0-1.65.47-2.9,1.41-3.71.78-.67,1.74-1.01,2.86-1.01,1.24,0,2.27.42,3.07,1.23.79.82,1.19,1.95,1.19,3.37,0,1.13-.18,2.04-.52,2.71-.35.67-.87,1.2-1.55,1.58-.67.37-1.4.55-2.19.55ZM117.45,594.69c-.98,0-1.81.29-2.49.88-.8.7-1.21,1.8-1.21,3.28,0,1.35.34,2.39,1.02,3.1.68.71,1.56,1.06,2.68,1.06.69,0,1.33-.16,1.91-.48.57-.32,1.02-.77,1.32-1.34.3-.58.46-1.41.46-2.45,0-1.27-.35-2.27-1.03-2.97-.69-.71-1.56-1.06-2.66-1.06ZM109.23,603.57c-1.24,0-2.25-.41-3.01-1.23-.75-.81-1.14-1.97-1.14-3.46,0-.95.16-1.8.48-2.52.33-.74.84-1.31,1.51-1.68.66-.37,1.39-.55,2.16-.55.98,0,1.8.26,2.44.76.64.51,1.05,1.23,1.23,2.16l.06.29-1.95.3-.06-.26c-.12-.51-.33-.89-.62-1.14-.29-.25-.63-.36-1.04-.36-.65,0-1.15.22-1.55.68-.4.46-.61,1.23-.61,2.28s.2,1.84.59,2.3c.38.45.87.68,1.5.68.5,0,.9-.15,1.22-.45.33-.3.54-.78.63-1.43l.04-.28,1.98.26-.05.29c-.16,1.04-.6,1.87-1.28,2.46-.69.59-1.54.9-2.53.9ZM109.24,594.69c-.68,0-1.31.16-1.89.48-.56.31-.99.79-1.27,1.41-.29.65-.43,1.42-.43,2.29,0,1.34.33,2.37.98,3.07.66.71,1.5,1.05,2.59,1.05.87,0,1.57-.25,2.16-.76.52-.45.87-1.07,1.04-1.83l-.85-.11c-.13.65-.39,1.15-.76,1.49-.43.39-.97.59-1.61.59-.79,0-1.44-.29-1.93-.88-.48-.57-.72-1.46-.72-2.67s.25-2.08.75-2.65c.51-.58,1.17-.88,1.98-.88.55,0,1.02.17,1.41.5.33.28.58.68.73,1.18l.85-.13c-.17-.66-.49-1.16-.96-1.53-.53-.42-1.23-.64-2.09-.64ZM95.48,603.57c-1,0-1.79-.25-2.34-.76-.56-.51-.84-1.17-.84-1.96,0-.46.11-.89.32-1.28.21-.38.49-.69.83-.93.33-.23.71-.4,1.12-.51.3-.08.74-.15,1.32-.22,1.01-.12,1.79-.26,2.32-.42,0-.08,0-.14,0-.17,0-.5-.1-.84-.31-1.03-.31-.28-.8-.42-1.45-.42-.61,0-1.06.1-1.33.3-.27.2-.47.57-.61,1.1l-.06.25-1.96-.27.06-.3c.14-.64.37-1.17.69-1.58.33-.41.8-.73,1.4-.95.58-.21,1.26-.32,2.02-.32s1.38.09,1.87.27c.5.19.87.43,1.12.73.24.29.41.66.51,1.1.05.27.08.72.08,1.39v1.92c0,1.31.03,2.15.09,2.49.05.32.17.63.33.93l.23.42h-2.16l-.08-.16c-.1-.2-.18-.42-.23-.65-.42.32-.84.55-1.24.7-.52.2-1.09.3-1.69.3ZM96.45,595.32c.79,0,1.41.19,1.83.56.33.29.5.78.5,1.45,0,.05,0,.18,0,.38v.2s-.19.06-.19.06c-.57.2-1.43.37-2.63.51-.55.07-.97.14-1.24.21-.35.1-.67.24-.95.43-.27.18-.49.43-.65.73-.17.3-.25.63-.25,1,0,.63.22,1.13.66,1.54.44.4,1.1.61,1.96.61.53,0,1.03-.09,1.49-.26.46-.17.95-.48,1.46-.91l.41-.35.06.53c.03.29.1.56.19.79h.87c-.09-.22-.15-.46-.19-.69-.07-.38-.1-1.22-.1-2.59v-1.92c0-.62-.02-1.05-.07-1.27-.07-.34-.2-.63-.39-.85-.18-.22-.48-.41-.88-.56-.42-.16-.98-.24-1.67-.24s-1.31.1-1.83.28c-.5.18-.89.44-1.15.76-.22.27-.38.62-.5,1.04l.85.12c.17-.54.43-.93.75-1.17.38-.28.92-.41,1.67-.41ZM130.29,603.38h-2.01v-5.45c0-.55-.05-.96-.15-1.21-.09-.23-.25-.41-.48-.55-.24-.15-.53-.22-.86-.22-.55,0-1,.17-1.4.51-.38.33-.57,1-.57,2v4.92h-2.01v-9.06h1.86v.71c.63-.6,1.44-.9,2.42-.9.55,0,1.06.1,1.52.3.48.21.84.48,1.08.82.24.33.4.72.49,1.17.06.29.09.77.09,1.46v5.5ZM128.85,602.81h.87v-4.94c0-.64-.02-1.09-.07-1.34-.08-.37-.21-.69-.4-.96-.18-.25-.47-.46-.85-.63-.39-.17-.83-.25-1.3-.25-1.09,0-1.89.42-2.47,1.27l-.52.78v-1.86h-.73v7.93h.87v-4.35c0-1.18.25-1.98.77-2.43.5-.43,1.09-.65,1.77-.65.43,0,.82.1,1.15.3.34.2.58.49.71.84.13.33.19.79.19,1.42v4.88ZM103.86,603.38h-2.01v-12.29h2.01v12.29ZM102.42,602.81h.87v-11.16h-.87v11.16ZM86.73,603.38h-4.75v-12.29h4.68c.93,0,1.69.13,2.27.38.59.26,1.06.67,1.4,1.21.33.54.5,1.11.5,1.7,0,.55-.15,1.08-.45,1.56-.2.33-.48.62-.82.86.5.23.9.55,1.21.95.42.55.63,1.21.63,1.95,0,.59-.13,1.15-.38,1.66-.25.51-.57.91-.94,1.19-.37.28-.84.49-1.38.63-.53.14-1.19.21-1.96.21ZM82.55,602.81h4.19c.72,0,1.33-.06,1.82-.19.48-.12.87-.3,1.18-.53.3-.23.56-.56.77-.99.21-.43.32-.9.32-1.41,0-.62-.17-1.15-.51-1.6-.34-.45-.84-.77-1.49-.96l-.7-.21.65-.32c.5-.25.87-.57,1.12-.96.25-.4.37-.82.37-1.27,0-.48-.14-.95-.42-1.4-.27-.44-.66-.77-1.14-.99-.5-.22-1.19-.33-2.04-.33h-4.11v11.16ZM95.82,602.44c-.63,0-1.12-.15-1.46-.45-.35-.31-.53-.71-.53-1.17,0-.3.08-.59.25-.84.16-.25.4-.44.69-.57.27-.12.71-.22,1.33-.31,1.02-.15,1.78-.32,2.28-.53l.39-.16v.95c0,.68-.08,1.19-.26,1.56-.23.47-.59.85-1.07,1.12-.47.27-1.02.4-1.62.4ZM98.2,599.23c-.52.16-1.2.3-2.03.42-.56.08-.96.17-1.18.27-.19.08-.34.2-.44.36-.1.16-.15.33-.15.53,0,.3.11.54.34.75.24.21.6.31,1.09.31s.95-.11,1.34-.33c.38-.22.66-.5.83-.87.14-.29.2-.73.2-1.32v-.13ZM117.45,602.38c-.8,0-1.48-.31-2-.91-.52-.59-.78-1.48-.78-2.63s.26-2.04.78-2.63c.53-.6,1.2-.9,2-.9s1.46.3,1.99.91c.52.59.79,1.46.79,2.57,0,1.18-.26,2.08-.78,2.67-.53.61-1.2.91-2,.91ZM117.45,595.88c-.64,0-1.16.23-1.58.71-.43.48-.64,1.24-.64,2.25s.22,1.77.64,2.26c.42.48.94.71,1.58.71s1.15-.24,1.57-.72c.43-.49.64-1.26.64-2.3,0-.97-.22-1.71-.65-2.2-.42-.48-.94-.72-1.57-.72ZM86.73,601.99h-3.2v-4.6h2.99c.78,0,1.37.07,1.8.21.46.15.82.42,1.08.79.26.37.39.81.39,1.3,0,.42-.09.8-.27,1.12-.18.33-.41.58-.69.76-.27.17-.61.29-1,.36-.22.04-.57.06-1.11.06ZM84.1,601.42h2.63c.49,0,.82-.02,1-.05.32-.06.59-.15.8-.28.2-.12.36-.3.49-.55.13-.24.2-.53.2-.85,0-.38-.1-.71-.29-.98-.19-.27-.45-.46-.79-.57-.37-.12-.91-.18-1.63-.18h-2.43v3.46ZM86.35,596.58h-2.82v-4.11h2.63c.88,0,1.49.06,1.87.18.41.13.73.37.95.73.21.34.32.74.32,1.18,0,.47-.12.87-.35,1.19-.24.32-.59.55-1.04.69-.33.1-.84.15-1.56.15ZM84.1,596.01h2.25c.66,0,1.13-.04,1.4-.12.34-.1.58-.26.75-.48.17-.22.24-.5.24-.86s-.08-.62-.24-.88c-.15-.24-.36-.4-.65-.49-.32-.1-.89-.15-1.7-.15h-2.06v2.98Z"/><path class="e" d="M109.08,27.73h-35.18c-.36,0-.65-.29-.65-.65V9.49c0-.36.29-.65.65-.65s.65.29.65.65v16.94h34.53c.36,0,.65.29.65.65s-.29.65-.65.65Z"/><path class="e" d="M73.9,92.88c-.1,0-.19-.08-.19-.19V27.08c0-.1.08-.19.19-.19s.19.08.19.19v65.61c0,.1-.08.19-.19.19Z"/><path class="e" d="M141.28,98.75h-26.34c-.1,0-.19-.08-.19-.19s.08-.19.19-.19h26.34c.1,0,.19.08.19.19s-.08.19-.19.19Z"/><path class="e" d="M128.02,84.97c-5.77,0-10.47-4.7-10.47-10.47s4.7-10.47,10.47-10.47,10.47,4.7,10.47,10.47-4.7,10.47-10.47,10.47ZM128.02,64.4c-5.57,0-10.1,4.53-10.1,10.1s4.53,10.1,10.1,10.1,10.1-4.53,10.1-10.1-4.53-10.1-10.1-10.1Z"/><path class="e" d="M145.37,27.73h-30.43c-.36,0-.65-.29-.65-.65s.29-.65.65-.65h29.78V9.49c0-.36.29-.65.65-.65s.65.29.65.65v17.59c0,.36-.29.65-.65.65Z"/><path class="e" d="M195.17,555.91c-.36,0-.65-.29-.65-.65v-9.96c0-.36.29-.65.65-.65h19.36c.36,0,.65.29.65.65s-.29.65-.65.65h-18.71v9.31c0,.36-.29.65-.65.65Z"/><path class="e" d="M9.4,1.3H.65c-.36,0-.65-.29-.65-.65s.29-.65.65-.65h8.75c.36,0,.65.29.65.65s-.29.65-.65.65Z"/><path class="j" d="M10.89,631.8c-.18,0-.33-.15-.33-.33v-67.38c0-.18.15-.33.33-.33s.33.15.33.33v67.38c0,.18-.15.33-.33.33Z"/><path class="j" d="M16.75,631.8c-.18,0-.33-.15-.33-.33v-67.38c0-.18.15-.33.33-.33s.33.15.33.33v67.38c0,.18-.15.33-.33.33Z"/><path class="j" d="M22.62,631.8c-.18,0-.33-.15-.33-.33v-67.38c0-.18.15-.33.33-.33s.33.15.33.33v67.38c0,.18-.15.33-.33.33Z"/><path class="j" d="M28.48,631.8c-.18,0-.33-.15-.33-.33v-67.38c0-.18.15-.33.33-.33s.33.15.33.33v67.38c0,.18-.15.33-.33.33Z"/><path class="j" d="M34.34,631.8c-.18,0-.33-.15-.33-.33v-67.38c0-.18.15-.33.33-.33s.33.15.33.33v67.38c0,.18-.15.33-.33.33Z"/><path class="j" d="M40.21,631.8c-.18,0-.33-.15-.33-.33v-67.38c0-.18.15-.33.33-.33s.33.15.33.33v67.38c0,.18-.15.33-.33.33Z"/><path class="j" d="M46.07,631.8c-.18,0-.33-.15-.33-.33v-67.38c0-.18.15-.33.33-.33s.33.15.33.33v67.38c0,.18-.15.33-.33.33Z"/><path class="j" d="M51.93,631.8c-.18,0-.33-.15-.33-.33v-67.38c0-.18.15-.33.33-.33s.33.15.33.33v67.38c0,.18-.15.33-.33.33Z"/><path class="j" d="M57.8,631.8c-.18,0-.33-.15-.33-.33v-67.38c0-.18.15-.33.33-.33s.33.15.33.33v67.38c0,.18-.15.33-.33.33Z"/><path class="j" d="M63.66,631.8c-.18,0-.33-.15-.33-.33v-67.38c0-.18.15-.33.33-.33s.33.15.33.33v67.38c0,.18-.15.33-.33.33Z"/><path class="j" d="M69.52,631.8c-.18,0-.33-.15-.33-.33v-67.38c0-.18.15-.33.33-.33s.33.15.33.33v67.38c0,.18-.15.33-.33.33Z"/><path class="j" d="M75.39,631.8c-.18,0-.33-.15-.33-.33v-67.38c0-.18.15-.33.33-.33s.33.15.33.33v67.38c0,.18-.15.33-.33.33Z"/><path class="j" d="M81.25,631.8c-.18,0-.33-.15-.33-.33v-67.38c0-.18.15-.33.33-.33s.33.15.33.33v67.38c0,.18-.15.33-.33.33Z"/><path class="j" d="M87.11,631.8c-.18,0-.33-.15-.33-.33v-67.38c0-.18.15-.33.33-.33s.33.15.33.33v67.38c0,.18-.15.33-.33.33Z"/><path class="j" d="M92.98,631.8c-.18,0-.33-.15-.33-.33v-67.38c0-.18.15-.33.33-.33s.33.15.33.33v67.38c0,.18-.15.33-.33.33Z"/><path class="j" d="M98.84,631.8c-.18,0-.33-.15-.33-.33v-67.38c0-.18.15-.33.33-.33s.33.15.33.33v67.38c0,.18-.15.33-.33.33Z"/><path class="j" d="M104.7,631.8c-.18,0-.33-.15-.33-.33v-67.38c0-.18.15-.33.33-.33s.33.15.33.33v67.38c0,.18-.15.33-.33.33Z"/><path class="j" d="M110.57,631.8c-.18,0-.33-.15-.33-.33v-67.38c0-.18.15-.33.33-.33s.33.15.33.33v67.38c0,.18-.15.33-.33.33Z"/><path class="j" d="M116.43,631.8c-.18,0-.33-.15-.33-.33v-67.38c0-.18.15-.33.33-.33s.33.15.33.33v67.38c0,.18-.15.33-.33.33Z"/><path class="j" d="M122.29,631.8c-.18,0-.33-.15-.33-.33v-67.38c0-.18.15-.33.33-.33s.33.15.33.33v67.38c0,.18-.15.33-.33.33Z"/><path class="j" d="M128.16,631.8c-.18,0-.33-.15-.33-.33v-67.38c0-.18.15-.33.33-.33s.33.15.33.33v67.38c0,.18-.15.33-.33.33Z"/><path class="j" d="M134.02,631.8c-.18,0-.33-.15-.33-.33v-67.38c0-.18.15-.33.33-.33s.33.15.33.33v67.38c0,.18-.15.33-.33.33Z"/><path class="j" d="M139.88,631.8c-.18,0-.33-.15-.33-.33v-67.38c0-.18.15-.33.33-.33s.33.15.33.33v67.38c0,.18-.15.33-.33.33Z"/><path class="j" d="M145.75,631.8c-.18,0-.33-.15-.33-.33v-67.38c0-.18.15-.33.33-.33s.33.15.33.33v67.38c0,.18-.15.33-.33.33Z"/><path class="j" d="M151.61,631.8c-.18,0-.33-.15-.33-.33v-67.38c0-.18.15-.33.33-.33s.33.15.33.33v67.38c0,.18-.15.33-.33.33Z"/><path class="j" d="M157.47,631.8c-.18,0-.33-.15-.33-.33v-67.38c0-.18.15-.33.33-.33s.33.15.33.33v67.38c0,.18-.15.33-.33.33Z"/><path class="j" d="M163.34,631.8c-.18,0-.33-.15-.33-.33v-67.38c0-.18.15-.33.33-.33s.33.15.33.33v67.38c0,.18-.15.33-.33.33Z"/><path class="j" d="M169.2,631.8c-.18,0-.33-.15-.33-.33v-67.38c0-.18.15-.33.33-.33s.33.15.33.33v67.38c0,.18-.15.33-.33.33Z"/><path class="j" d="M175.06,631.8c-.18,0-.33-.15-.33-.33v-67.38c0-.18.15-.33.33-.33s.33.15.33.33v67.38c0,.18-.15.33-.33.33Z"/><path class="j" d="M180.93,631.8c-.18,0-.33-.15-.33-.33v-67.38c0-.18.15-.33.33-.33s.33.15.33.33v67.38c0,.18-.15.33-.33.33Z"/><path class="j" d="M186.79,631.8c-.18,0-.33-.15-.33-.33v-67.38c0-.18.15-.33.33-.33s.33.15.33.33v67.38c0,.18-.15.33-.33.33Z"/><path class="j" d="M192.65,631.8c-.18,0-.33-.15-.33-.33v-67.38c0-.18.15-.33.33-.33s.33.15.33.33v67.38c0,.18-.15.33-.33.33Z"/><path class="j" d="M198.52,631.8c-.18,0-.33-.15-.33-.33v-67.38c0-.18.15-.33.33-.33s.33.15.33.33v67.38c0,.18-.15.33-.33.33Z"/><path class="f" d="M157.46,118.24c0,1.09.24,1.9.71,2.44.47.54,1.07.81,1.79.81s1.31-.27,1.78-.82c.47-.54.71-1.37.71-2.49,0-1.05-.24-1.85-.72-2.39-.48-.54-1.07-.81-1.78-.81s-1.32.27-1.79.81c-.47.54-.71,1.35-.71,2.44ZM155.98,118.24c0-1.57.44-2.74,1.31-3.49.73-.63,1.62-.94,2.67-.94,1.17,0,2.12.38,2.86,1.15.74.77,1.11,1.82,1.11,3.17,0,1.09-.16,1.95-.49,2.58-.33.63-.81,1.11-1.43,1.46-.63.35-1.31.52-2.05.52-1.19,0-2.15-.38-2.88-1.14-.73-.76-1.1-1.86-1.1-3.29ZM148.42,112.73c0-.55.15-1,.46-1.33.3-.33.69-.5,1.17-.5.33,0,.78.14,1.35.43.31.16.56.24.75.24.17,0,.3-.05.39-.14.09-.09.15-.28.19-.56h1.04c-.02.61-.17,1.06-.46,1.37-.29.3-.66.46-1.11.46-.34,0-.78-.15-1.33-.45-.36-.19-.62-.29-.78-.29-.18,0-.33.06-.44.19-.12.13-.17.32-.17.57h-1.06ZM147.4,122.48v-8.49h1.3v1.21c.62-.93,1.52-1.4,2.7-1.4.51,0,.98.09,1.41.28.43.18.75.43.96.72.21.3.36.65.45,1.06.05.27.08.73.08,1.4v5.22h-1.44v-5.17c0-.59-.06-1.02-.17-1.32-.11-.29-.31-.52-.6-.7-.29-.17-.62-.26-1-.26-.61,0-1.14.19-1.59.58-.45.39-.67,1.13-.67,2.21v4.64h-1.44ZM143.72,118.22c-.52.21-1.31.39-2.35.54-.59.09-1.01.18-1.26.29-.25.11-.43.26-.57.47-.13.21-.2.43-.2.68,0,.38.15.7.44.96.29.26.72.38,1.28.38s1.05-.12,1.48-.36c.43-.24.75-.57.95-1,.15-.33.23-.81.23-1.44v-.53ZM143.84,121.43c-.53.45-1.05.77-1.54.96-.49.19-1.02.28-1.59.28-.93,0-1.65-.23-2.15-.68-.5-.46-.75-1.04-.75-1.75,0-.42.09-.8.28-1.14.19-.34.44-.62.74-.83.31-.21.65-.37,1.04-.47.28-.07.71-.15,1.28-.22,1.16-.14,2.02-.3,2.57-.5,0-.2,0-.32,0-.38,0-.59-.14-1-.41-1.24-.37-.33-.91-.49-1.64-.49-.68,0-1.18.12-1.5.36-.32.24-.56.66-.72,1.26l-1.41-.19c.13-.6.34-1.09.63-1.46.29-.37.72-.66,1.27-.86.55-.2,1.2-.3,1.93-.3s1.31.09,1.77.26c.45.17.79.39,1,.64.21.26.36.58.45.98.05.25.07.69.07,1.33v1.92c0,1.34.03,2.18.09,2.54.06.35.18.69.36,1.02h-1.5c-.15-.3-.25-.65-.29-1.05ZM129.05,121.1h2.92c.5,0,.85-.02,1.06-.06.36-.06.66-.17.9-.32.24-.15.44-.37.59-.65.15-.29.23-.61.23-.99,0-.44-.11-.82-.34-1.14-.22-.32-.53-.55-.93-.68-.4-.13-.97-.2-1.71-.2h-2.71v4.03ZM129.05,115.68h2.53c.69,0,1.18-.05,1.48-.14.39-.12.69-.31.89-.58.2-.27.3-.61.3-1.02,0-.39-.09-.73-.28-1.03-.19-.3-.45-.5-.8-.61-.35-.11-.94-.16-1.78-.16h-2.34v3.54ZM127.49,122.48v-11.72h4.4c.9,0,1.61.12,2.15.36.54.24.96.6,1.27,1.1.31.49.46,1.01.46,1.55,0,.5-.14.97-.41,1.42-.27.44-.68.8-1.23,1.07.71.21,1.25.56,1.63,1.06.38.5.57,1.09.57,1.78,0,.55-.12,1.06-.35,1.53-.23.47-.52.84-.86,1.09-.34.26-.77.45-1.28.58-.51.13-1.14.2-1.89.2h-4.47Z"/><path class="e" d="M159.96,122.96c-1.26,0-2.3-.41-3.09-1.23-.78-.81-1.18-1.99-1.18-3.49,0-1.65.47-2.9,1.41-3.71.78-.67,1.74-1.01,2.86-1.01,1.24,0,2.27.42,3.07,1.23.79.82,1.19,1.95,1.19,3.37,0,1.13-.18,2.05-.52,2.71-.35.67-.87,1.2-1.55,1.58-.67.37-1.4.56-2.19.56ZM159.96,114.08c-.98,0-1.81.29-2.49.88-.8.7-1.21,1.8-1.21,3.28,0,1.35.34,2.39,1.02,3.1.68.71,1.56,1.06,2.68,1.06.69,0,1.33-.16,1.91-.48.57-.32,1.02-.77,1.32-1.34.3-.58.46-1.41.46-2.45,0-1.27-.35-2.27-1.03-2.97-.69-.71-1.56-1.06-2.66-1.06ZM140.71,122.96c-1,0-1.79-.25-2.34-.76-.56-.51-.84-1.17-.84-1.96,0-.46.11-.89.32-1.28.21-.38.49-.69.83-.93.33-.22.71-.4,1.12-.51.3-.08.74-.15,1.32-.22,1.01-.12,1.79-.26,2.32-.42,0-.08,0-.14,0-.17,0-.5-.1-.84-.31-1.03-.31-.28-.8-.42-1.45-.42-.61,0-1.06.1-1.33.3-.27.2-.47.57-.61,1.1l-.06.24-1.96-.27.06-.3c.14-.64.37-1.17.69-1.58.33-.41.8-.73,1.4-.95.58-.21,1.26-.32,2.02-.32s1.38.09,1.87.27c.5.19.88.43,1.12.73.24.29.41.66.51,1.1.05.27.08.72.08,1.39v1.92c0,1.32.03,2.15.09,2.49.06.32.17.63.33.93l.23.42h-2.16l-.08-.16c-.1-.2-.18-.42-.23-.65-.42.32-.84.55-1.24.7-.52.2-1.09.3-1.69.3ZM141.68,114.71c.79,0,1.41.19,1.83.56.33.29.5.78.5,1.45,0,.05,0,.18,0,.38v.2s-.19.06-.19.06c-.57.2-1.43.37-2.63.51-.55.07-.97.14-1.24.21-.35.1-.67.24-.95.43-.27.18-.49.43-.66.73-.17.3-.25.63-.25,1,0,.63.22,1.13.66,1.54.44.4,1.1.61,1.96.61.53,0,1.03-.09,1.49-.26.46-.17.95-.48,1.46-.91l.41-.35.06.53c.03.3.1.56.19.79h.87c-.09-.22-.15-.45-.19-.69-.06-.37-.1-1.22-.1-2.59v-1.92c0-.62-.02-1.05-.07-1.27-.07-.34-.21-.63-.39-.85-.18-.22-.48-.41-.88-.56-.42-.16-.98-.24-1.67-.24s-1.31.1-1.83.28c-.5.18-.89.44-1.15.77-.22.27-.38.62-.5,1.04l.85.12c.17-.54.42-.93.75-1.17.38-.28.92-.41,1.67-.41ZM154.59,122.77h-2.01v-5.45c0-.55-.05-.96-.15-1.21-.09-.23-.25-.41-.48-.56-.24-.15-.52-.22-.86-.22-.55,0-1.01.17-1.4.51-.38.33-.57,1-.57,2v4.92h-2.01v-9.06h1.86v.71c.63-.6,1.44-.9,2.42-.9.55,0,1.06.1,1.52.3.47.2.84.48,1.08.82.24.33.4.72.49,1.17.06.29.09.76.09,1.46v5.5ZM153.15,122.2h.87v-4.94c0-.65-.03-1.1-.07-1.34-.08-.37-.21-.69-.4-.95-.18-.25-.47-.47-.84-.63-.39-.17-.83-.25-1.3-.25-1.09,0-1.89.42-2.47,1.27l-.52.78v-1.86h-.73v7.92h.87v-4.35c0-1.18.25-1.98.77-2.43.5-.43,1.09-.65,1.77-.65.43,0,.82.1,1.15.3.34.21.58.49.71.84.13.33.19.79.19,1.42v4.88ZM131.96,122.77h-4.75v-12.29h4.68c.93,0,1.69.13,2.27.38.59.26,1.06.67,1.4,1.21.33.54.5,1.11.5,1.7,0,.55-.15,1.08-.45,1.56-.2.33-.48.62-.82.86.5.23.9.55,1.21.95.42.55.63,1.2.63,1.95,0,.59-.13,1.15-.38,1.66-.25.51-.57.91-.94,1.19-.37.28-.83.49-1.38.63-.54.14-1.19.2-1.96.2ZM127.78,122.2h4.19c.72,0,1.33-.06,1.82-.19.48-.12.87-.3,1.18-.53.3-.23.56-.56.78-.99.21-.43.32-.9.32-1.41,0-.62-.17-1.15-.51-1.6-.34-.45-.84-.77-1.49-.96l-.7-.2.65-.32c.5-.25.87-.57,1.12-.97.25-.4.37-.81.37-1.27,0-.48-.14-.95-.42-1.4-.28-.45-.65-.77-1.15-.99-.5-.22-1.19-.33-2.04-.33h-4.11v11.16ZM141.06,121.83c-.63,0-1.12-.15-1.46-.45-.35-.31-.53-.71-.53-1.17,0-.31.08-.59.25-.84.16-.25.4-.45.69-.57.27-.12.7-.22,1.33-.31,1.02-.15,1.79-.32,2.28-.53l.39-.16v.95c0,.68-.08,1.19-.26,1.56-.23.47-.59.85-1.07,1.12-.47.27-1.02.4-1.62.4ZM143.43,118.62c-.51.16-1.18.3-2.03.42-.56.08-.96.17-1.18.27-.19.08-.34.2-.44.36-.1.16-.15.33-.15.53,0,.3.11.55.34.75.24.21.6.31,1.09.31s.95-.11,1.34-.33c.38-.22.66-.5.84-.87.14-.28.2-.73.2-1.32v-.13ZM159.96,121.77c-.8,0-1.48-.31-2-.91-.52-.59-.78-1.48-.78-2.63s.26-2.04.78-2.63c.53-.6,1.2-.9,2-.9s1.46.31,1.99.91c.52.59.79,1.46.79,2.57,0,1.18-.26,2.08-.78,2.67-.53.61-1.2.91-2,.91ZM159.96,115.27c-.64,0-1.16.23-1.58.71-.42.48-.64,1.24-.64,2.25s.22,1.77.64,2.26c.42.48.94.72,1.58.72s1.15-.24,1.57-.72c.43-.49.64-1.26.64-2.3,0-.97-.22-1.71-.65-2.2-.42-.48-.94-.72-1.57-.72ZM131.96,121.38h-3.2v-4.6h2.99c.78,0,1.38.07,1.8.21.46.15.82.42,1.08.79.26.37.39.81.39,1.3,0,.42-.09.8-.27,1.12-.18.33-.41.58-.69.76-.27.17-.6.29-1,.36-.22.04-.58.06-1.11.06ZM129.33,120.81h2.63c.48,0,.82-.02,1-.05.32-.06.59-.15.8-.28.2-.12.36-.31.49-.55.13-.25.2-.53.2-.85,0-.38-.09-.7-.29-.98-.19-.27-.45-.46-.79-.57-.37-.12-.91-.18-1.63-.18h-2.43v3.46ZM131.58,115.97h-2.82v-4.11h2.63c.88,0,1.49.06,1.87.18.41.13.73.37.95.73.21.34.32.74.32,1.18,0,.47-.12.87-.35,1.19-.24.32-.59.55-1.04.69-.33.1-.84.15-1.56.15ZM129.33,115.4h2.25c.66,0,1.13-.04,1.4-.12.34-.1.58-.26.75-.48.16-.22.24-.5.24-.85s-.08-.62-.24-.88c-.15-.24-.36-.4-.65-.49-.32-.1-.89-.15-1.7-.15h-2.06v2.97ZM149.77,113.02h-1.63v-.28c0-.63.17-1.14.53-1.52.36-.39.82-.59,1.37-.59.38,0,.86.15,1.48.46.34.17.53.21.62.21.09,0,.15-.02.19-.05,0,0,.07-.08.11-.4l.03-.25h1.58v.29c-.03.68-.21,1.2-.55,1.56-.35.36-.79.54-1.31.54-.39,0-.87-.16-1.46-.48-.43-.23-.6-.25-.65-.25-.1,0-.17.03-.23.09-.07.08-.1.2-.1.38v.29ZM148.72,112.45h.5c.03-.19.11-.35.22-.48.16-.18.39-.28.65-.28.22,0,.51.1.92.32.51.27.91.41,1.19.41.37,0,.67-.12.9-.37.19-.2.31-.5.36-.89h-.5c-.05.21-.12.36-.23.47-.28.29-.73.33-1.47-.04-.53-.27-.94-.4-1.22-.4-.4,0-.71.13-.96.4-.21.22-.33.5-.37.85Z"/><path class="f" d="M152.48,417.94h4.74c-.06-.71-.25-1.25-.54-1.61-.46-.55-1.05-.83-1.78-.83-.66,0-1.22.22-1.67.66-.45.44-.7,1.03-.75,1.78ZM157.21,420.27l1.49.18c-.23.87-.67,1.54-1.3,2.02-.63.48-1.44.72-2.43.72-1.24,0-2.23-.38-2.95-1.15-.73-.77-1.09-1.84-1.09-3.22s.37-2.54,1.1-3.33c.74-.79,1.69-1.18,2.86-1.18s2.06.39,2.78,1.16c.72.77,1.08,1.86,1.08,3.26,0,.09,0,.21,0,.38h-6.33c.05.93.32,1.65.79,2.14.47.5,1.07.74,1.78.74.53,0,.98-.14,1.35-.42.37-.28.67-.72.89-1.33ZM149.99,421.72l.21,1.27c-.41.09-.77.13-1.09.13-.52,0-.93-.08-1.22-.25-.29-.17-.49-.38-.61-.65-.12-.27-.18-.84-.18-1.7v-4.89h-1.06v-1.12h1.06v-2.1l1.43-.86v2.97h1.45v1.12h-1.45v4.97c0,.41.03.67.08.79.05.12.13.21.25.28.11.07.28.1.49.1.16,0,.37-.02.63-.06ZM137.74,423v-8.49h1.3v1.21c.62-.93,1.52-1.4,2.7-1.4.51,0,.98.09,1.41.28.43.18.75.43.96.72.21.3.36.65.45,1.06.05.27.08.73.08,1.4v5.22h-1.44v-5.17c0-.59-.06-1.02-.17-1.32-.11-.29-.31-.52-.6-.7-.29-.17-.62-.26-1-.26-.61,0-1.14.19-1.59.58-.45.39-.67,1.13-.67,2.21v4.64h-1.44ZM129.72,417.94h4.74c-.06-.71-.25-1.25-.54-1.61-.46-.55-1.05-.83-1.78-.83-.66,0-1.22.22-1.67.66-.45.44-.7,1.03-.75,1.78ZM134.45,420.27l1.49.18c-.23.87-.67,1.54-1.3,2.02-.63.48-1.44.72-2.43.72-1.24,0-2.23-.38-2.95-1.15-.73-.77-1.09-1.84-1.09-3.22s.37-2.54,1.1-3.33c.74-.79,1.69-1.18,2.86-1.18s2.06.39,2.78,1.16c.72.77,1.08,1.86,1.08,3.26,0,.09,0,.21,0,.38h-6.33c.05.93.32,1.65.79,2.14.47.5,1.07.74,1.78.74.53,0,.98-.14,1.35-.42.37-.28.67-.72.89-1.33ZM125,423v-8.49h1.44v8.49h-1.44ZM125,412.94v-1.66h1.44v1.66h-1.44ZM117.2,418.69c0,1.02.14,1.75.42,2.21.45.74,1.07,1.11,1.84,1.11.63,0,1.17-.27,1.63-.82.46-.55.69-1.36.69-2.44s-.22-1.93-.66-2.45c-.44-.53-.97-.79-1.6-.79s-1.17.27-1.63.82c-.46.55-.69,1.34-.69,2.37ZM117.21,423h-1.34v-11.72h1.44v4.18c.61-.76,1.38-1.14,2.33-1.14.52,0,1.02.11,1.48.32.47.21.85.51,1.15.89.3.38.54.84.71,1.38.17.54.26,1.11.26,1.73,0,1.45-.36,2.58-1.08,3.37-.72.79-1.58,1.19-2.59,1.19s-1.79-.42-2.36-1.26v1.06ZM102.25,423v-8.49h1.29v1.19c.27-.42.62-.75,1.06-1,.44-.25.95-.38,1.51-.38.63,0,1.14.13,1.55.39.4.26.69.63.85,1.1.67-.99,1.55-1.49,2.62-1.49.84,0,1.49.23,1.94.7.45.47.68,1.18.68,2.15v5.83h-1.43v-5.35c0-.58-.05-.99-.14-1.24-.09-.25-.26-.46-.51-.61-.25-.15-.53-.23-.86-.23-.6,0-1.09.2-1.49.6-.39.4-.59,1.03-.59,1.91v4.93h-1.44v-5.52c0-.64-.12-1.12-.35-1.44-.23-.32-.62-.48-1.15-.48-.4,0-.78.11-1.12.32-.34.21-.59.52-.75.94-.15.41-.23,1-.23,1.77v4.41h-1.44ZM98.56,418.74c-.52.21-1.31.39-2.35.54-.59.09-1.01.18-1.26.29-.25.11-.43.26-.57.47-.13.21-.2.43-.2.68,0,.38.15.7.44.96.29.26.72.38,1.28.38s1.05-.12,1.48-.36c.43-.24.75-.57.95-1,.15-.33.23-.8.23-1.44v-.53ZM98.68,421.96c-.53.45-1.05.77-1.54.96-.49.19-1.02.28-1.59.28-.93,0-1.65-.23-2.15-.68-.5-.46-.75-1.04-.75-1.75,0-.42.09-.8.28-1.14.19-.34.44-.62.74-.83.31-.21.65-.36,1.04-.47.28-.07.71-.15,1.28-.22,1.16-.14,2.02-.3,2.57-.5,0-.2,0-.32,0-.38,0-.59-.14-1-.41-1.24-.37-.33-.91-.49-1.64-.49-.68,0-1.18.12-1.5.36-.32.24-.56.66-.72,1.26l-1.41-.19c.13-.6.34-1.09.63-1.46.29-.37.72-.66,1.27-.86.55-.2,1.2-.3,1.93-.3s1.31.09,1.77.26c.45.17.79.39,1,.64.21.26.36.58.45.98.05.25.07.69.07,1.33v1.92c0,1.34.03,2.18.09,2.54.06.35.18.69.36,1.02h-1.5c-.15-.3-.24-.65-.29-1.05ZM84.97,418.76c0,1.09.24,1.9.71,2.44.47.54,1.07.81,1.79.81s1.31-.27,1.78-.82c.47-.54.71-1.37.71-2.49,0-1.05-.24-1.85-.72-2.39-.48-.54-1.07-.81-1.78-.81s-1.32.27-1.79.81c-.47.54-.71,1.35-.71,2.44ZM83.5,418.76c0-1.57.44-2.74,1.31-3.49.73-.63,1.62-.94,2.67-.94,1.17,0,2.12.38,2.86,1.15.74.76,1.11,1.82,1.11,3.17,0,1.09-.16,1.95-.49,2.58-.33.63-.81,1.11-1.43,1.46-.63.35-1.31.52-2.05.52-1.19,0-2.15-.38-2.88-1.14-.73-.76-1.1-1.86-1.1-3.29ZM74.92,423v-8.49h1.3v1.21c.62-.93,1.52-1.4,2.7-1.4.51,0,.98.09,1.41.28.43.18.75.43.96.72.21.3.36.65.45,1.06.05.27.08.73.08,1.4v5.22h-1.44v-5.17c0-.59-.06-1.02-.17-1.32-.11-.29-.31-.52-.6-.7-.29-.17-.62-.26-1-.26-.61,0-1.14.19-1.59.58-.44.39-.67,1.13-.67,2.21v4.64h-1.44ZM66.76,418.76c0,1.09.24,1.9.71,2.44.47.54,1.07.81,1.79.81s1.31-.27,1.78-.82c.47-.54.71-1.37.71-2.49,0-1.05-.24-1.85-.72-2.39-.48-.54-1.07-.81-1.78-.81s-1.32.27-1.79.81c-.47.54-.71,1.35-.71,2.44ZM65.28,418.76c0-1.57.44-2.74,1.31-3.49.73-.63,1.62-.94,2.67-.94,1.17,0,2.12.38,2.86,1.15.74.76,1.11,1.82,1.11,3.17,0,1.09-.16,1.95-.49,2.58-.33.63-.81,1.11-1.43,1.46-.63.35-1.31.52-2.05.52-1.19,0-2.15-.38-2.88-1.14-.73-.76-1.1-1.86-1.1-3.29ZM52.31,423v-11.72h2.33l2.77,8.3c.26.77.44,1.35.56,1.73.13-.43.34-1.05.62-1.88l2.81-8.16h2.09v11.72h-1.5v-9.81l-3.41,9.81h-1.4l-3.39-9.98v9.98h-1.5Z"/><path class="e" d="M154.96,423.48c-1.32,0-2.38-.42-3.16-1.24-.78-.82-1.17-1.96-1.17-3.41s.4-2.68,1.18-3.52c.79-.84,1.82-1.27,3.07-1.27s2.22.42,2.99,1.25c.77.82,1.16,1.99,1.16,3.46,0,.09,0,.22,0,.39v.27h-6.31c.08.71.31,1.27.69,1.66.42.44.94.66,1.57.66.47,0,.86-.12,1.18-.36.33-.24.59-.64.79-1.19l.08-.21,2.04.25-.09.32c-.25.93-.72,1.66-1.41,2.17-.68.51-1.56.78-2.6.78ZM154.88,414.6c-1.1,0-1.97.36-2.66,1.09-.68.73-1.03,1.79-1.03,3.13s.34,2.32,1.01,3.02c.68.71,1.58,1.06,2.75,1.06.92,0,1.68-.22,2.26-.66.5-.38.87-.9,1.1-1.56l-.93-.12c-.23.55-.53.97-.9,1.25-.42.31-.93.47-1.52.47-.78,0-1.45-.28-1.98-.83-.52-.54-.81-1.33-.87-2.32l-.02-.3h6.36s0-.07,0-.1c0-1.32-.34-2.35-1-3.07-.67-.72-1.51-1.07-2.57-1.07ZM132.2,423.48c-1.32,0-2.38-.42-3.16-1.24-.78-.81-1.17-1.96-1.17-3.41s.4-2.68,1.18-3.52c.79-.84,1.82-1.27,3.07-1.27s2.22.42,2.99,1.25c.77.82,1.16,1.99,1.16,3.46,0,.09,0,.22,0,.39v.28h-6.31c.08.71.31,1.27.69,1.66.42.44.94.66,1.57.66.47,0,.86-.12,1.18-.36.33-.24.59-.64.79-1.19l.08-.21,2.04.25-.09.32c-.25.93-.72,1.66-1.41,2.17-.68.51-1.56.78-2.6.78ZM132.12,414.6c-1.1,0-1.97.36-2.66,1.09-.68.73-1.03,1.79-1.03,3.13s.34,2.32,1.01,3.02c.68.71,1.58,1.06,2.75,1.06.92,0,1.68-.22,2.26-.66.5-.38.87-.9,1.1-1.56l-.93-.12c-.23.55-.53.97-.9,1.25-.42.31-.93.47-1.52.47-.79,0-1.45-.28-1.98-.83-.52-.54-.81-1.33-.87-2.32l-.02-.3h6.36s0-.07,0-.1c0-1.32-.34-2.35-1-3.07-.67-.72-1.51-1.07-2.58-1.07ZM119.57,423.48c-.82,0-1.52-.26-2.08-.77v.58h-1.9v-12.29h2.01v3.77c.57-.48,1.26-.73,2.04-.73.56,0,1.1.11,1.6.34.51.23.93.56,1.26.97.32.41.58.9.76,1.47.18.56.27,1.17.27,1.81,0,1.52-.39,2.72-1.15,3.56-.77.85-1.72,1.28-2.8,1.28ZM116.93,421.02l.52.76c.52.76,1.21,1.13,2.12,1.13s1.71-.36,2.38-1.1c.67-.74,1.01-1.81,1.01-3.18,0-.58-.08-1.13-.24-1.64-.16-.5-.38-.94-.66-1.29-.27-.34-.62-.61-1.05-.81-.43-.19-.89-.29-1.37-.29-.86,0-1.55.34-2.1,1.04l-.51.63v-4.71h-.87v11.16h.77v-1.7ZM95.55,423.48c-1,0-1.79-.25-2.34-.76-.56-.51-.84-1.17-.84-1.96,0-.46.11-.89.32-1.28.21-.38.49-.69.83-.92.33-.22.71-.4,1.12-.51.3-.08.73-.15,1.32-.22,1.01-.12,1.79-.26,2.32-.42,0-.08,0-.14,0-.17,0-.5-.1-.84-.31-1.03-.31-.28-.8-.42-1.45-.42-.61,0-1.06.1-1.33.3-.27.2-.47.57-.61,1.1l-.06.25-1.96-.27.06-.3c.14-.64.37-1.17.69-1.58.33-.41.8-.73,1.4-.95.58-.21,1.26-.32,2.02-.32s1.38.09,1.87.27c.5.19.87.43,1.12.73.24.29.41.66.51,1.1.05.27.08.72.08,1.39v1.92c0,1.32.03,2.16.09,2.49.06.32.17.63.33.93l.23.42h-2.16l-.08-.16c-.1-.2-.18-.42-.23-.65-.42.32-.84.55-1.24.7-.52.2-1.09.3-1.69.3ZM96.52,415.23c.79,0,1.41.19,1.83.56.33.29.5.78.5,1.45,0,.05,0,.18,0,.38v.2s-.19.06-.19.06c-.57.2-1.43.37-2.63.51-.56.07-.98.14-1.24.21-.35.1-.67.24-.95.43-.27.18-.49.42-.66.73-.16.3-.25.64-.25,1,0,.63.22,1.13.66,1.54.44.41,1.1.61,1.96.61.53,0,1.03-.09,1.49-.26.46-.17.95-.48,1.46-.91l.41-.35.06.53c.03.3.1.56.19.79h.87c-.09-.22-.15-.45-.19-.69-.06-.37-.1-1.22-.1-2.59v-1.92c0-.62-.02-1.05-.07-1.27-.07-.34-.21-.63-.39-.85-.18-.22-.48-.41-.88-.56-.42-.16-.98-.24-1.67-.24s-1.31.1-1.83.28c-.5.18-.89.44-1.15.76-.22.27-.38.62-.5,1.04l.85.12c.17-.54.42-.93.75-1.17.38-.28.92-.41,1.67-.41ZM87.48,423.48c-1.26,0-2.3-.41-3.09-1.23-.78-.81-1.18-1.99-1.18-3.49,0-1.65.47-2.9,1.41-3.71.78-.67,1.74-1.01,2.86-1.01,1.24,0,2.27.42,3.07,1.23.79.82,1.19,1.95,1.19,3.37,0,1.13-.18,2.04-.52,2.71-.35.67-.87,1.2-1.55,1.58-.67.37-1.4.55-2.19.55ZM87.48,414.6c-.99,0-1.8.29-2.49.88-.8.7-1.21,1.8-1.21,3.28,0,1.35.34,2.39,1.02,3.1.68.71,1.56,1.06,2.68,1.06.69,0,1.33-.16,1.91-.48.57-.32,1.02-.77,1.32-1.34.3-.58.46-1.41.46-2.45,0-1.27-.35-2.27-1.03-2.97-.69-.71-1.56-1.06-2.66-1.06ZM69.26,423.48c-1.26,0-2.3-.41-3.09-1.23-.78-.81-1.18-1.99-1.18-3.49,0-1.65.47-2.9,1.41-3.71.78-.67,1.74-1.01,2.86-1.01,1.24,0,2.27.42,3.07,1.23.79.82,1.19,1.95,1.19,3.37,0,1.13-.18,2.05-.52,2.71-.35.67-.87,1.2-1.55,1.58-.67.37-1.4.55-2.19.55ZM69.26,414.6c-.99,0-1.8.29-2.49.88-.8.7-1.21,1.8-1.21,3.28,0,1.35.34,2.39,1.02,3.1.68.71,1.56,1.06,2.68,1.06.69,0,1.33-.16,1.91-.48.57-.32,1.02-.77,1.32-1.34.3-.58.46-1.41.46-2.45,0-1.27-.35-2.27-1.03-2.97-.69-.71-1.56-1.06-2.66-1.06ZM149.11,423.4c-.58,0-1.02-.09-1.36-.28-.34-.2-.58-.46-.73-.78-.13-.31-.2-.9-.2-1.81v-4.6h-1.06v-1.69h1.06v-1.98l2-1.21v3.19h1.45v1.69h-1.45v4.68c0,.54.05.67.05.68.03.06.07.11.13.15.07.04.35.09.94,0l.28-.04.3,1.81-.27.06c-.42.09-.81.13-1.15.13ZM146.34,415.35h1.06v5.17c0,1.08.1,1.46.15,1.59.09.21.25.38.49.52.36.21.99.28,1.84.14l-.12-.73c-.52.06-.81.02-1.04-.12-.16-.1-.29-.24-.36-.41-.05-.11-.1-.31-.1-.9v-5.25h1.45v-.55h-1.45v-2.75l-.86.52v2.23h-1.06v.55ZM144.92,423.29h-2.01v-5.45c0-.55-.05-.96-.15-1.21-.09-.23-.25-.41-.48-.55-.24-.14-.53-.22-.86-.22-.55,0-1.01.17-1.4.51-.38.33-.57,1-.57,2v4.92h-2.01v-9.06h1.86v.71c.63-.6,1.44-.9,2.42-.9.55,0,1.06.1,1.52.3.48.2.84.48,1.08.82.24.33.4.72.49,1.17.06.29.09.77.09,1.46v5.5ZM143.48,422.72h.87v-4.94c0-.8-.04-1.17-.07-1.34-.08-.37-.21-.69-.4-.95-.18-.25-.47-.47-.84-.63-.39-.17-.83-.25-1.3-.25-1.09,0-1.89.42-2.47,1.27l-.52.78v-1.86h-.73v7.93h.87v-4.36c0-1.18.25-1.98.77-2.43.5-.43,1.09-.65,1.77-.65.43,0,.82.1,1.15.3.34.21.58.49.71.83.13.33.19.79.19,1.42v4.88ZM126.73,423.29h-2.01v-9.06h2.01v9.06ZM125.29,422.72h.87v-7.93h-.87v7.93ZM114.04,423.29h-2v-5.63c0-.67-.07-.99-.12-1.15-.07-.19-.2-.35-.39-.47-.2-.13-.43-.19-.71-.19-.52,0-.94.17-1.29.51-.34.34-.51.92-.51,1.71v5.22h-2.01v-5.8c0-.58-.1-1-.3-1.27-.18-.24-.48-.36-.92-.36-.35,0-.68.09-.97.28-.29.18-.5.44-.63.79-.14.38-.21.94-.21,1.67v4.69h-2.01v-9.06h1.85v.7c.19-.18.4-.33.64-.47.48-.28,1.04-.42,1.65-.42.68,0,1.25.15,1.7.44.31.2.57.47.76.79.68-.81,1.54-1.22,2.56-1.22.92,0,1.64.26,2.15.79.5.52.76,1.31.76,2.35v6.11ZM112.6,422.72h.86v-5.55c0-.89-.2-1.55-.6-1.96-.4-.41-.97-.61-1.74-.61-.99,0-1.77.45-2.39,1.36l-.32.46-.19-.53c-.15-.41-.39-.72-.74-.95-.35-.23-.82-.35-1.39-.35-.51,0-.97.12-1.37.34-.4.23-.73.54-.97.91l-.52.81v-1.88h-.72v7.93h.87v-4.12c0-.82.08-1.43.25-1.87.18-.47.47-.83.86-1.08.39-.24.82-.36,1.27-.36.63,0,1.09.2,1.38.59.27.37.41.9.41,1.61v5.23h.87v-4.65c0-.95.23-1.66.67-2.11.45-.45,1.02-.68,1.69-.68.38,0,.72.09,1.01.27.3.19.51.44.62.75.11.29.16.73.16,1.34v5.07ZM82.11,423.29h-2.01v-5.45c0-.55-.05-.96-.15-1.21-.09-.23-.25-.41-.48-.55-.24-.15-.52-.22-.86-.22-.55,0-1.01.17-1.4.51-.38.33-.57,1-.57,2v4.92h-2.01v-9.06h1.86v.71c.63-.6,1.44-.9,2.42-.9.55,0,1.06.1,1.52.3.48.2.84.48,1.08.82.24.33.4.72.49,1.17.06.29.09.77.09,1.46v5.5ZM80.67,422.72h.87v-4.94c0-.64-.02-1.1-.07-1.34-.08-.37-.21-.69-.4-.96-.18-.25-.47-.46-.84-.63-.39-.17-.83-.25-1.3-.25-1.09,0-1.9.42-2.47,1.27l-.52.78v-1.86h-.73v7.93h.87v-4.36c0-1.18.25-1.98.77-2.43.5-.43,1.09-.65,1.77-.65.43,0,.82.1,1.15.3.34.21.58.49.71.83.13.33.19.79.19,1.42v4.88ZM63.78,423.29h-2.06v-8.41l-2.92,8.41h-1.8l-2.9-8.55v8.55h-2.06v-12.29h2.82l2.84,8.49c.11.34.21.63.29.9.1-.3.22-.65.35-1.04l2.87-8.35h2.57v12.29ZM62.28,422.72h.93v-11.16h-.93v11.16ZM57.4,422.72h1l3.87-11.16h-.65l-2.74,7.96c-.28.82-.49,1.45-.62,1.87l-.27.87-.27-.88c-.12-.38-.3-.96-.56-1.73l-2.71-8.11h-.83l3.79,11.16ZM52.59,422.72h.93v-11.16h-.93v11.16ZM95.9,422.35c-.63,0-1.12-.15-1.46-.45-.35-.31-.53-.71-.53-1.17,0-.3.08-.59.25-.84.16-.25.4-.45.69-.57.27-.12.7-.22,1.33-.31,1.02-.15,1.79-.32,2.28-.53l.39-.16v.95c0,.68-.08,1.19-.26,1.56-.23.47-.59.85-1.07,1.12-.47.27-1.02.4-1.62.4ZM98.28,419.14c-.51.16-1.18.3-2.03.42-.56.08-.96.17-1.18.27-.19.08-.34.2-.44.36-.1.16-.15.33-.15.53,0,.3.11.54.34.75.24.21.6.31,1.09.31s.95-.11,1.34-.33c.38-.21.66-.5.83-.87.14-.28.2-.73.2-1.32v-.13ZM119.45,422.29c-.87,0-1.57-.42-2.08-1.25-.31-.5-.46-1.27-.46-2.36s.25-1.96.75-2.55c.51-.61,1.14-.92,1.85-.92s1.32.3,1.81.89c.48.58.73,1.46.73,2.64s-.25,2.03-.75,2.62c-.51.61-1.13.92-1.85.92ZM119.52,415.79c-.55,0-1.01.24-1.41.72-.41.49-.62,1.23-.62,2.19s.13,1.65.37,2.06c.4.66.92.98,1.6.98.55,0,1.01-.24,1.41-.72.41-.49.62-1.25.62-2.26s-.2-1.8-.59-2.27c-.39-.46-.84-.69-1.38-.69ZM87.48,422.29c-.8,0-1.48-.31-2-.91-.52-.59-.78-1.48-.78-2.63s.26-2.04.78-2.63c.53-.6,1.2-.9,2-.9s1.46.3,1.99.91c.52.59.79,1.46.79,2.58,0,1.18-.26,2.08-.78,2.67-.53.61-1.2.91-2,.91ZM87.48,415.79c-.64,0-1.16.23-1.58.71-.42.48-.64,1.24-.64,2.25s.22,1.77.64,2.26c.42.48.94.72,1.58.72s1.15-.24,1.57-.72c.43-.49.64-1.26.64-2.3,0-.97-.22-1.71-.65-2.2-.42-.48-.94-.72-1.57-.72ZM69.26,422.29c-.8,0-1.48-.31-2-.91-.52-.59-.78-1.48-.78-2.63s.26-2.04.78-2.63c.53-.6,1.2-.9,2-.9s1.46.3,1.99.91c.52.59.79,1.46.79,2.58,0,1.18-.26,2.08-.78,2.67-.53.61-1.2.91-2,.91ZM69.26,415.79c-.64,0-1.16.23-1.58.71-.42.48-.64,1.24-.64,2.25s.22,1.77.64,2.26c.42.48.94.72,1.58.72s1.15-.24,1.57-.72c.43-.49.64-1.26.64-2.3,0-.97-.22-1.71-.65-2.2-.42-.48-.94-.72-1.57-.72ZM157.54,418.22h-5.35l.02-.3c.05-.81.33-1.47.83-1.96.5-.49,1.13-.75,1.87-.75.81,0,1.49.31,2,.93.33.4.54.99.61,1.76l.03.31ZM152.8,417.66h4.11c-.08-.5-.23-.88-.44-1.14-.41-.49-.92-.73-1.57-.73-.59,0-1.07.19-1.47.58-.34.33-.55.76-.63,1.29ZM134.77,418.22h-5.35l.02-.3c.05-.81.33-1.47.83-1.96.5-.5,1.13-.75,1.87-.75.81,0,1.49.31,2,.93.33.4.54.99.61,1.76l.03.31ZM130.04,417.66h4.11c-.08-.5-.23-.88-.44-1.14-.41-.49-.92-.73-1.57-.73-.59,0-1.07.19-1.47.58-.34.33-.55.76-.63,1.29ZM126.73,413.22h-2.01v-2.22h2.01v2.22ZM125.29,412.65h.87v-1.09h-.87v1.09Z"/><path class="j" d="M186.23,619.85s-.01,0-.02,0c-.18-.01-.32-.17-.31-.34.09-1.56-1.05-2.9-2.6-3.05-.18-.02-.31-.18-.29-.36.02-.18.19-.31.36-.29,1.9.18,3.31,1.82,3.19,3.73-.01.17-.15.31-.32.31Z"/><path class="j" d="M186.24,619.84s-.04,0-.06,0c-1.8-.31-3.13-1.87-3.16-3.7,0-.18.14-.33.32-.33.19,0,.33.14.33.32.02,1.52,1.13,2.81,2.62,3.07.18.03.3.2.26.38-.03.16-.17.27-.32.27Z"/><path class="j" d="M194.38,589.18c-1.09,0-2.19-.28-3.19-.87-.16-.09-.21-.29-.12-.45.09-.16.29-.21.45-.12,2.14,1.25,4.82.97,6.66-.69.13-.12.34-.11.46.02.12.13.11.34-.02.46-1.2,1.08-2.71,1.63-4.24,1.63Z"/><path class="j" d="M191.39,588.19c-.14,0-.26-.08-.31-.22-.06-.17.03-.36.2-.41,2.31-.8,4.8-1,7.21-.6.18.03.3.2.27.38-.03.18-.2.3-.38.27-2.3-.39-4.69-.19-6.89.57-.04.01-.07.02-.11.02Z"/><path class="j" d="M190.38,586.26c-.09,0-.19-.04-.25-.12-.12-.14-.1-.34.04-.46,1.43-1.19,3.33-1.56,5.1-.99.17.06.27.24.21.41-.05.17-.24.27-.41.21-1.56-.5-3.23-.17-4.49.87-.06.05-.13.08-.21.08Z"/><path class="j" d="M191.77,586.48c-.5,0-1-.06-1.49-.18-.17-.04-.28-.22-.24-.4.04-.17.23-.28.4-.24,1.58.39,3.24.07,4.55-.89.15-.11.35-.07.46.07s.07.35-.07.46c-1.06.77-2.32,1.17-3.61,1.17Z"/><path class="j" d="M175.03,584.35c-.07,0-.15-.03-.21-.08-1.5-1.27-1.91-3.45-.98-5.18.08-.16.28-.22.44-.13.16.09.22.28.13.44-.79,1.46-.44,3.3.83,4.38.14.12.15.32.04.46-.06.08-.16.12-.25.12Z"/><path class="j" d="M174.95,584.33c-.07,0-.14-.02-.2-.07-.14-.11-.17-.31-.06-.46.51-.67.71-1.52.55-2.35-.16-.83-.66-1.55-1.37-1.99-.15-.09-.2-.29-.11-.45.09-.15.29-.2.45-.11.87.53,1.48,1.42,1.67,2.42.19,1.01-.06,2.05-.67,2.87-.06.08-.16.13-.26.13Z"/><path class="j" d="M164.17,596.35s-.04,0-.06,0c-2.69-.52-4.45-3.04-4.01-5.75.03-.18.2-.29.37-.27.18.03.3.2.27.37-.39,2.35,1.15,4.55,3.49,5,.18.03.29.21.26.38-.03.16-.17.26-.32.26Z"/><path class="j" d="M164.17,596.43h0c-.18,0-.32-.15-.32-.33.06-2.33-1.39-4.39-3.59-5.14-.17-.06-.26-.24-.2-.41.06-.17.24-.26.41-.2,2.47.84,4.09,3.17,4.03,5.78,0,.18-.15.32-.33.32Z"/><path class="j" d="M164.64,613.71h0c-.18,0-.32-.15-.32-.33.03-1.02.49-1.99,1.26-2.66.78-.67,1.8-.98,2.82-.85.18.02.31.19.28.36-.02.18-.18.31-.36.28-.83-.11-1.68.15-2.31.7-.64.55-1.01,1.34-1.03,2.18,0,.18-.15.32-.33.32Z"/><path class="j" d="M164.62,613.65c-.18,0-.32-.14-.33-.32,0-.18.14-.33.32-.33,1.66-.05,3.08-1.27,3.37-2.91.03-.18.2-.3.38-.26.18.03.29.2.26.38-.35,1.94-2.03,3.38-4,3.44,0,0,0,0,0,0Z"/><path class="j" d="M196.45,595.82s-.04,0-.06,0c-.18-.03-.29-.21-.26-.38.46-2.4,1.53-4.66,3.09-6.54.11-.14.32-.16.46-.04.14.11.16.32.04.46-1.49,1.8-2.51,3.96-2.95,6.25-.03.16-.17.26-.32.26Z"/><path class="j" d="M196.61,595.93c-.11,0-.22-.06-.28-.16-.09-.16-.04-.36.12-.45,2.15-1.23,3.25-3.69,2.73-6.11-.04-.18.07-.35.25-.39.18-.04.35.07.39.25.58,2.71-.65,5.44-3.05,6.82-.05.03-.11.04-.16.04Z"/><path class="j" d="M199.02,601.51s-.09,0-.14-.03c-2.25-1.04-4.24-2.62-5.77-4.57-.11-.14-.09-.35.05-.46.14-.11.35-.09.46.05,1.47,1.86,3.38,3.38,5.53,4.38.16.08.23.27.16.43-.06.12-.17.19-.3.19Z"/><path class="j" d="M198.99,601.49c-.13,0-.25-.07-.3-.2-.96-2.23-2.83-3.96-5.13-4.75-.17-.06-.26-.24-.2-.41.06-.17.24-.26.41-.2,2.47.85,4.48,2.71,5.51,5.11.07.17,0,.36-.17.43-.04.02-.09.03-.13.03Z"/><path class="j" d="M189.58,597.17s-.08,0-.12-.03c-.17-.07-.25-.26-.18-.43,1.05-2.54,2.41-4.96,4.03-7.17.11-.14.31-.18.46-.07.15.11.18.31.07.46-1.59,2.18-2.92,4.54-3.96,7.04-.05.12-.17.2-.3.2Z"/><path class="j" d="M189.55,597.47c-.14,0-.27-.09-.31-.23-.05-.17.04-.35.21-.41,2.96-.92,4.62-3.98,3.78-6.96-.05-.17.05-.35.23-.4.18-.05.35.05.4.23.94,3.33-.91,6.73-4.21,7.76-.03,0-.06.01-.1.01Z"/><path class="j" d="M180,599.51c-.15,0-.29-.11-.32-.26-.04-.18.07-.35.25-.39l20.94-4.47c.18-.04.35.08.39.25.04.18-.07.35-.25.39l-20.94,4.47s-.05,0-.07,0Z"/><path class="j" d="M185.4,598.28c-.12,0-.24-.07-.3-.19-.79-1.74-.07-3.77,1.64-4.63.16-.08.36-.01.44.15.08.16.02.36-.15.44-1.4.7-1.98,2.35-1.34,3.78.07.16,0,.36-.16.43-.04.02-.09.03-.13.03Z"/><path class="j" d="M185.37,598.27c-.11,0-.22-.06-.28-.16-.09-.15-.04-.35.11-.45,1.3-.78,1.87-2.38,1.35-3.8-.06-.17.03-.36.19-.42.17-.06.36.02.42.19.63,1.72-.05,3.65-1.62,4.58-.05.03-.11.05-.17.05Z"/><path class="j" d="M192.37,603.6h0c-3.22-.08-5.85-2.66-5.99-5.88,0-.18.13-.33.31-.34.2-.02.33.13.34.31.12,2.88,2.48,5.18,5.35,5.25.18,0,.32.15.32.33,0,.18-.15.32-.33.32Z"/><path class="j" d="M192.41,603.64c-.12,0-.24-.07-.29-.19-1.13-2.4-3.08-4.32-5.51-5.41-.16-.07-.24-.27-.16-.43.07-.16.27-.24.43-.17,2.57,1.15,4.64,3.18,5.83,5.72.08.16,0,.36-.16.43-.04.02-.09.03-.14.03Z"/><path class="j" d="M191.57,612.21c-.14,0-.26-.08-.31-.22-.06-.17.03-.36.2-.41,2.31-.8,4.8-1.01,7.21-.6.18.03.3.2.27.38s-.2.3-.38.27c-2.3-.39-4.69-.19-6.89.57-.04.01-.07.02-.11.02Z"/><path class="j" d="M194.57,613.19c-1.09,0-2.2-.29-3.19-.87-.16-.09-.21-.29-.12-.45.09-.16.29-.21.45-.12,2.15,1.25,4.82.97,6.66-.69.13-.12.34-.11.46.02s.11.34-.02.46c-1.2,1.08-2.71,1.63-4.23,1.63Z"/><path class="j" d="M187.78,617.03c-.17,0-.31-.13-.32-.3-.22-2.46.15-4.98,1.07-7.28.07-.17.25-.25.42-.18.17.07.25.26.18.42-.88,2.2-1.24,4.62-1.03,6.98.02.18-.12.34-.3.35,0,0-.02,0-.03,0Z"/><path class="j" d="M187.71,617.02c-.07,0-.14-.02-.19-.06-.14-.11-.17-.31-.07-.46,1.45-1.95,2.02-4.43,1.55-6.82-.03-.18.08-.35.26-.38.17-.04.35.08.38.26.5,2.56-.11,5.24-1.67,7.33-.06.09-.16.13-.26.13Z"/><path class="j" d="M186.75,606.69c-.16,0-.3-.12-.32-.28-.02-.18.1-.34.28-.37,2.72-.36,5.49-.39,8.23-.09.18.02.31.18.29.36s-.18.3-.36.29c-2.68-.29-5.4-.26-8.07.09-.01,0-.03,0-.04,0Z"/><path class="j" d="M190.56,608.36c-1.53,0-3.07-.56-4.3-1.69-.13-.12-.14-.33-.02-.46.12-.13.33-.14.46-.02,2.28,2.1,5.75,2.01,7.92-.21.13-.13.33-.13.46,0,.13.13.13.33,0,.46-1.25,1.28-2.89,1.92-4.53,1.92Z"/><path class="j" d="M194.33,615.42c-.09,0-.18-.04-.24-.11l-14.33-15.92c-.12-.13-.11-.34.02-.46.13-.12.34-.11.46.02l14.33,15.92c.12.13.11.34-.02.46-.06.06-.14.08-.22.08Z"/><path class="j" d="M183.67,603.65c-.07,0-.13-.02-.19-.06-.15-.11-.18-.31-.08-.46,1.11-1.56,3.23-1.95,4.83-.89.15.1.19.3.09.45-.1.15-.3.19-.45.09-1.3-.86-3.03-.54-3.94.73-.06.09-.16.14-.27.14Z"/><path class="j" d="M185.34,603.97c-.63,0-1.27-.16-1.85-.48-.16-.09-.21-.29-.13-.44.09-.16.29-.21.44-.13,1.32.74,2.99.43,3.97-.74.12-.14.32-.16.46-.04.14.12.16.32.04.46-.75.89-1.83,1.37-2.93,1.37Z"/><path class="j" d="M182.57,612.3c-.12,0-.23-.06-.29-.17-1.54-2.83-.62-6.4,2.09-8.12.15-.1.35-.05.45.1.1.15.05.35-.1.45-2.43,1.55-3.25,4.74-1.87,7.26.09.16.03.36-.13.44-.05.03-.1.04-.16.04Z"/><path class="j" d="M182.6,612.31c-.06,0-.13-.02-.19-.06-.15-.1-.18-.31-.08-.45,1.52-2.18,2.2-4.83,1.93-7.47-.02-.18.11-.34.29-.36.18,0,.34.11.36.29.29,2.8-.43,5.61-2.04,7.91-.06.09-.17.14-.27.14Z"/><path class="j" d="M178.82,621.48c-.13,0-.26-.08-.31-.21-.81-2.19-2.17-4.15-3.94-5.68-.14-.12-.15-.32-.03-.46.12-.14.32-.15.46-.03,1.85,1.6,3.27,3.66,4.12,5.95.06.17-.02.36-.19.42-.04.01-.08.02-.11.02Z"/><path class="j" d="M178.84,621.46s-.07,0-.1-.02c-2.63-.85-4.39-3.28-4.38-6.05,0-.18.15-.33.33-.33h0c.18,0,.33.15.32.33-.01,2.48,1.57,4.66,3.93,5.43.17.05.26.24.21.41-.04.14-.17.23-.31.23Z"/><path class="j" d="M168.72,614.98c-.1,0-.2-.05-.27-.14-.1-.15-.07-.35.08-.45,2.03-1.42,4.39-2.36,6.84-2.71.17-.03.34.1.37.28.03.18-.1.34-.28.37-2.35.34-4.62,1.24-6.56,2.6-.06.04-.12.06-.19.06Z"/><path class="j" d="M169.71,615.05c-.36,0-.71-.02-1.07-.06-.18-.02-.31-.18-.29-.36.02-.18.19-.31.36-.29,2.42.28,4.85-.47,6.68-2.07.14-.12.34-.1.46.03.12.14.1.34-.03.46-1.7,1.48-3.88,2.28-6.11,2.28Z"/><path class="j" d="M181.27,615.99c-.12,0-.24-.07-.3-.19-1.09-2.47-2.48-4.81-4.12-6.95-.11-.14-.08-.35.06-.46.14-.11.35-.08.46.06,1.67,2.18,3.09,4.56,4.2,7.08.07.17,0,.36-.17.43-.04.02-.09.03-.13.03Z"/><path class="j" d="M181.26,615.98s-.05,0-.08-.01c-3.35-.85-5.37-4.16-4.61-7.53.04-.17.21-.29.39-.25.18.04.29.21.25.39-.68,3.02,1.13,5.99,4.14,6.75.17.04.28.22.24.4-.04.15-.17.25-.32.25Z"/><path class="j" d="M173.39,619.89s-.07,0-.1-.02c-.17-.05-.26-.24-.21-.41l6.61-20.38c.06-.17.24-.26.41-.21.17.05.26.24.21.41l-6.61,20.38c-.04.14-.17.23-.31.23Z"/><path class="j" d="M181.11,608.22s-.01,0-.02,0c-.18-.01-.32-.17-.31-.34.09-1.56-1.05-2.9-2.6-3.05-.18-.02-.31-.18-.29-.36.02-.18.19-.31.36-.29,1.9.18,3.31,1.83,3.19,3.73-.01.17-.15.31-.32.31Z"/><path class="j" d="M181.12,608.11s-.04,0-.06,0c-1.8-.31-3.13-1.87-3.16-3.7,0-.18.14-.33.32-.33h0c.18,0,.32.14.33.32.02,1.52,1.13,2.81,2.62,3.07.18.03.3.2.26.38-.03.16-.17.27-.32.27Z"/><path class="j" d="M170.14,608.16c-.06,0-.12-.02-.17-.05-.15-.09-.2-.29-.11-.45,1.68-2.75,5.23-3.73,8.08-2.25.16.08.22.28.14.44s-.28.22-.44.14c-2.55-1.33-5.73-.45-7.23,2.01-.06.1-.17.16-.28.16Z"/><path class="j" d="M171.11,608.26c-.33,0-.66-.01-.99-.04-.18-.01-.31-.17-.3-.35.02-.18.18-.32.35-.3,2.65.22,5.29-.51,7.44-2.07.15-.11.35-.07.46.07.11.15.07.35-.07.46-2.01,1.46-4.42,2.23-6.88,2.23Z"/><path class="j" d="M161.44,603.44c-.14,0-.27-.09-.31-.24-.45-1.56-1.56-2.84-3.05-3.5-.16-.07-.24-.27-.17-.43.07-.16.27-.24.43-.17,1.66.74,2.9,2.17,3.41,3.92.05.17-.05.35-.22.4-.03,0-.06.01-.09.01Z"/><path class="j" d="M161.45,603.39s-.08,0-.11-.02c-1.74-.64-3.02-2.11-3.41-3.92-.04-.18.07-.35.25-.39.18-.04.35.07.39.25.35,1.6,1.47,2.89,3,3.45.17.06.26.25.19.42-.05.13-.17.21-.31.21Z"/><path class="j" d="M160.06,609.59c-.07,0-.15-.02-.21-.08-.14-.11-.16-.32-.04-.46,1.49-1.8,2.51-3.96,2.95-6.25.03-.18.2-.29.38-.26.18.03.29.21.26.38-.46,2.4-1.53,4.66-3.09,6.54-.06.08-.16.12-.25.12Z"/><path class="j" d="M160.03,609.56c-.15,0-.29-.11-.32-.26-.58-2.7.65-5.44,3.05-6.82.15-.09.35-.03.44.12.09.16.04.36-.12.45-2.15,1.23-3.25,3.69-2.73,6.11.04.18-.07.35-.25.39-.02,0-.05,0-.07,0Z"/><path class="j" d="M166.53,601.98c-.1,0-.19-.04-.26-.12-1.47-1.86-3.38-3.38-5.53-4.38-.16-.08-.23-.27-.16-.43.08-.16.27-.23.43-.16,2.24,1.04,4.24,2.62,5.77,4.57.11.14.09.35-.05.46-.06.05-.13.07-.2.07Z"/><path class="j" d="M166.23,602.37s-.07,0-.11-.02c-2.47-.85-4.48-2.71-5.52-5.11-.07-.17,0-.36.17-.43.17-.07.36,0,.43.17.96,2.23,2.83,3.96,5.13,4.75.17.06.26.24.2.41-.05.13-.17.22-.31.22Z"/><path class="j" d="M166.32,608.86c-.07,0-.13-.02-.19-.06-.15-.11-.18-.31-.07-.46,1.59-2.18,2.93-4.55,3.96-7.04.07-.17.26-.25.43-.18.17.07.25.26.18.43-1.05,2.54-2.41,4.95-4.03,7.17-.06.09-.16.13-.26.13Z"/><path class="j" d="M166.35,608.91c-.14,0-.27-.09-.31-.24-.94-3.32.91-6.73,4.21-7.76.17-.05.35.04.41.21.05.17-.04.35-.21.41-2.96.92-4.62,3.98-3.78,6.96.05.17-.05.35-.23.4-.03,0-.06.01-.09.01Z"/><path class="j" d="M159.06,603.98c-.15,0-.29-.11-.32-.26-.04-.18.07-.35.25-.39l20.94-4.47c.17-.04.35.07.39.25.04.18-.07.35-.25.39l-20.94,4.47s-.05,0-.07,0Z"/><path class="j" d="M173.01,604.85c-.12,0-.23-.07-.29-.18-.08-.16-.02-.36.15-.44,1.4-.7,1.98-2.36,1.34-3.78-.07-.16,0-.36.16-.43.16-.07.36,0,.43.16.79,1.74.07,3.77-1.64,4.63-.05.02-.1.04-.15.04Z"/><path class="j" d="M173.04,604.85c-.13,0-.26-.08-.31-.21-.63-1.72.05-3.65,1.62-4.58.15-.09.35-.04.45.11.09.15.04.35-.11.45-1.3.78-1.87,2.38-1.35,3.8.06.17-.03.36-.19.42-.04.01-.07.02-.11.02Z"/><path class="j" d="M173.2,600.89c-.17,0-.32-.14-.33-.31-.12-2.88-2.48-5.18-5.35-5.25-.18,0-.32-.15-.32-.33s.15-.32.33-.32c3.22.08,5.85,2.66,5.99,5.88,0,.18-.13.33-.31.34,0,0,0,0-.01,0Z"/><path class="j" d="M173.16,600.94s-.09,0-.13-.03c-2.57-1.15-4.64-3.18-5.83-5.72-.08-.16,0-.36.16-.43.16-.08.36,0,.43.16,1.13,2.4,3.08,4.32,5.51,5.41.16.07.24.27.16.43-.05.12-.17.19-.3.19Z"/><path class="j" d="M163.66,587.5c-.81,0-1.63-.07-2.43-.2-.18-.03-.3-.2-.27-.38s.2-.29.38-.27c2.3.39,4.68.19,6.89-.57.17-.06.36.03.41.2.06.17-.03.36-.2.41-1.54.53-3.16.8-4.78.8Z"/><path class="j" d="M161.32,587.28c-.09,0-.18-.04-.24-.11-.12-.13-.11-.34.02-.46,2.05-1.85,5.04-2.16,7.43-.77.16.09.21.29.12.45-.09.15-.29.21-.45.12-2.14-1.25-4.82-.97-6.66.69-.06.06-.14.08-.22.08Z"/><path class="j" d="M171.07,589.12s-.08,0-.12-.02c-.17-.07-.25-.26-.18-.42.88-2.2,1.24-4.62,1.03-6.98-.02-.18.12-.34.3-.35.17-.02.34.12.35.29.22,2.46-.15,4.98-1.07,7.28-.05.13-.17.21-.3.21Z"/><path class="j" d="M170.58,589.08c-.15,0-.29-.11-.32-.26-.5-2.56.11-5.24,1.67-7.33.11-.14.31-.17.46-.07.14.11.17.31.07.46-1.45,1.95-2.02,4.43-1.55,6.82.03.18-.08.35-.26.38-.02,0-.04,0-.06,0Z"/><path class="j" d="M168.69,592.62c-1.24,0-2.49-.07-3.72-.2-.18-.02-.31-.18-.29-.36s.17-.31.36-.29c2.68.29,5.4.26,8.07-.09.18-.02.34.1.37.28.02.18-.1.34-.28.37-1.49.2-3,.29-4.51.29Z"/><path class="j" d="M165.04,592.39c-.08,0-.16-.03-.23-.09-.13-.13-.13-.33,0-.46,2.41-2.47,6.29-2.58,8.83-.23.13.12.14.33.02.46-.12.13-.33.14-.46.02-2.28-2.1-5.75-2.01-7.92.21-.06.07-.15.1-.23.1Z"/><path class="j" d="M180,599.51c-.09,0-.18-.04-.24-.11l-14.33-15.92c-.12-.13-.11-.34.02-.46.13-.12.34-.11.46.02l14.33,15.92c.12.13.11.34-.02.46-.06.06-.14.08-.22.08Z"/><path class="j" d="M173.62,596.72c-.67,0-1.35-.19-1.95-.59-.15-.1-.19-.3-.09-.45.1-.15.3-.19.45-.09,1.3.86,3.03.54,3.94-.73.1-.15.31-.18.45-.08.15.11.18.31.08.46-.69.97-1.77,1.49-2.88,1.49Z"/><path class="j" d="M171.87,596.2c-.07,0-.15-.03-.21-.08-.14-.12-.16-.32-.04-.46,1.17-1.4,3.18-1.77,4.78-.89.16.09.21.29.13.44s-.29.21-.44.13c-1.33-.74-2.99-.43-3.97.74-.06.08-.16.12-.25.12Z"/><path class="j" d="M175.35,594.32c-.11,0-.21-.05-.28-.15-.1-.15-.05-.35.1-.45,2.43-1.55,3.25-4.74,1.87-7.26-.09-.16-.03-.36.13-.44.16-.09.36-.03.44.13,1.54,2.83.62,6.4-2.09,8.12-.05.04-.11.05-.17.05Z"/><path class="j" d="M175.31,594.31c-.16,0-.31-.12-.32-.29-.29-2.8.43-5.61,2.04-7.91.1-.15.31-.18.45-.08.15.1.18.31.08.45-1.52,2.18-2.2,4.83-1.93,7.47.02.18-.11.34-.29.36-.01,0-.02,0-.03,0Z"/><path class="j" d="M181.69,594.19s-.02,0-.03,0c-1.9-.18-3.31-1.82-3.19-3.73.01-.18.18-.3.34-.31.18.01.32.17.31.34-.09,1.56,1.05,2.9,2.6,3.05.18.02.31.18.29.36-.02.17-.16.29-.32.29Z"/><path class="j" d="M181.67,594.2c-.18,0-.32-.14-.33-.32-.02-1.52-1.13-2.81-2.62-3.07-.18-.03-.3-.2-.26-.38.03-.18.2-.3.38-.27,1.8.31,3.13,1.87,3.16,3.7,0,.18-.14.33-.32.33h0Z"/><path class="j" d="M184.77,593.55c-.96,0-1.92-.22-2.82-.69-.16-.08-.22-.28-.14-.44.08-.16.28-.22.44-.14,2.55,1.33,5.73.45,7.23-2.01.09-.15.29-.2.45-.11.15.09.2.29.11.45-1.15,1.88-3.18,2.94-5.26,2.94Z"/><path class="j" d="M182.1,592.93c-.1,0-.2-.05-.26-.13-.11-.15-.07-.35.07-.46,2.27-1.65,5.07-2.43,7.87-2.19.18.01.31.17.3.35-.02.18-.17.32-.35.3-2.65-.22-5.29.51-7.44,2.07-.06.04-.12.06-.19.06Z"/><path class="j" d="M185.02,583.73c-.08,0-.15-.03-.21-.08-1.85-1.6-3.27-3.66-4.12-5.95-.06-.17.02-.36.19-.42.17-.06.36.02.42.19.81,2.19,2.18,4.15,3.94,5.68.14.12.15.32.03.46-.06.07-.16.11-.25.11Z"/><path class="j" d="M185.21,583.67h0c-.18,0-.33-.15-.32-.33.01-2.48-1.57-4.66-3.93-5.43-.17-.05-.26-.24-.21-.41.06-.17.24-.26.41-.21,2.63.85,4.39,3.28,4.38,6.05,0,.18-.15.33-.33.33Z"/><path class="j" d="M184.49,586.6c-.16,0-.3-.12-.32-.28-.03-.18.1-.34.28-.37,2.35-.34,4.62-1.24,6.56-2.6.15-.1.35-.07.45.08.1.15.07.35-.08.45-2.02,1.42-4.39,2.36-6.84,2.71-.02,0-.03,0-.05,0Z"/><path class="j" d="M184.3,586.17c-.09,0-.18-.04-.25-.11-.12-.14-.1-.34.03-.46,1.97-1.71,4.59-2.52,7.18-2.22.18.02.31.18.29.36-.02.18-.18.31-.36.29-2.41-.28-4.85.47-6.68,2.07-.06.05-.14.08-.21.08Z"/><path class="j" d="M182.78,590.04c-.1,0-.19-.04-.26-.13-1.67-2.18-3.09-4.56-4.2-7.08-.07-.17,0-.36.17-.43.16-.08.36,0,.43.17,1.09,2.47,2.48,4.81,4.12,6.95.11.14.08.35-.06.46-.06.04-.13.07-.2.07Z"/><path class="j" d="M183.01,590.17s-.05,0-.07,0c-.18-.04-.29-.21-.25-.39.68-3.02-1.13-5.99-4.14-6.75-.17-.04-.28-.22-.24-.4.04-.17.22-.28.4-.24,3.35.85,5.37,4.16,4.61,7.53-.03.15-.17.25-.32.25Z"/><path class="j" d="M180,599.51s-.07,0-.1-.02c-.17-.06-.26-.24-.21-.41l6.61-20.29c.06-.17.24-.27.41-.21.17.06.26.24.21.41l-6.61,20.29c-.04.14-.17.23-.31.23Z"/><rect class="g" x="12.29" y="306.11" width="17.59" height="234.54"/><path class="e" d="M214.53,545.95c-.36,0-.65-.29-.65-.65V157.85H79.76c-.36,0-.65-.29-.65-.65s.29-.65.65-.65h134.77c.36,0,.65.29.65.65v388.1c0,.36-.29.65-.65.65Z"/></svg>