<?xml version="1.0" encoding="UTF-8"?><svg id="a" xmlns="http://www.w3.org/2000/svg" viewBox="0 0 62.98 60.81"><defs><style>.b{fill:#bb9f7c;}</style></defs><path class="b" d="M52.42,37.74h9.89c.07,0,.55.53.59.72.26,1.35-.16,3.51-.02,4.95-.44.87-1.26.58-2.07.62v16.18c0,.05-.63.7-.84.6H13.32c-1.27-.25-.53-3.23-.72-4.2-.74.04-1.41-.31-2.09-.52v4.13c0,.23-.68.59-.98.6-.34.01-1.12-.31-1.12-.6v-4.13c-4.53,1.93-9.08-1.49-8.32-6.42.28-1.85,1.88-3.87,3.74-4.32-1.22-4.41,2.21-8.17,6.71-7.56.76.1,1.36.53,2.06.75V.61s.44-.43.53-.52L51.57.01c.21-.11.84.54.84.6v37.13ZM50.32,2.11H14.69v38.45c.47,1.61.99,3.09.39,4.77,5.27,1.65,5.01,9.71-.39,11v2.36h10.48v-11.98c0-.05.63-.7.84-.6,4.11.32,8.81-.4,12.85,0,.26.03.97.33.97.6v11.98h10.48V2.11ZM9.3,39.87c-2.51.09-4.07,2.6-3.31,4.94.1.3.37.6.43.89.32,1.62-1.66,1.37-2.64,2.02-3.74,2.49-.38,8.47,3.8,6.29,1.61-.84.4-1.98.9-3.16.32-.77,1.77-.7,2,.09.37,1.29-.72,2.33.94,3.12,4.68,2.23,7.71-4.96,2.83-6.76-.58-.21-1.38-.1-1.67-.81-.35-.85.35-1.37.5-2.19.41-2.36-1.32-4.52-3.76-4.43ZM52.42,39.84v2.1h8.38v-2.1h-8.38ZM58.7,44.03h-6.29v14.67h6.29v-14.67ZM37.75,48.22h-10.48v10.48h10.48v-10.48Z"/><path class="b" d="M42.55,25.19c1.44.14,3.6-.28,4.95-.02.29.06.47.32.65.52v7.33c-.03.08-.38.43-.46.46-.31.13-4.39.15-4.92.08-.39-.05-.54-.25-.78-.53l-.08-7.01c0-.37.33-.63.62-.82ZM46.13,27.26h-2.1v4.19h2.1v-4.19Z"/><path class="b" d="M34.17,25.19c1.44.14,3.6-.28,4.95-.02.29.06.47.32.65.52v7.33c-.03.08-.38.43-.46.46-.31.13-4.39.15-4.92.08-.39-.05-.54-.25-.78-.53l-.08-7.01c0-.37.33-.63.62-.82ZM37.75,27.26h-2.1v4.19h2.1v-4.19Z"/><path class="b" d="M17.41,4.24c1.44.14,3.6-.28,4.95-.02.29.06.47.32.65.52v7.33c-.03.08-.38.43-.46.46-.31.13-4.39.15-4.92.08-.39-.05-.54-.25-.78-.53l-.08-7.01c0-.37.33-.63.62-.82ZM20.98,6.31h-2.1v4.19h2.1v-4.19Z"/><path class="b" d="M17.41,14.71c1.44.14,3.6-.28,4.95-.02.29.06.47.32.65.52v7.33c-.03.08-.38.43-.46.46-.31.13-4.39.15-4.92.08-.39-.05-.54-.25-.78-.53l-.08-7.01c0-.37.33-.63.62-.82ZM18.89,16.78v4.19h2.1v-4.19h-2.1Z"/><path class="b" d="M25.79,14.71c1.44.14,3.6-.28,4.95-.02.29.06.47.32.65.52v7.33c-.03.08-.38.43-.46.46-.31.13-4.39.15-4.92.08-.39-.05-.54-.25-.78-.53l-.08-7.01c0-.37.33-.63.62-.82ZM27.27,16.78v4.19h2.1v-4.19h-2.1Z"/><path class="b" d="M34.17,14.71c1.44.14,3.6-.28,4.95-.02.29.06.47.32.65.52v7.33c-.03.08-.38.43-.46.46-.31.13-4.39.15-4.92.08-.39-.05-.54-.25-.78-.53l-.08-7.01c0-.37.33-.63.62-.82ZM37.75,16.78h-2.1v4.19h2.1v-4.19Z"/><path class="b" d="M42.55,14.71c1.44.14,3.6-.28,4.95-.02.29.06.47.32.65.52v7.33c-.03.08-.38.43-.46.46-.31.13-4.39.15-4.92.08-.39-.05-.54-.25-.78-.53l-.08-7.01c0-.37.33-.63.62-.82ZM46.13,16.78h-2.1v4.19h2.1v-4.19Z"/><path class="b" d="M25.79,4.24c1.44.14,3.6-.28,4.95-.02.29.06.47.32.65.52v7.33c-.03.08-.38.43-.46.46-.31.13-4.39.15-4.92.08-.39-.05-.54-.25-.78-.53l-.08-7.01c0-.37.33-.63.62-.82ZM29.36,6.31h-2.1v4.19h2.1v-4.19Z"/><path class="b" d="M34.17,4.24c1.44.14,3.6-.28,4.95-.02.29.06.47.32.65.52v7.33c-.03.08-.38.43-.46.46-.31.13-4.39.15-4.92.08-.39-.05-.54-.25-.78-.53l-.08-7.01c0-.37.33-.63.62-.82ZM37.75,6.31h-2.1v4.19h2.1v-4.19Z"/><path class="b" d="M42.55,4.24c1.44.14,3.6-.28,4.95-.02.29.06.47.32.65.52v7.33c-.03.08-.38.43-.46.46-.31.13-4.39.15-4.92.08-.39-.05-.54-.25-.78-.53l-.08-7.01c0-.37.33-.63.62-.82ZM46.13,6.31h-2.1v4.19h2.1v-4.19Z"/><path class="b" d="M17.41,25.19c1.44.14,3.6-.28,4.95-.02.29.06.47.32.65.52v7.33c-.03.08-.38.43-.46.46-.31.13-4.39.15-4.92.08-.39-.05-.54-.25-.78-.53l-.08-7.01c0-.37.33-.63.62-.82ZM18.89,27.26v4.19h2.1v-4.19h-2.1Z"/><path class="b" d="M25.79,25.19c1.44.14,3.6-.28,4.95-.02.29.06.47.32.65.52v7.33c-.03.08-.38.43-.46.46-.31.13-4.39.15-4.92.08-.39-.05-.54-.25-.78-.53l-.08-7.01c0-.37.33-.63.62-.82ZM27.27,27.26v4.19h2.1v-4.19h-2.1Z"/><path class="b" d="M42.55,35.67c1.44.14,3.6-.28,4.95-.02.29.06.47.32.65.52v7.33c-.03.08-.38.43-.46.46-.31.13-4.39.15-4.92.08-.39-.05-.54-.25-.78-.53l-.08-7.01c0-.37.33-.63.62-.82ZM46.13,37.74h-2.1v4.19h2.1v-4.19Z"/><path class="b" d="M34.17,35.67c1.44.14,3.6-.28,4.95-.02.29.06.47.32.65.52v7.33c-.03.08-.38.43-.46.46-.31.13-4.39.15-4.92.08-.39-.05-.54-.25-.78-.53l-.08-7.01c0-.37.33-.63.62-.82ZM37.75,37.74h-2.1v4.19h2.1v-4.19Z"/><path class="b" d="M25.79,35.67c1.44.14,3.6-.28,4.95-.02.29.06.47.32.65.52v7.33c-.03.08-.38.43-.46.46-.31.13-4.39.15-4.92.08-.39-.05-.54-.25-.78-.53l-.08-7.01c0-.37.33-.63.62-.82ZM29.36,37.74h-2.1v4.19h2.1v-4.19Z"/><path class="b" d="M17.41,35.67c1.44.14,3.6-.28,4.95-.02.29.06.47.32.65.52v7.33c-.03.08-.38.43-.46.46-.31.13-4.39.15-4.92.08-.39-.05-.54-.25-.78-.53l-.08-7.01c0-.37.33-.63.62-.82ZM20.98,37.74h-2.1v4.19h2.1v-4.19Z"/></svg>