<?xml version="1.0" encoding="UTF-8"?><svg id="a" xmlns="http://www.w3.org/2000/svg" viewBox="0 0 203.17 151.56"><defs><style>.b{fill:#e6e7e8;}.c{fill:none;stroke:#fff;stroke-miterlimit:22.93;stroke-width:.17px;}</style></defs><path class="b" d="M.09,1.26h5.77c3.06,0,5.38.62,6.96,1.85,1.58,1.23,2.38,3,2.38,5.3,0,1.27-.32,2.44-.95,3.51-.64,1.07-1.56,1.93-2.78,2.58,2,.65,3.53,1.62,4.57,2.92,1.04,1.3,1.56,2.84,1.56,4.63,0,2.41-.88,4.41-2.64,5.99-1.76,1.58-4.03,2.38-6.82,2.38H.09V1.26ZM2.97,4.1v9.34h1.67c2.54,0,4.44-.41,5.68-1.22,1.25-.81,1.87-2.08,1.87-3.82,0-2.87-1.95-4.3-5.85-4.3h-3.37ZM2.97,16.37v11.21h3.61c2.08,0,3.62-.21,4.61-.63.99-.42,1.79-1.07,2.42-1.95.62-.88.93-1.78.93-2.7s-.18-1.73-.53-2.44c-.35-.7-.87-1.33-1.56-1.87-.69-.54-1.52-.95-2.48-1.22-.96-.27-2.75-.41-5.38-.41h-1.62Z"/><path class="c" d="M.09,1.26h5.77c3.06,0,5.38.62,6.96,1.85,1.58,1.23,2.38,3,2.38,5.3,0,1.27-.32,2.44-.95,3.51-.64,1.07-1.56,1.93-2.78,2.58,2,.65,3.53,1.62,4.57,2.92,1.04,1.3,1.56,2.84,1.56,4.63,0,2.41-.88,4.41-2.64,5.99-1.76,1.58-4.03,2.38-6.82,2.38H.09V1.26ZM2.97,4.1v9.34h1.67c2.54,0,4.44-.41,5.68-1.22,1.25-.81,1.87-2.08,1.87-3.82,0-2.87-1.95-4.3-5.85-4.3h-3.37ZM2.97,16.37v11.21h3.61c2.08,0,3.62-.21,4.61-.63.99-.42,1.79-1.07,2.42-1.95.62-.88.93-1.78.93-2.7s-.18-1.73-.53-2.44c-.35-.7-.87-1.33-1.56-1.87-.69-.54-1.52-.95-2.48-1.22-.96-.27-2.75-.41-5.38-.41h-1.62Z"/><path class="b" d="M20.04,15.96c0-2.81.68-5.41,2.03-7.8,1.35-2.38,3.21-4.25,5.56-5.6,2.35-1.35,4.92-2.03,7.69-2.03s5.36.67,7.76,2.01c2.4,1.34,4.28,3.19,5.64,5.56,1.37,2.37,2.05,4.94,2.05,7.71s-.68,5.35-2.03,7.71c-1.35,2.37-3.21,4.23-5.58,5.58-2.37,1.35-4.94,2.03-7.71,2.03s-5.35-.67-7.74-2.01c-2.38-1.34-4.26-3.19-5.62-5.54-1.37-2.36-2.05-4.9-2.05-7.63ZM47.73,15.84c0-3.49-1.21-6.44-3.63-8.85-2.42-2.41-5.34-3.61-8.75-3.61s-6.41,1.21-8.75,3.63c-2.34,2.42-3.51,5.37-3.51,8.85s1.2,6.42,3.61,8.83c2.41,2.41,5.32,3.61,8.73,3.61s6.31-1.18,8.71-3.53c2.4-2.35,3.59-5.33,3.59-8.93Z"/><path class="c" d="M20.04,15.96c0-2.81.68-5.41,2.03-7.8,1.35-2.38,3.21-4.25,5.56-5.6,2.35-1.35,4.92-2.03,7.69-2.03s5.36.67,7.76,2.01c2.4,1.34,4.28,3.19,5.64,5.56,1.37,2.37,2.05,4.94,2.05,7.71s-.68,5.35-2.03,7.71c-1.35,2.37-3.21,4.23-5.58,5.58-2.37,1.35-4.94,2.03-7.71,2.03s-5.35-.67-7.74-2.01c-2.38-1.34-4.26-3.19-5.62-5.54-1.37-2.36-2.05-4.9-2.05-7.63ZM47.73,15.84c0-3.49-1.21-6.44-3.63-8.85-2.42-2.41-5.34-3.61-8.75-3.61s-6.41,1.21-8.75,3.63c-2.34,2.42-3.51,5.37-3.51,8.85s1.2,6.42,3.61,8.83c2.41,2.41,5.32,3.61,8.73,3.61s6.31-1.18,8.71-3.53c2.4-2.35,3.59-5.33,3.59-8.93Z"/><path class="b" d="M54.6,30.42V1.26h.65l19.37,22.33V1.26h2.88v29.15h-.65l-19.25-22.05v22.05h-3Z"/><path class="c" d="M54.6,30.42V1.26h.65l19.37,22.33V1.26h2.88v29.15h-.65l-19.25-22.05v22.05h-3Z"/><path class="b" d="M82.19,1.26h2.92v29.15h-2.92V1.26Z"/><path class="c" d="M82.19,1.26h2.92v29.15h-2.92V1.26Z"/><path class="b" d="M89.75,1.26h14.62v2.88h-11.69v9.1h11.69v2.88h-11.69v14.29h-2.92V1.26Z"/><path class="c" d="M89.75,1.26h14.62v2.88h-11.69v9.1h11.69v2.88h-11.69v14.29h-2.92V1.26Z"/><path class="b" d="M119.36.09l13.6,30.33h-3.13l-4.59-9.95h-12.59l-4.55,9.95h-3.25L118.63.09h.73ZM119,6.54l-4.99,10.96h9.95l-4.95-10.96Z"/><path class="c" d="M119.36.09l13.6,30.33h-3.13l-4.59-9.95h-12.59l-4.55,9.95h-3.25L118.63.09h.73ZM119,6.54l-4.99,10.96h9.95l-4.95-10.96Z"/><path class="b" d="M162.62,6.66l-2.27,1.75c-2.71-3.36-6.19-5.03-10.44-5.03-3.47,0-6.45,1.22-8.95,3.65-2.5,2.44-3.76,5.42-3.76,8.95s1.22,6.48,3.67,8.85c2.45,2.37,5.52,3.55,9.2,3.55,4.11,0,7.54-1.6,10.27-4.79l2.27,1.75c-1.44,1.89-3.25,3.34-5.44,4.32-2.19.99-4.62,1.48-7.27,1.48-4.63,0-8.42-1.46-11.37-4.39-2.95-2.92-4.43-6.62-4.43-11.09,0-2.76.68-5.31,2.05-7.65,1.37-2.34,3.26-4.18,5.68-5.5,2.42-1.33,5.03-1.99,7.82-1.99s5.29.53,7.51,1.58c2.22,1.06,4.03,2.57,5.44,4.55Z"/><path class="c" d="M162.62,6.66l-2.27,1.75c-2.71-3.36-6.19-5.03-10.44-5.03-3.47,0-6.45,1.22-8.95,3.65-2.5,2.44-3.76,5.42-3.76,8.95s1.22,6.48,3.67,8.85c2.45,2.37,5.52,3.55,9.2,3.55,4.11,0,7.54-1.6,10.27-4.79l2.27,1.75c-1.44,1.89-3.25,3.34-5.44,4.32-2.19.99-4.62,1.48-7.27,1.48-4.63,0-8.42-1.46-11.37-4.39-2.95-2.92-4.43-6.62-4.43-11.09,0-2.76.68-5.31,2.05-7.65,1.37-2.34,3.26-4.18,5.68-5.5,2.42-1.33,5.03-1.99,7.82-1.99s5.29.53,7.51,1.58c2.22,1.06,4.03,2.57,5.44,4.55Z"/><path class="b" d="M166.04,1.26h2.92v29.15h-2.92V1.26Z"/><path class="c" d="M166.04,1.26h2.92v29.15h-2.92V1.26Z"/><path class="b" d="M172.35,15.96c0-2.81.68-5.41,2.03-7.8,1.35-2.38,3.21-4.25,5.56-5.6,2.35-1.35,4.92-2.03,7.69-2.03s5.36.67,7.76,2.01c2.4,1.34,4.28,3.19,5.64,5.56,1.37,2.37,2.05,4.94,2.05,7.71s-.68,5.35-2.03,7.71c-1.35,2.37-3.21,4.23-5.58,5.58-2.37,1.35-4.94,2.03-7.71,2.03s-5.35-.67-7.74-2.01c-2.38-1.34-4.26-3.19-5.62-5.54-1.37-2.36-2.05-4.9-2.05-7.63ZM200.04,15.84c0-3.49-1.21-6.44-3.63-8.85-2.42-2.41-5.34-3.61-8.75-3.61s-6.41,1.21-8.75,3.63c-2.34,2.42-3.51,5.37-3.51,8.85s1.2,6.42,3.61,8.83c2.41,2.41,5.32,3.61,8.73,3.61s6.31-1.18,8.71-3.53c2.4-2.35,3.59-5.33,3.59-8.93Z"/><path class="c" d="M172.35,15.96c0-2.81.68-5.41,2.03-7.8,1.35-2.38,3.21-4.25,5.56-5.6,2.35-1.35,4.92-2.03,7.69-2.03s5.36.67,7.76,2.01c2.4,1.34,4.28,3.19,5.64,5.56,1.37,2.37,2.05,4.94,2.05,7.71s-.68,5.35-2.03,7.71c-1.35,2.37-3.21,4.23-5.58,5.58-2.37,1.35-4.94,2.03-7.71,2.03s-5.35-.67-7.74-2.01c-2.38-1.34-4.26-3.19-5.62-5.54-1.37-2.36-2.05-4.9-2.05-7.63ZM200.04,15.84c0-3.49-1.21-6.44-3.63-8.85-2.42-2.41-5.34-3.61-8.75-3.61s-6.41,1.21-8.75,3.63c-2.34,2.42-3.51,5.37-3.51,8.85s1.2,6.42,3.61,8.83c2.41,2.41,5.32,3.61,8.73,3.61s6.31-1.18,8.71-3.53c2.4-2.35,3.59-5.33,3.59-8.93Z"/><path class="b" d="M10.64,43.37h12.05v61.38h-6.07v-55.4H6.96l3.68-5.98Z"/><path class="c" d="M10.64,43.37h12.05v61.38h-6.07v-55.4H6.96l3.68-5.98Z"/><path class="b" d="M80.86,71.07c7.75,3.82,11.63,9.18,11.63,16.07,0,5.47-1.92,10.03-5.77,13.68-3.85,3.65-8.89,5.47-15.13,5.47s-11.24-1.82-15-5.47c-3.76-3.65-5.64-8.04-5.64-13.17,0-7.18,3.96-12.71,11.88-16.58-5.98-3.19-8.98-7.61-8.98-13.25,0-4.22,1.75-7.94,5.26-11.16,3.51-3.22,7.74-4.83,12.7-4.83s9.18,1.57,12.65,4.7c3.48,3.14,5.21,6.95,5.21,11.46,0,5.47-2.94,9.83-8.81,13.08ZM86.33,87.23c0-3.48-1.41-6.52-4.23-9.15-2.82-2.62-6.24-3.93-10.26-3.93s-7.48,1.35-10.39,4.06c-2.91,2.71-4.36,5.9-4.36,9.57s1.34,6.71,4.02,9.1c2.68,2.39,6.18,3.59,10.52,3.59s7.86-1.28,10.6-3.85c2.74-2.56,4.1-5.7,4.1-9.4ZM83.51,57.73c0-2.74-1.07-5.09-3.21-7.05-2.14-1.97-4.93-2.95-8.38-2.95s-6.28.98-8.51,2.95c-2.22,1.97-3.33,4.35-3.33,7.14s1.21,5.29,3.63,7.48c2.42,2.19,5.17,3.29,8.25,3.29s5.77-1.08,8.08-3.25c2.31-2.17,3.46-4.7,3.46-7.61Z"/><path class="c" d="M80.86,71.07c7.75,3.82,11.63,9.18,11.63,16.07,0,5.47-1.92,10.03-5.77,13.68-3.85,3.65-8.89,5.47-15.13,5.47s-11.24-1.82-15-5.47c-3.76-3.65-5.64-8.04-5.64-13.17,0-7.18,3.96-12.71,11.88-16.58-5.98-3.19-8.98-7.61-8.98-13.25,0-4.22,1.75-7.94,5.26-11.16,3.51-3.22,7.74-4.83,12.7-4.83s9.18,1.57,12.65,4.7c3.48,3.14,5.21,6.95,5.21,11.46,0,5.47-2.94,9.83-8.81,13.08ZM86.33,87.23c0-3.48-1.41-6.52-4.23-9.15-2.82-2.62-6.24-3.93-10.26-3.93s-7.48,1.35-10.39,4.06c-2.91,2.71-4.36,5.9-4.36,9.57s1.34,6.71,4.02,9.1c2.68,2.39,6.18,3.59,10.52,3.59s7.86-1.28,10.6-3.85c2.74-2.56,4.1-5.7,4.1-9.4ZM83.51,57.73c0-2.74-1.07-5.09-3.21-7.05-2.14-1.97-4.93-2.95-8.38-2.95s-6.28.98-8.51,2.95c-2.22,1.97-3.33,4.35-3.33,7.14s1.21,5.29,3.63,7.48c2.42,2.19,5.17,3.29,8.25,3.29s5.77-1.08,8.08-3.25c2.31-2.17,3.46-4.7,3.46-7.61Z"/><path class="b" d="M117.06,43.37h12.05v61.38h-6.07v-55.4h-9.66l3.68-5.98Z"/><path class="c" d="M117.06,43.37h12.05v61.38h-6.07v-55.4h-9.66l3.68-5.98Z"/><path class="b" d="M170.87,106.29l-5.04-3.25,16.58-25.13c-2.17.74-4.3,1.11-6.41,1.11-4.9,0-9.02-1.77-12.35-5.3-3.33-3.53-5-7.94-5-13.21s1.85-9.7,5.56-13.29c3.7-3.59,8.25-5.39,13.64-5.39s9.83,1.84,13.34,5.51c3.5,3.68,5.26,8.08,5.26,13.21,0,2.85-.59,5.71-1.75,8.59-1.17,2.88-2.89,6-5.17,9.36l-18.64,27.78ZM164.62,60.72c0,3.59,1.25,6.64,3.76,9.15,2.51,2.51,5.56,3.76,9.15,3.76s6.64-1.27,9.15-3.8c2.51-2.54,3.76-5.57,3.76-9.1s-1.25-6.57-3.76-9.1c-2.51-2.54-5.56-3.8-9.15-3.8s-6.64,1.25-9.15,3.76c-2.51,2.51-3.76,5.56-3.76,9.15Z"/><path class="c" d="M170.87,106.29l-5.04-3.25,16.58-25.13c-2.17.74-4.3,1.11-6.41,1.11-4.9,0-9.02-1.77-12.35-5.3-3.33-3.53-5-7.94-5-13.21s1.85-9.7,5.56-13.29c3.7-3.59,8.25-5.39,13.64-5.39s9.83,1.84,13.34,5.51c3.5,3.68,5.26,8.08,5.26,13.21,0,2.85-.59,5.71-1.75,8.59-1.17,2.88-2.89,6-5.17,9.36l-18.64,27.78ZM164.62,60.72c0,3.59,1.25,6.64,3.76,9.15,2.51,2.51,5.56,3.76,9.15,3.76s6.64-1.27,9.15-3.8c2.51-2.54,3.76-5.57,3.76-9.1s-1.25-6.57-3.76-9.1c-2.51-2.54-5.56-3.8-9.15-3.8s-6.64,1.25-9.15,3.76c-2.51,2.51-3.76,5.56-3.76,9.15Z"/><path class="b" d="M22.32,141.53l-.92.71c-1.1-1.36-2.51-2.04-4.24-2.04-1.41,0-2.62.49-3.63,1.48-1.02.99-1.52,2.2-1.52,3.63s.5,2.63,1.49,3.59c.99.96,2.24,1.44,3.73,1.44,1.67,0,3.06-.65,4.17-1.95l.92.71c-.58.77-1.32,1.35-2.21,1.76s-1.87.6-2.95.6c-1.88,0-3.42-.59-4.61-1.78-1.2-1.19-1.8-2.69-1.8-4.5,0-1.12.28-2.16.83-3.11.55-.95,1.32-1.69,2.31-2.23.98-.54,2.04-.81,3.17-.81s2.15.21,3.05.64c.9.43,1.64,1.04,2.21,1.85Z"/><path class="c" d="M22.32,141.53l-.92.71c-1.1-1.36-2.51-2.04-4.24-2.04-1.41,0-2.62.49-3.63,1.48-1.02.99-1.52,2.2-1.52,3.63s.5,2.63,1.49,3.59c.99.96,2.24,1.44,3.73,1.44,1.67,0,3.06-.65,4.17-1.95l.92.71c-.58.77-1.32,1.35-2.21,1.76s-1.87.6-2.95.6c-1.88,0-3.42-.59-4.61-1.78-1.2-1.19-1.8-2.69-1.8-4.5,0-1.12.28-2.16.83-3.11.55-.95,1.32-1.69,2.31-2.23.98-.54,2.04-.81,3.17-.81s2.15.21,3.05.64c.9.43,1.64,1.04,2.21,1.85Z"/><path class="b" d="M41.71,138.86l5.52,12.31h-1.27l-1.86-4.04h-5.11l-1.85,4.04h-1.32l5.59-12.31h.3ZM41.56,141.48l-2.03,4.45h4.04l-2.01-4.45Z"/><path class="c" d="M41.71,138.86l5.52,12.31h-1.27l-1.86-4.04h-5.11l-1.85,4.04h-1.32l5.59-12.31h.3ZM41.56,141.48l-2.03,4.45h4.04l-2.01-4.45Z"/><path class="b" d="M61.26,139.34h2.34c1.24,0,2.18.25,2.83.75.64.5.96,1.22.96,2.15,0,.52-.13.99-.39,1.43-.26.43-.63.78-1.13,1.05.81.26,1.43.66,1.85,1.19.42.53.63,1.15.63,1.88,0,.98-.36,1.79-1.07,2.43s-1.64.96-2.77.96h-3.26v-11.83ZM62.43,140.49v3.79h.68c1.03,0,1.8-.16,2.31-.49.51-.33.76-.85.76-1.55,0-1.16-.79-1.75-2.37-1.75h-1.37ZM62.43,145.47v4.55h1.47c.85,0,1.47-.09,1.87-.26.4-.17.73-.43.98-.79.25-.36.38-.72.38-1.1s-.07-.7-.21-.99c-.14-.29-.35-.54-.63-.76-.28-.22-.62-.38-1.01-.49-.39-.11-1.12-.17-2.18-.17h-.66Z"/><path class="c" d="M61.26,139.34h2.34c1.24,0,2.18.25,2.83.75.64.5.96,1.22.96,2.15,0,.52-.13.99-.39,1.43-.26.43-.63.78-1.13,1.05.81.26,1.43.66,1.85,1.19.42.53.63,1.15.63,1.88,0,.98-.36,1.79-1.07,2.43s-1.64.96-2.77.96h-3.26v-11.83ZM62.43,140.49v3.79h.68c1.03,0,1.8-.16,2.31-.49.51-.33.76-.85.76-1.55,0-1.16-.79-1.75-2.37-1.75h-1.37ZM62.43,145.47v4.55h1.47c.85,0,1.47-.09,1.87-.26.4-.17.73-.43.98-.79.25-.36.38-.72.38-1.1s-.07-.7-.21-.99c-.14-.29-.35-.54-.63-.76-.28-.22-.62-.38-1.01-.49-.39-.11-1.12-.17-2.18-.17h-.66Z"/><path class="b" d="M87.71,138.86l5.52,12.31h-1.27l-1.86-4.04h-5.11l-1.85,4.04h-1.32l5.59-12.31h.3ZM87.56,141.48l-2.03,4.45h4.04l-2.01-4.45Z"/><path class="c" d="M87.71,138.86l5.52,12.31h-1.27l-1.86-4.04h-5.11l-1.85,4.04h-1.32l5.59-12.31h.3ZM87.56,141.48l-2.03,4.45h4.04l-2.01-4.45Z"/><path class="b" d="M107.23,139.34h1.2v10.7h4.55v1.14h-5.75v-11.83Z"/><path class="c" d="M107.23,139.34h1.2v10.7h4.55v1.14h-5.75v-11.83Z"/><path class="b" d="M127.01,139.34h1.2v10.7h4.55v1.14h-5.75v-11.83Z"/><path class="c" d="M127.01,139.34h1.2v10.7h4.55v1.14h-5.75v-11.83Z"/><path class="b" d="M146.63,139.34h1.19v11.83h-1.19v-11.83Z"/><path class="c" d="M146.63,139.34h1.19v11.83h-1.19v-11.83Z"/><path class="b" d="M161.52,140.49v-1.15h6.49v1.15h-2.64v10.68h-1.2v-10.68h-2.65Z"/><path class="c" d="M161.52,140.49v-1.15h6.49v1.15h-2.64v10.68h-1.2v-10.68h-2.65Z"/><path class="b" d="M181.38,145.31c0-1.14.27-2.2.82-3.16.55-.97,1.3-1.73,2.26-2.27.96-.55,2-.82,3.12-.82s2.18.27,3.15.82c.97.54,1.74,1.3,2.29,2.26.55.96.83,2.01.83,3.13s-.27,2.17-.82,3.13-1.3,1.72-2.27,2.27-2.01.82-3.13.82-2.17-.27-3.14-.82c-.97-.54-1.73-1.29-2.28-2.25-.55-.96-.83-1.99-.83-3.1ZM192.62,145.26c0-1.42-.49-2.62-1.48-3.59s-2.17-1.47-3.55-1.47-2.6.49-3.55,1.48c-.95.98-1.43,2.18-1.43,3.59s.49,2.61,1.47,3.59c.98.98,2.16,1.47,3.54,1.47s2.56-.48,3.54-1.43c.97-.96,1.46-2.16,1.46-3.63Z"/><path class="c" d="M181.38,145.31c0-1.14.27-2.2.82-3.16.55-.97,1.3-1.73,2.26-2.27.96-.55,2-.82,3.12-.82s2.18.27,3.15.82c.97.54,1.74,1.3,2.29,2.26.55.96.83,2.01.83,3.13s-.27,2.17-.82,3.13-1.3,1.72-2.27,2.27-2.01.82-3.13.82-2.17-.27-3.14-.82c-.97-.54-1.73-1.29-2.28-2.25-.55-.96-.83-1.99-.83-3.1ZM192.62,145.26c0-1.42-.49-2.62-1.48-3.59s-2.17-1.47-3.55-1.47-2.6.49-3.55,1.48c-.95.98-1.43,2.18-1.43,3.59s.49,2.61,1.47,3.59c.98.98,2.16,1.47,3.54,1.47s2.56-.48,3.54-1.43c.97-.96,1.46-2.16,1.46-3.63Z"/></svg>