<?xml version="1.0" encoding="UTF-8"?><svg id="a" xmlns="http://www.w3.org/2000/svg" viewBox="0 0 62.23 61.06"><defs><style>.b{fill:#bb9f7c;}</style></defs><path class="b" d="M45.21,44.02v5.1c0,.31-1.42.95-1.56-.38-.28-2.83.22-6.15.02-9.04-.07-.83,1.54-.72,1.54-.14v2.78h15.5v-10.85h-15.5v2.78c0,.51-1.38.85-1.55,0-.08-.43-.09-3.44,0-3.87.05-.28.48-.58.71-.58h16.34V1.53h-18.6v20.27h6c.57,0,1.21,1.48,0,1.67-4.32-.28-9.17.4-13.43.01-.75-.07-1.3-.64-.84-1.34.04-.06.56-.34.59-.34h6V1.53h-18.6v20.27h6s.55.29.59.34c.46.7-.09,1.27-.84,1.34-4.26.39-9.11-.29-13.43-.01-1.22-.19-.58-1.67,0-1.67h6V1.53H1.56v20.27h6.13c.81,0,.67,1.68.13,1.68H1.56v6.33h12.33c.3,0,.65.39.7.72.13.91.13,3.85,0,4.76-.13.96-1.54.61-1.54.14v-3.94H1.56v13.17h11.49v-4.07c0-.33,1.39-.78,1.54.27-.18,2.86.28,6.09.02,8.91-.14,1.54-1.56.8-1.56.51v-3.94H1.56v13.04h11.49v-3.94c0-.57,1.55-.57,1.55,0v3.94h29.06v-5.1c0-.4,1.37-.83,1.55.13-.19,1.81.27,4.19,0,5.93-.07.42-.29.64-.71.71l-43.97-.05c-.36-.14-.56-.37-.52-.77L.08.24l.27-.24,61.64.05.24.28-.04,43.3c-.04.09-.46.39-.52.39h-16.46Z"/></svg>