<?xml version="1.0" encoding="UTF-8"?><svg id="a" xmlns="http://www.w3.org/2000/svg" viewBox="0 0 153.61 14"><defs><style>.b{fill:#fff;}.c{fill:#b8a180;}</style></defs><path class="b" d="M9.91,12.64c-.99.9-2.25,1.36-3.79,1.36-1.9,0-3.4-.61-4.49-1.83-1.09-1.23-1.63-2.91-1.63-5.04C0,4.82.62,3.04,1.86,1.79,2.93.7,4.3.15,5.97.15c2.23,0,3.85.73,4.88,2.19.57.82.87,1.64.92,2.47h-2.76c-.18-.63-.41-1.11-.69-1.44-.5-.57-1.25-.86-2.23-.86s-1.8.41-2.38,1.22c-.58.81-.87,1.96-.87,3.44s.31,2.59.92,3.33c.61.74,1.39,1.11,2.34,1.11s1.71-.32,2.22-.95c.28-.34.51-.85.7-1.53h2.74c-.24,1.44-.85,2.61-1.83,3.52Z"/><path class="b" d="M19.77,14c-1.89,0-3.34-.51-4.33-1.54-1.34-1.26-2.01-3.08-2.01-5.46s.67-4.24,2.01-5.46c1-1.03,2.44-1.54,4.33-1.54s3.34.51,4.33,1.54c1.33,1.21,2,3.03,2,5.46s-.67,4.19-2,5.46c-1,1.03-2.44,1.54-4.33,1.54ZM22.38,10.45c.64-.81.96-1.96.96-3.45s-.32-2.63-.96-3.44-1.51-1.22-2.61-1.22-1.97.4-2.62,1.21c-.65.81-.98,1.96-.98,3.45s.33,2.64.98,3.45c.65.81,1.53,1.21,2.62,1.21s1.97-.4,2.61-1.21Z"/><path class="b" d="M38.99,13.63h-2.76l-5.4-9.4v9.4h-2.58V.4h2.9l5.27,9.23V.4h2.58v13.23Z"/><path class="b" d="M46.44,11.72c.65,0,1.18-.07,1.59-.22.77-.28,1.16-.79,1.16-1.53,0-.44-.19-.77-.57-1.01-.38-.23-.98-.44-1.8-.62l-1.4-.31c-1.38-.31-2.33-.65-2.85-1.01-.89-.61-1.34-1.56-1.34-2.86,0-1.18.43-2.17,1.29-2.95.86-.78,2.13-1.18,3.8-1.18,1.39,0,2.58.37,3.57,1.11.98.74,1.5,1.81,1.55,3.22h-2.66c-.05-.8-.39-1.36-1.04-1.7-.43-.22-.97-.33-1.61-.33-.71,0-1.28.14-1.71.43-.42.29-.64.69-.64,1.2,0,.47.21.83.63,1.06.27.16.84.34,1.72.55l2.28.55c1,.24,1.75.56,2.26.96.79.62,1.18,1.52,1.18,2.7s-.46,2.21-1.39,3.01c-.92.8-2.23,1.2-3.92,1.2s-3.08-.39-4.07-1.18c-.99-.79-1.48-1.87-1.48-3.24h2.64c.08.6.25,1.06.49,1.36.45.54,1.22.82,2.31.82Z"/><path class="b" d="M63.58.4v2.34h-3.96v10.89h-2.78V2.75h-3.98V.4h10.72Z"/><path class="b" d="M70.89,8.44h-2.85v5.19h-2.7V.4h6.49c.93.02,1.64.13,2.14.34.5.21.92.52,1.27.92.29.34.51.71.68,1.11.17.41.25.87.25,1.39,0,.63-.16,1.25-.48,1.85-.32.61-.84,1.04-1.57,1.29.61.25,1.04.59,1.3,1.05.25.45.38,1.14.38,2.07v.89c0,.6.02,1.01.07,1.23.07.34.24.59.5.75v.33h-3.04c-.08-.29-.14-.53-.18-.71-.07-.37-.11-.75-.12-1.14l-.02-1.23c-.01-.84-.17-1.41-.46-1.69-.3-.28-.85-.42-1.66-.42ZM72.57,6.04c.55-.25.83-.75.83-1.49,0-.8-.27-1.34-.8-1.62-.3-.16-.75-.23-1.35-.23h-3.21v3.55h3.13c.62,0,1.09-.07,1.4-.22Z"/><path class="b" d="M86.44,8.53V.4h2.81v8.13c0,1.41-.22,2.5-.65,3.28-.81,1.44-2.37,2.15-4.66,2.15s-3.85-.72-4.67-2.15c-.44-.78-.66-1.88-.66-3.28V.4h2.81v8.13c0,.91.11,1.57.32,1.99.34.74,1.06,1.11,2.19,1.11s1.85-.37,2.18-1.11c.22-.42.32-1.08.32-1.99Z"/><path class="b" d="M101.3,12.64c-.99.9-2.25,1.36-3.79,1.36-1.9,0-3.4-.61-4.49-1.83-1.09-1.23-1.63-2.91-1.63-5.04,0-2.31.62-4.09,1.86-5.34,1.08-1.09,2.45-1.63,4.11-1.63,2.23,0,3.85.73,4.88,2.19.57.82.87,1.64.92,2.47h-2.76c-.18-.63-.41-1.11-.69-1.44-.5-.57-1.25-.86-2.23-.86s-1.8.41-2.38,1.22c-.58.81-.87,1.96-.87,3.44s.31,2.59.92,3.33c.61.74,1.39,1.11,2.34,1.11s1.71-.32,2.22-.95c.28-.34.51-.85.7-1.53h2.74c-.24,1.44-.85,2.61-1.83,3.52Z"/><path class="c" d="M110.11,11.72c.65,0,1.18-.07,1.59-.22.77-.28,1.16-.79,1.16-1.53,0-.44-.19-.77-.57-1.01-.38-.23-.98-.44-1.8-.62l-1.4-.31c-1.38-.31-2.33-.65-2.85-1.01-.89-.61-1.34-1.56-1.34-2.86,0-1.18.43-2.17,1.29-2.95.86-.78,2.13-1.18,3.8-1.18,1.39,0,2.58.37,3.57,1.11.98.74,1.5,1.81,1.55,3.22h-2.66c-.05-.8-.39-1.36-1.04-1.7-.43-.22-.97-.33-1.61-.33-.71,0-1.28.14-1.71.43-.42.29-.64.69-.64,1.2,0,.47.21.83.63,1.06.27.16.84.34,1.72.55l2.28.55c1,.24,1.75.56,2.26.96.79.62,1.18,1.52,1.18,2.7s-.46,2.21-1.39,3.01c-.92.8-2.23,1.2-3.92,1.2s-3.08-.39-4.07-1.18c-.99-.79-1.48-1.87-1.48-3.24h2.64c.08.6.25,1.06.49,1.36.45.54,1.22.82,2.31.82Z"/><path class="c" d="M126.85,7.85h-6.43v3.4h7.32v2.38h-10.02V.4h9.7v2.34h-7v2.81h6.43v2.3Z"/><path class="c" d="M135.59,8.44h-2.85v5.19h-2.7V.4h6.49c.93.02,1.64.13,2.14.34.5.21.92.52,1.27.92.29.34.51.71.68,1.11.17.41.25.87.25,1.39,0,.63-.16,1.25-.48,1.85-.32.61-.84,1.04-1.57,1.29.61.25,1.04.59,1.3,1.05.25.45.38,1.14.38,2.07v.89c0,.6.02,1.01.07,1.23.07.34.24.59.5.75v.33h-3.04c-.08-.29-.14-.53-.18-.71-.07-.37-.11-.75-.12-1.14l-.02-1.23c-.01-.84-.17-1.41-.46-1.69-.3-.28-.85-.42-1.66-.42ZM137.27,6.04c.55-.25.83-.75.83-1.49,0-.8-.27-1.34-.8-1.62-.3-.16-.75-.23-1.35-.23h-3.21v3.55h3.13c.62,0,1.09-.07,1.4-.22Z"/><path class="c" d="M142.02.4h2.95l2.87,10.04,2.9-10.04h2.87l-4.51,13.23h-2.61l-4.47-13.23Z"/></svg>