<?xml version="1.0" encoding="UTF-8"?><svg id="a" xmlns="http://www.w3.org/2000/svg" viewBox="0 0 353.83 8.22"><defs><style>.b{fill:#bb9f7c;}</style></defs><path class="b" d="M267.76,4.11c0,.93.23,1.69.68,2.29.51.66,1.22.99,2.13.99s1.63-.33,2.13-.99c.45-.6.68-1.36.68-2.29s-.23-1.69-.68-2.29c-.5-.66-1.22-.99-2.13-.99s-1.63.33-2.13.99c-.45.6-.68,1.36-.68,2.29M266.64,4.11c0-1.23.36-2.22,1.06-2.98.71-.75,1.66-1.13,2.87-1.13s2.17.38,2.88,1.13c.71.75,1.06,1.75,1.06,2.98s-.35,2.22-1.06,2.98c-.71.76-1.67,1.13-2.88,1.13s-2.17-.38-2.87-1.13c-.71-.75-1.06-1.75-1.06-2.98ZM259.42,8.02V1.1h-2.35V.2h5.74v.9h-2.35v6.93h-1.03ZM246.81,8.02V.2h1.05l4.14,6.18h.02V.2h.97v7.83h-1.03l-4.15-6.17h-.02v6.17h-.97ZM236.98,8.02V.2h5.5v.9h-4.46v2.42h3.88v.9h-3.88v2.7h4.57v.9h-5.61ZM231.15,8.02V.2h1.03v7.83h-1.03ZM218.81,8.02V.2h1.36l2.4,6.35,2.4-6.35h1.36v7.83h-1.03V1.73h-.02l-2.28,6.3h-.84l-2.29-6.3h-.02v6.3h-1.03ZM212.95,8.02V.2h1.03v7.83h-1.03ZM203.01,1.1v6.03h1.75c1.68,0,2.52-1.02,2.52-3.07s-.81-2.96-2.43-2.96h-1.84ZM201.98,8.02V.2h2.96c1.15,0,2.03.37,2.63,1.1.56.68.84,1.63.84,2.86s-.29,2.09-.86,2.77c-.61.73-1.48,1.1-2.61,1.1h-2.96ZM191.13,8.02V.2h1.05l4.14,6.18h.02V.2h.97v7.83h-1.03l-4.15-6.17h-.02v6.17h-.97ZM181.3,8.02V.2h5.5v.9h-4.46v2.42h3.88v.9h-3.88v2.7h4.57v.9h-5.61ZM171.89,1.1v2.7h2.34c1.1,0,1.65-.45,1.65-1.35s-.55-1.35-1.65-1.35h-2.34ZM170.85,8.02V.2h3.54c.72,0,1.29.15,1.73.46.53.38.79.98.79,1.79,0,1.26-.6,1.99-1.81,2.19l2.16,3.39h-1.26l-2.11-3.32h-2v3.32h-1.03ZM161.85,1.1v2.68h2.4c1,0,1.5-.45,1.5-1.34s-.45-1.34-1.35-1.34h-2.54ZM160.82,8.02V.2h3.91c.55,0,1.01.16,1.37.48.45.4.67.99.67,1.77,0,.71-.23,1.28-.68,1.7-.4.36-.89.54-1.45.54h-2.79v3.34h-1.03ZM148.59,8.02V.2h1.36l2.4,6.35,2.4-6.35h1.36v7.83h-1.03V1.73h-.02l-2.28,6.3h-.84l-2.29-6.3h-.02v6.3h-1.03ZM138.73,8.02V.2h5.5v.9h-4.46v2.42h3.88v.9h-3.88v2.7h4.57v.9h-5.61ZM121.38,4.11c0,.93.23,1.69.68,2.29.51.66,1.22.99,2.13.99s1.63-.33,2.13-.99c.45-.6.68-1.36.68-2.29s-.23-1.69-.68-2.29c-.5-.66-1.22-.99-2.13-.99s-1.63.33-2.13.99c-.45.6-.68,1.36-.68,2.29ZM120.26,4.11c0-1.23.36-2.22,1.06-2.98.71-.75,1.66-1.13,2.87-1.13s2.17.38,2.88,1.13c.71.75,1.06,1.75,1.06,2.98s-.35,2.22-1.06,2.98c-.71.76-1.67,1.13-2.88,1.13s-2.17-.38-2.87-1.13c-.71-.75-1.06-1.75-1.06-2.98ZM112.64,8.02l-2.61-7.83h1.13l2.04,6.4h.02l2.18-6.4h1.09l-2.78,7.83h-1.07ZM100.86,8.02V.2h5.5v.9h-4.46v2.42h3.88v.9h-3.88v2.7h4.57v.9h-5.61ZM96.19.2v5.25c0,.88-.26,1.56-.79,2.05s-1.26.73-2.19.73-1.66-.24-2.19-.73-.79-1.17-.79-2.05V.2h1.03v5.08c0,1.36.65,2.04,1.95,2.04s1.94-.68,1.94-2.04V.2h1.03ZM79.38,8.02V.2h1.05l4.14,6.18h.02V.2h.97v7.83h-1.03l-4.15-6.17h-.02v6.17h-.97Z"/><rect class="b" y="4.01" width="70.8" height=".41"/><rect class="b" x="283.03" y="4.68" width="70.8" height=".41"/></svg>